<?xml version="1.0" encoding="UTF-8"?>
<svg xmlns="http://www.w3.org/2000/svg" xmlns:xlink="http://www.w3.org/1999/xlink" version="1.1" viewBox="0 0 265.89 265.89">
  <defs>
    <style>
      .cls-1 {
        fill: url(#linear-gradient-8);
      }

      .cls-2 {
        fill: url(#linear-gradient-7);
      }

      .cls-3 {
        fill: url(#linear-gradient-5);
      }

      .cls-4 {
        fill: url(#linear-gradient-6);
      }

      .cls-5 {
        fill: url(#linear-gradient-9);
      }

      .cls-6 {
        fill: url(#linear-gradient-4);
      }

      .cls-7 {
        fill: url(#linear-gradient-3);
      }

      .cls-8 {
        fill: url(#linear-gradient-2);
      }

      .cls-9 {
        fill: url(#linear-gradient);
      }

      .cls-10 {
        fill: #f8f5f6;
      }

      .cls-11 {
        fill: #214f98;
      }

      .cls-12 {
        fill: #e3dedd;
      }

      .cls-13 {
        fill: #1f3a71;
      }

      .cls-14 {
        fill: url(#linear-gradient-10);
      }

      .cls-15 {
        fill: url(#linear-gradient-11);
      }

      .cls-16 {
        fill: url(#linear-gradient-12);
      }

      .cls-17 {
        fill: url(#linear-gradient-13);
      }

      .cls-18 {
        fill: url(#linear-gradient-14);
      }

      .cls-19 {
        fill: #f9f8f7;
      }

      .cls-20 {
        fill: #eb7475;
      }
    </style>
    <linearGradient id="linear-gradient" x1="-232.94" y1="388.63" x2="-230.91" y2="388.63" gradientTransform="translate(10196.3 -39712.23) rotate(-135) scale(90.8 -90.8)" gradientUnits="userSpaceOnUse">
      <stop offset="0" stop-color="#056cb3"/>
      <stop offset=".27" stop-color="#0a61a5"/>
      <stop offset=".79" stop-color="#184681"/>
      <stop offset="1" stop-color="#1f3a71"/>
    </linearGradient>
    <linearGradient id="linear-gradient-2" x1="-191.77" y1="404.6" x2="-189.74" y2="404.6" gradientTransform="translate(1174.23 1472.53) rotate(-16.5) scale(3.91 -3.91)" gradientUnits="userSpaceOnUse">
      <stop offset="0" stop-color="#8e8e90"/>
      <stop offset=".08" stop-color="#9a9a9c"/>
      <stop offset=".37" stop-color="#c5c5c6"/>
      <stop offset=".63" stop-color="#e5e5e5"/>
      <stop offset=".85" stop-color="#f8f8f8"/>
      <stop offset="1" stop-color="#fff"/>
    </linearGradient>
    <linearGradient id="linear-gradient-3" x1="-248.82" y1="361.6" x2="-246.79" y2="361.6" gradientTransform="translate(843.6 -3064.83) rotate(-135) scale(7.62 -7.62)" xlink:href="#linear-gradient-2"/>
    <linearGradient id="linear-gradient-4" x1="-203.81" y1="354.57" x2="-201.78" y2="354.57" gradientTransform="translate(1692.64 8.22) rotate(-68.89) scale(3.97 -3.97)" xlink:href="#linear-gradient-2"/>
    <linearGradient id="linear-gradient-5" x1="-273.42" y1="381.02" x2="-271.39" y2="381.02" gradientTransform="translate(-2175.81 -2051.86) rotate(167) scale(6.93 -6.93)" xlink:href="#linear-gradient-2"/>
    <linearGradient id="linear-gradient-6" x1="-268.2" y1="411.29" x2="-266.17" y2="411.29" gradientTransform="translate(-3145.78 631.42) rotate(112.44) scale(6.9 -6.9)" xlink:href="#linear-gradient-2"/>
    <linearGradient id="linear-gradient-7" x1="-244.27" y1="366.48" x2="-242.24" y2="366.48" gradientTransform="translate(-743.82 -2782.64) rotate(-160.89) scale(6.77 -6.77)" gradientUnits="userSpaceOnUse">
      <stop offset="0" stop-color="#0672b3"/>
      <stop offset=".49" stop-color="#0670b1"/>
      <stop offset=".66" stop-color="#096aaa"/>
      <stop offset=".79" stop-color="#0d609e"/>
      <stop offset=".89" stop-color="#14528d"/>
      <stop offset=".98" stop-color="#1c3f77"/>
      <stop offset="1" stop-color="#1f3a71"/>
    </linearGradient>
    <linearGradient id="linear-gradient-8" x1="-255.81" y1="399.13" x2="-253.78" y2="399.13" gradientTransform="translate(-3037.7 -539.56) rotate(136.42) scale(6.69 -6.69)" gradientUnits="userSpaceOnUse">
      <stop offset="0" stop-color="#0565a9"/>
      <stop offset=".25" stop-color="#085fa1"/>
      <stop offset=".63" stop-color="#124e8c"/>
      <stop offset="1" stop-color="#1f3a71"/>
    </linearGradient>
    <linearGradient id="linear-gradient-9" x1="-232.19" y1="408.33" x2="-230.16" y2="408.33" gradientTransform="translate(-4169.33 4400.46) rotate(75.76) scale(12.78 -12.78)" gradientUnits="userSpaceOnUse">
      <stop offset="0" stop-color="#183f77"/>
      <stop offset=".24" stop-color="#1c386a"/>
      <stop offset=".56" stop-color="#1f3360"/>
      <stop offset="1" stop-color="#21325e"/>
    </linearGradient>
    <linearGradient id="linear-gradient-10" x1="-229.46" y1="405.71" x2="-227.43" y2="405.71" gradientTransform="translate(-3733.5 7825.87) rotate(56.79) scale(18.57 -18.57)" gradientUnits="userSpaceOnUse">
      <stop offset="0" stop-color="#2168ac"/>
      <stop offset=".5" stop-color="#2066aa"/>
      <stop offset=".68" stop-color="#2061a3"/>
      <stop offset=".81" stop-color="#205897"/>
      <stop offset=".91" stop-color="#1f4a86"/>
      <stop offset="1" stop-color="#1f3a71"/>
    </linearGradient>
    <linearGradient id="linear-gradient-11" x1="-198.15" y1="392.58" x2="-196.12" y2="392.58" gradientTransform="translate(3354.64 2115.06) rotate(-29.9) scale(8.53 -8.53)" xlink:href="#linear-gradient-7"/>
    <linearGradient id="linear-gradient-12" x1="-205.28" y1="342.16" x2="-203.25" y2="342.16" gradientTransform="translate(1365.4 -1334.16) rotate(-105.75) scale(4.61 -4.61)" xlink:href="#linear-gradient-7"/>
    <linearGradient id="linear-gradient-13" x1="-232.07" y1="416.89" x2="-230.03" y2="416.89" gradientTransform="translate(-926.27 3960.17) rotate(42.81) scale(8.46 -8.46)" xlink:href="#linear-gradient-2"/>
    <linearGradient id="linear-gradient-14" x1="-231.54" y1="393.77" x2="-229.51" y2="393.77" gradientTransform="translate(-9333.43 36340.54) rotate(45) scale(82.02 -82.02)" xlink:href="#linear-gradient"/>
  </defs>
  <!-- Generator: Adobe Illustrator 28.7.1, SVG Export Plug-In . SVG Version: 1.2.0 Build 142)  -->
  <g>
    <g id="Capa_3">
      <path class="cls-13" d="M231.16,112.61c-1.35-6.41-3.32-12.59-5.85-18.48-2.41-5.6-5.31-10.93-8.67-15.94-3.61-5.39-7.72-10.41-12.29-14.98-4.82-4.82-10.15-9.12-15.87-12.87-5.39-3.53-11.13-6.53-17.18-8.96-5.57-2.24-11.38-4-17.39-5.19-1.4-.28-2.81-.52-4.23-.74-.44-.07-.88-.13-1.32-.19-1.03-.14-2.06-.27-3.09-.38-.47-.05-.94-.1-1.41-.15-1.3-.12-2.61-.22-3.92-.29l-.46-.03c-1.61-.08-3.23-.12-4.86-.12-1.72,0-3.43.05-5.13.14h0,0,0l-.41.03c-1.41.08-2.81.19-4.2.33-.5.05-.99.11-1.48.16-1.09.13-2.17.27-3.25.43-.47.07-.93.13-1.4.21-1.49.24-2.98.51-4.45.82-6.41,1.35-12.59,3.32-18.48,5.85-5.6,2.41-10.93,5.31-15.94,8.67-5.39,3.61-10.41,7.72-14.97,12.29-4.82,4.82-9.12,10.15-12.87,15.87-3.52,5.39-6.53,11.13-8.96,17.18-2.24,5.57-4,11.38-5.19,17.39-1.24,6.24-1.91,12.69-1.91,19.29,0,6.97.74,13.77,2.12,20.33,1.35,6.41,3.32,12.59,5.85,18.48,2.41,5.6,5.31,10.93,8.67,15.94,3.61,5.39,7.72,10.41,12.29,14.98,4.82,4.82,10.15,9.12,15.87,12.87,5.39,3.52,11.13,6.53,17.18,8.96,5.57,2.24,11.38,4,17.39,5.19,1.4.28,2.81.52,4.23.74.44.07.88.13,1.32.19,1.03.14,2.06.27,3.09.38.47.05.93.1,1.4.15,1.3.12,2.61.22,3.93.3,1.76.1,3.53.15,5.31.15,6.97,0,13.77-.74,20.33-2.12,6.41-1.35,12.59-3.32,18.48-5.85,5.6-2.41,10.93-5.31,15.94-8.67,5.39-3.61,10.41-7.72,14.98-12.29,4.82-4.82,9.12-10.15,12.87-15.87,3.52-5.39,6.53-11.13,8.96-17.18,2.24-5.57,4-11.38,5.19-17.39,1.24-6.24,1.91-12.69,1.91-19.29,0-6.97-.74-13.77-2.12-20.33ZM150.93,35.68c-.29-.05-.59-.11-.89-.15.3.05.59.1.89.15ZM147.77,35.19c-.74-.1-1.48-.19-2.22-.28.74.08,1.48.17,2.22.28ZM143.72,34.72c-1.24-.12-2.49-.21-3.74-.28,1.25.07,2.5.16,3.74.28ZM129.03,34.45c-1.34.08-2.68.19-4.01.32,1.33-.13,2.66-.24,4.01-.32ZM123.1,34.99c-.78.09-1.56.2-2.34.31.78-.11,1.56-.21,2.34-.31ZM118.36,35.66c-.3.05-.6.11-.91.17.3-.05.6-.12.91-.17ZM118.3,230.21c.3.05.6.11.9.16-.3-.05-.6-.1-.9-.16ZM121.47,230.69c.74.1,1.48.19,2.23.28-.75-.09-1.49-.18-2.23-.28ZM125.53,231.17c1.24.12,2.49.21,3.75.28-1.26-.07-2.51-.16-3.75-.28Z"/>
      <path class="cls-10" d="M38.81,173.95c-2.67-6.22-4.74-12.75-6.16-19.53-.59-2.8-1.05-5.64-1.41-8.52l-24.59,3.09c.44,3.56,1.02,7.07,1.75,10.54,1.76,8.38,4.33,16.47,7.63,24.17.61,1.43,1.27,2.83,1.93,4.23l22.42-10.57c-.53-1.13-1.06-2.26-1.56-3.42Z"/>
      <path class="cls-10" d="M242.49,203.66l-20.73-13.59c-3.92,5.97-8.43,11.52-13.46,16.56-2.72,2.71-5.59,5.26-8.59,7.66l15.48,19.35c3.71-2.98,7.28-6.13,10.64-9.49,6.23-6.23,11.81-13.1,16.67-20.49Z"/>
      <path class="cls-10" d="M95.87,229.69c-4.75-1.91-9.33-4.15-13.7-6.71l-12.48,21.42c5.42,3.16,11.08,5.94,16.96,8.3,6.69,2.68,13.66,4.81,20.85,6.35l5.22-24.25c-5.81-1.25-11.44-2.95-16.85-5.11Z"/>
      <path class="cls-10" d="M230.44,91.94c2.67,6.22,4.74,12.75,6.16,19.53.59,2.8,1.06,5.64,1.41,8.52l24.59-3.08c-.44-3.56-1.02-7.08-1.75-10.54-1.76-8.38-4.33-16.47-7.63-24.17-.61-1.43-1.27-2.83-1.93-4.23l-22.42,10.57c.53,1.13,1.06,2.26,1.56,3.42Z"/>
      <path class="cls-10" d="M173.38,36.2c4.75,1.91,9.33,4.15,13.7,6.71l12.48-21.41c-5.42-3.16-11.08-5.94-16.96-8.3-6.69-2.68-13.66-4.81-20.85-6.35l-5.22,24.25c5.81,1.24,11.44,2.95,16.85,5.11Z"/>
      <path class="cls-11" d="M262.6,116.9l-24.59,3.08h0c-.36-2.87-.83-5.71-1.41-8.52-1.42-6.77-3.5-13.31-6.16-19.53-.49-1.15-1.03-2.29-1.56-3.42h0s22.42-10.56,22.42-10.56c-2.73-5.79-5.86-11.35-9.39-16.63-4.72-7.05-10.1-13.61-16.08-19.59-6.3-6.3-13.26-11.95-20.75-16.84-1.81-1.18-3.65-2.32-5.51-3.41l-12.48,21.41h0c-4.38-2.55-8.95-4.8-13.71-6.71-5.4-2.17-11.04-3.87-16.85-5.11l5.22-24.25c-.63-.13-1.27-.27-1.9-.4-8.16-1.62-16.59-2.47-25.22-2.47-9.12,0-18.01.95-26.59,2.75-8.39,1.76-16.47,4.33-24.17,7.63-7.33,3.14-14.31,6.94-20.86,11.32-3.09,2.06-6.06,4.28-8.95,6.59l15.48,19.35c-3,2.4-5.88,4.95-8.59,7.66-5.09,5.09-9.65,10.71-13.61,16.76l.14-.21-20.73-13.59-.18.26c-4.6,7.05-8.54,14.57-11.71,22.48-2.92,7.28-5.19,14.89-6.75,22.75-1.62,8.16-2.47,16.59-2.47,25.22,0,5.43.35,10.79,1,16.05l24.59-3.09v-.02c.35,2.88.82,5.73,1.41,8.54,1.42,6.77,3.5,13.3,6.16,19.53.49,1.15,1.03,2.29,1.56,3.42l-22.42,10.57c2.73,5.79,5.86,11.35,9.39,16.63,4.72,7.05,10.1,13.61,16.08,19.59,6.3,6.3,13.26,11.95,20.75,16.84,1.81,1.18,3.65,2.32,5.51,3.41l12.48-21.42h0c4.38,2.55,8.95,4.8,13.7,6.71,5.88,2.36,12.03,4.2,18.38,5.45-.52-.1-1.02-.23-1.53-.34l-5.22,24.25c.63.14,1.27.28,1.9.4,8.16,1.62,16.59,2.47,25.22,2.47,9.11,0,18.01-.95,26.58-2.75,8.39-1.76,16.47-4.33,24.17-7.63,7.33-3.14,14.3-6.94,20.86-11.32,3.09-2.07,6.06-4.28,8.95-6.59l-15.48-19.35c3-2.4,5.88-4.95,8.59-7.66,5.03-5.03,9.54-10.58,13.46-16.56l20.73,13.59.18-.26c4.6-7.05,8.54-14.57,11.71-22.48,2.92-7.28,5.19-14.89,6.75-22.75,1.62-8.16,2.47-16.59,2.47-25.22,0-5.43-.35-10.79-1-16.04ZM227.47,85.67c-.18-.36-.36-.71-.55-1.07.19.35.37.71.55,1.07ZM223.58,78.69c-.74-1.21-1.5-2.42-2.29-3.6.79,1.18,1.55,2.38,2.29,3.6ZM225.63,82.23c-.33-.6-.68-1.19-1.02-1.78.34.59.69,1.19,1.02,1.78ZM76.77,46.28c-1.26.84-2.49,1.72-3.71,2.62,1.22-.9,2.45-1.77,3.71-2.62ZM30.86,142.43l.04.48-.04-.48ZM30.48,136.03c0,.25.02.51.03.77,0-.26-.02-.51-.03-.77ZM30.62,139.18c.01.24.03.48.05.72-.01-.24-.03-.48-.05-.72ZM41.78,180.22c.18.36.36.72.55,1.07-.19-.35-.37-.71-.55-1.07ZM45.67,187.2c.74,1.22,1.5,2.42,2.29,3.6-.79-1.18-1.55-2.38-2.29-3.6ZM43.61,183.66c.34.6.68,1.2,1.03,1.8-.35-.6-.69-1.2-1.03-1.8ZM192.48,219.61c1.26-.84,2.49-1.72,3.72-2.62-1.22.9-2.46,1.77-3.72,2.62ZM210.46,182.4c-3.44,5.26-7.39,10.15-11.81,14.57-4.2,4.2-8.8,7.97-13.75,11.29-4.6,3.08-9.5,5.75-14.64,7.96-5.41,2.32-11.08,4.13-16.97,5.37-6.03,1.27-12.27,1.94-18.67,1.94-6.06,0-11.98-.61-17.71-1.75-5.52-1.1-10.86-2.71-15.97-4.77-5.55-2.23-10.83-4.99-15.77-8.23-5.26-3.44-10.15-7.39-14.57-11.81-4.2-4.2-7.98-8.8-11.29-13.75-3.08-4.6-5.75-9.5-7.96-14.64-2.32-5.4-4.13-11.08-5.37-16.97-1.27-6.03-1.94-12.27-1.94-18.67,0-6.06.61-11.98,1.75-17.71,1.1-5.52,2.71-10.85,4.77-15.97,2.23-5.55,4.99-10.83,8.23-15.77,3.44-5.26,7.39-10.15,11.81-14.57,4.2-4.2,8.8-7.97,13.75-11.29,4.6-3.08,9.5-5.75,14.64-7.96,5.41-2.32,11.08-4.13,16.97-5.37,6.03-1.27,12.27-1.94,18.67-1.94,6.06,0,11.98.61,17.71,1.75,5.52,1.1,10.85,2.71,15.97,4.77,5.55,2.23,10.83,4.99,15.77,8.23,5.26,3.44,10.15,7.39,14.57,11.81,4.19,4.2,7.97,8.8,11.29,13.75,3.08,4.6,5.75,9.5,7.96,14.64,2.32,5.41,4.13,11.08,5.37,16.97,1.27,6.03,1.94,12.27,1.94,18.67,0,6.06-.61,11.98-1.75,17.71-1.1,5.52-2.71,10.85-4.77,15.96-2.23,5.55-4.99,10.83-8.23,15.77ZM238.34,123l.04.43-.04-.43ZM238.58,126.02c.01.23.03.45.04.68-.01-.23-.03-.45-.04-.68ZM238.74,129.11c0,.25.02.5.03.75,0-.25-.02-.5-.03-.75Z"/>
      <path class="cls-10" d="M60.94,59.27c2.72-2.71,5.6-5.26,8.59-7.66l-15.48-19.35c-3.71,2.97-7.28,6.12-10.64,9.49-6.23,6.23-11.81,13.1-16.67,20.49l20.73,13.59c3.92-5.97,8.43-11.52,13.46-16.55Z"/>
      <path class="cls-20" d="M216.1,115.78c-1.14-5.41-2.8-10.62-4.94-15.59-2.03-4.72-4.48-9.23-7.32-13.45-3.05-4.55-6.52-8.78-10.38-12.64-4.07-4.07-8.56-7.7-13.39-10.86-4.55-2.98-9.4-5.51-14.5-7.56-4.7-1.89-9.6-3.37-14.68-4.38-5.27-1.05-10.71-1.61-16.28-1.61-5.88,0-11.62.62-17.16,1.79-5.41,1.14-10.63,2.8-15.6,4.94-4.72,2.03-9.23,4.48-13.45,7.32-4.55,3.05-8.78,6.52-12.64,10.37-4.07,4.07-7.7,8.57-10.86,13.4-2.97,4.54-5.51,9.4-7.56,14.5-1.89,4.7-3.37,9.6-4.38,14.68-1.05,5.27-1.61,10.71-1.61,16.28,0,5.88.62,11.62,1.79,17.16,1.14,5.41,2.8,10.63,4.94,15.6,2.03,4.72,4.48,9.22,7.32,13.45,3.05,4.55,6.52,8.78,10.38,12.64,4.07,4.07,8.56,7.7,13.39,10.86,4.55,2.98,9.4,5.51,14.5,7.56,4.7,1.89,9.6,3.37,14.68,4.38,3.97.79,8.03,1.3,12.17,1.51-4.08-.2-8.08-.71-11.98-1.49-5.01-1-9.86-2.46-14.5-4.33-5.04-2.03-9.83-4.54-14.33-7.47-4.77-3.12-9.22-6.71-13.24-10.73-3.81-3.81-7.24-8-10.25-12.49-2.8-4.18-5.22-8.62-7.23-13.29-2.11-4.91-3.75-10.07-4.88-15.41-1.15-5.47-1.77-11.14-1.77-16.96,0-5.5.55-10.88,1.59-16.09,1-5.01,2.46-9.86,4.33-14.5,2.03-5.04,4.53-9.83,7.47-14.33,3.12-4.77,6.71-9.22,10.73-13.23,3.81-3.81,8-7.24,12.49-10.25,4.18-2.8,8.63-5.22,13.3-7.23,4.91-2.11,10.07-3.76,15.41-4.88,5.48-1.15,11.15-1.77,16.96-1.77,5.5,0,10.88.56,16.09,1.59,5.01,1,9.86,2.46,14.5,4.33,5.04,2.03,9.83,4.54,14.33,7.47,4.77,3.12,9.22,6.71,13.24,10.73,3.81,3.81,7.24,8,10.25,12.49,2.8,4.18,5.22,8.62,7.23,13.3,2.11,4.91,3.75,10.06,4.88,15.41,1.15,5.47,1.77,11.14,1.77,16.96,0,5.5-.55,10.88-1.59,16.09-1,5.01-2.46,9.86-4.33,14.5-2.03,5.04-4.53,9.83-7.47,14.33-3.12,4.77-6.71,9.22-10.73,13.24-3.81,3.81-8,7.24-12.49,10.25-4.18,2.8-8.63,5.22-13.29,7.23-4.91,2.11-10.07,3.76-15.41,4.88-5.47,1.15-11.14,1.77-16.95,1.77,5.88,0,11.62-.62,17.16-1.79,5.41-1.14,10.63-2.8,15.6-4.94,4.72-2.03,9.23-4.48,13.45-7.32,4.55-3.04,8.78-6.52,12.64-10.37,4.07-4.07,7.7-8.56,10.86-13.4,2.97-4.54,5.51-9.4,7.56-14.5,1.89-4.7,3.37-9.6,4.38-14.68,1.05-5.27,1.61-10.71,1.61-16.28,0-5.88-.62-11.62-1.79-17.16Z"/>
      <path class="cls-9" d="M57.41,82.59c-3.34,5.13-6.13,10.51-8.34,16.08-2.11,5.29-3.71,10.73-4.81,16.26-1.18,5.94-1.77,11.98-1.77,18.01,0,6.37.68,12.73,1.98,18.99,1.23,5.88,3.04,11.67,5.43,17.27,2.2,5.16,4.88,10.16,8.06,14.92,3.3,4.94,7.12,9.64,11.49,14,4.6,4.6,9.58,8.61,14.83,12.03,5.13,3.34,10.51,6.12,16.07,8.34,5.29,2.11,10.73,3.71,16.26,4.8,5.94,1.18,11.98,1.77,18.02,1.77,6.37,0,12.73-.68,18.99-1.98,5.89-1.23,11.67-3.04,17.27-5.43,5.16-2.2,10.16-4.88,14.92-8.06,4.94-3.3,9.64-7.12,14-11.48,4.6-4.6,8.61-9.58,12.03-14.83,3.34-5.12,6.12-10.51,8.34-16.07,2.11-5.29,3.71-10.73,4.81-16.26,1.18-5.94,1.77-11.98,1.77-18.02,0-6.36-.68-12.73-1.98-18.99-1.23-5.89-3.04-11.67-5.43-17.27-2.2-5.16-4.88-10.16-8.06-14.92-3.3-4.94-7.12-9.64-11.48-14-4.6-4.6-9.58-8.61-14.83-12.03-5.13-3.34-10.51-6.12-16.07-8.34-5.29-2.11-10.73-3.71-16.26-4.81-5.94-1.18-11.98-1.77-18.02-1.77-6.37,0-12.73.68-18.99,1.98-5.89,1.23-11.67,3.04-17.27,5.43-5.16,2.2-10.16,4.88-14.92,8.06-4.94,3.3-9.64,7.12-14,11.48-4.6,4.6-8.61,9.58-12.03,14.83ZM101.3,55.07c5.15-2.19,10.46-3.86,15.87-4.99,5.75-1.2,11.6-1.82,17.45-1.82,5.55,0,11.1.55,16.56,1.63,5.08,1.01,10.08,2.48,14.95,4.42,5.11,2.04,10.06,4.6,14.77,7.67,4.83,3.15,9.4,6.83,13.63,11.06,4.01,4.01,7.52,8.33,10.56,12.87,2.92,4.38,5.39,8.97,7.41,13.71,2.19,5.15,3.86,10.46,4.99,15.87,1.2,5.75,1.82,11.6,1.82,17.45,0,5.55-.55,11.1-1.63,16.56-1.01,5.08-2.48,10.08-4.42,14.94-2.04,5.11-4.6,10.06-7.67,14.78-3.15,4.83-6.83,9.4-11.06,13.63-4.01,4.01-8.33,7.52-12.87,10.56-4.38,2.93-8.97,5.39-13.71,7.41-5.15,2.2-10.46,3.86-15.88,4.99-5.75,1.2-11.6,1.82-17.45,1.82-5.55,0-11.1-.55-16.56-1.63-5.08-1.01-10.09-2.48-14.95-4.42-5.11-2.04-10.06-4.6-14.77-7.67-4.83-3.15-9.4-6.83-13.64-11.06-4.01-4.01-7.52-8.33-10.56-12.87-2.92-4.38-5.38-8.97-7.41-13.71-2.19-5.15-3.86-10.46-4.99-15.88-1.2-5.75-1.82-11.6-1.82-17.45,0-5.55.55-11.1,1.63-16.56,1.01-5.08,2.48-10.08,4.42-14.95,2.04-5.11,4.6-10.06,7.67-14.77,3.15-4.82,6.83-9.4,11.06-13.63,4.01-4.01,8.33-7.52,12.87-10.56,4.38-2.92,8.97-5.38,13.71-7.4Z"/>
      <path class="cls-13" d="M203.85,86.74l6.09-4.06c-3.31-4.95-7.09-9.56-11.29-13.75l-5.18,5.18c3.86,3.86,7.33,8.09,10.38,12.64Z"/>
      <path class="cls-12" d="M211.16,100.19l6.73-2.88c-2.21-5.14-4.88-10.04-7.96-14.64l-6.09,4.06c2.83,4.23,5.29,8.73,7.32,13.45Z"/>
      <path class="cls-13" d="M216.1,115.78l7.17-1.51c-1.24-5.88-3.05-11.56-5.37-16.97l-6.73,2.88c2.14,4.97,3.8,10.19,4.94,15.59Z"/>
      <path class="cls-12" d="M193.47,191.79l5.17,5.17c4.42-4.43,8.37-9.32,11.81-14.57l-6.13-4c-3.16,4.83-6.79,9.33-10.86,13.4Z"/>
      <path class="cls-12" d="M57.35,101.99l-6.79-2.72c-2.06,5.11-3.67,10.45-4.77,15.97l7.18,1.43c1.01-5.07,2.49-9.98,4.38-14.68Z"/>
      <path class="cls-13" d="M53.15,150.11l-7.16,1.51c1.24,5.88,3.05,11.56,5.37,16.97l6.73-2.88c-2.13-4.97-3.8-10.19-4.94-15.6Z"/>
      <path class="cls-13" d="M52.97,116.66l-7.18-1.43c-1.14,5.73-1.75,11.65-1.75,17.71h7.32c0-5.57.56-11.01,1.61-16.28Z"/>
      <path class="cls-12" d="M51.36,132.94h-7.32c0,6.4.68,12.64,1.94,18.67l7.16-1.51c-1.16-5.54-1.79-11.28-1.79-17.16Z"/>
      <path class="cls-12" d="M58.08,165.7l-6.73,2.88c2.21,5.14,4.88,10.04,7.96,14.64l6.09-4.06c-2.83-4.23-5.28-8.73-7.32-13.45Z"/>
      <path class="cls-12" d="M75.78,191.79l-5.17,5.17c4.42,4.42,9.31,8.37,14.57,11.81l4-6.13c-4.83-3.16-9.33-6.79-13.39-10.86Z"/>
      <path class="cls-13" d="M65.4,179.15l-6.09,4.06c3.31,4.95,7.09,9.55,11.29,13.75l5.17-5.17c-3.86-3.86-7.33-8.09-10.38-12.64Z"/>
      <path class="cls-13" d="M89.17,202.65l-4,6.13c4.95,3.24,10.22,6,15.77,8.23l2.72-6.79c-5.1-2.05-9.95-4.59-14.5-7.56Z"/>
      <path class="cls-13" d="M64.91,87.49l-6.13-4c-3.23,4.94-6,10.22-8.23,15.77l6.79,2.72c2.05-5.1,4.59-9.95,7.56-14.5Z"/>
      <path class="cls-12" d="M134.62,49.68v-7.32c-6.4,0-12.64.68-18.67,1.94l1.51,7.17c5.54-1.17,11.28-1.79,17.16-1.79Z"/>
      <path class="cls-12" d="M101.87,56.41l-2.88-6.73c-5.14,2.21-10.04,4.88-14.64,7.96l4.06,6.09c4.23-2.83,8.73-5.29,13.45-7.32Z"/>
      <path class="cls-13" d="M117.46,51.47l-1.51-7.17c-5.89,1.24-11.56,3.05-16.97,5.37l2.88,6.73c4.97-2.14,10.19-3.8,15.6-4.94Z"/>
      <path class="cls-12" d="M75.77,74.1l-5.18-5.18c-4.42,4.43-8.37,9.32-11.81,14.57l6.13,4c3.16-4.83,6.79-9.33,10.86-13.4Z"/>
      <path class="cls-13" d="M88.41,63.72l-4.06-6.09c-4.95,3.31-9.55,7.09-13.75,11.29l5.18,5.18c3.86-3.85,8.09-7.33,12.64-10.37Z"/>
      <path class="cls-12" d="M216.1,115.78c1.17,5.54,1.79,11.28,1.79,17.16h7.32c0-6.4-.68-12.64-1.94-18.67l-7.17,1.51Z"/>
      <path class="cls-13" d="M216.28,149.22l7.18,1.43c1.14-5.73,1.75-11.65,1.75-17.71h-7.32c0,5.57-.56,11.01-1.61,16.28Z"/>
      <path class="cls-12" d="M193.47,74.1l5.18-5.18c-4.43-4.43-9.32-8.37-14.57-11.81l-4,6.13c4.83,3.16,9.33,6.79,13.39,10.86Z"/>
      <path class="cls-12" d="M211.89,163.9l6.79,2.72c2.06-5.11,3.67-10.44,4.77-15.96l-7.18-1.43c-1.01,5.07-2.49,9.98-4.38,14.68Z"/>
      <path class="cls-12" d="M103.67,210.22l-2.72,6.79c5.11,2.06,10.45,3.67,15.97,4.77l1.43-7.18c-5.07-1.01-9.98-2.49-14.68-4.38Z"/>
      <path class="cls-13" d="M180.08,63.24l4-6.13c-4.94-3.24-10.22-6-15.77-8.23l-2.72,6.79c5.1,2.05,9.95,4.59,14.5,7.56Z"/>
      <path class="cls-12" d="M165.58,55.67l2.72-6.79c-5.11-2.06-10.44-3.67-15.97-4.77l-1.43,7.18c5.07,1.01,9.98,2.49,14.68,4.38Z"/>
      <path class="cls-13" d="M204.33,178.4l6.13,4c3.24-4.94,6-10.22,8.23-15.77l-6.79-2.72c-2.05,5.1-4.59,9.95-7.56,14.5Z"/>
      <path class="cls-12" d="M134.62,216.21v7.32c6.4,0,12.64-.67,18.67-1.94l-1.51-7.17c-5.54,1.17-11.28,1.79-17.16,1.79Z"/>
      <path class="cls-13" d="M150.9,51.29l1.43-7.18c-5.73-1.14-11.65-1.75-17.71-1.75v7.32c5.57,0,11.01.56,16.28,1.61Z"/>
      <path class="cls-13" d="M118.34,214.6l-1.43,7.18c5.73,1.14,11.65,1.75,17.71,1.75v-7.32c-5.57,0-11.01-.56-16.28-1.61Z"/>
      <path class="cls-13" d="M151.78,214.42l1.51,7.17c5.89-1.24,11.56-3.05,16.97-5.37l-2.88-6.73c-4.97,2.14-10.19,3.8-15.6,4.94Z"/>
      <path class="cls-12" d="M167.38,209.48l2.88,6.73c5.14-2.21,10.04-4.88,14.64-7.96l-4.06-6.09c-4.23,2.83-8.73,5.29-13.45,7.32Z"/>
      <path class="cls-13" d="M180.83,202.17l4.06,6.09c4.95-3.31,9.55-7.09,13.75-11.29l-5.17-5.17c-3.86,3.86-8.09,7.33-12.64,10.37Z"/>
      <path class="cls-13" d="M31.73,149.35c.04.28.07.56.12.84-.05-.28-.08-.56-.12-.84Z"/>
      <path class="cls-13" d="M208.3,206.62c5.03-5.03,9.54-10.58,13.46-16.56-3.92,5.97-8.43,11.52-13.46,16.56Z"/>
      <path class="cls-13" d="M104.21,232.61c2.78.85,5.62,1.57,8.5,2.19-2.88-.61-5.71-1.34-8.5-2.19Z"/>
      <path class="cls-13" d="M100.06,231.26c1.12.4,2.26.76,3.4,1.11-1.14-.35-2.28-.72-3.4-1.11Z"/>
      <path class="cls-13" d="M237.39,115.7l.06.4-.06-.4Z"/>
      <path class="cls-19" d="M53.8,67.2c-2.24,2.75-4.34,5.62-6.29,8.59,1.95-2.97,4.05-5.84,6.29-8.59Z"/>
      <path class="cls-19" d="M57.26,63.15c-1.09,1.21-2.15,2.46-3.19,3.72,1.04-1.26,2.09-2.51,3.19-3.72Z"/>
      <path class="cls-8" d="M19.65,187.13c-.65-1.38-1.3-2.76-1.9-4.17-3.25-7.59-5.78-15.56-7.52-23.82-.72-3.41-1.29-6.88-1.72-10.39l-1.86.23c.44,3.56,1.02,7.07,1.75,10.54,1.76,8.38,4.33,16.47,7.63,24.17.61,1.43,1.27,2.83,1.93,4.23l1.7-.8Z"/>
      <path class="cls-7" d="M224.5,222.82c-3.31,3.31-6.82,6.42-10.48,9.35l1.17,1.47c3.71-2.98,7.28-6.13,10.64-9.49,6.23-6.23,11.81-13.1,16.67-20.49l-1.57-1.03c-4.78,7.28-10.29,14.05-16.43,20.19Z"/>
      <path class="cls-6" d="M87.35,250.95c-5.8-2.32-11.38-5.06-16.72-8.18l-.95,1.62c5.42,3.16,11.08,5.94,16.96,8.3,6.69,2.68,13.66,4.81,20.85,6.35l.39-1.83c-7.08-1.52-13.95-3.62-20.54-6.26Z"/>
      <path class="cls-3" d="M251.5,82.93c3.25,7.59,5.79,15.56,7.52,23.82.72,3.41,1.29,6.88,1.72,10.39l1.86-.23c-.44-3.56-1.02-7.08-1.75-10.54-1.76-8.38-4.33-16.47-7.63-24.17-.61-1.43-1.27-2.83-1.93-4.23l-1.7.8c.65,1.38,1.3,2.76,1.9,4.17Z"/>
      <path class="cls-4" d="M181.9,14.93c5.8,2.33,11.38,5.07,16.72,8.18l.95-1.62c-5.42-3.16-11.08-5.94-16.96-8.3-6.69-2.68-13.66-4.81-20.85-6.35l-.39,1.84c7.08,1.52,13.95,3.62,20.54,6.26Z"/>
      <path class="cls-2" d="M8.51,148.76c-.64-5.18-.99-10.46-.99-15.81,0-8.51.84-16.82,2.44-24.85,1.54-7.75,3.78-15.25,6.65-22.42,3.13-7.79,7-15.21,11.54-22.15l.17-.26-1.57-1.03-.18.26c-4.6,7.05-8.54,14.57-11.71,22.48-2.92,7.28-5.19,14.89-6.75,22.75-1.62,8.16-2.47,16.59-2.47,25.22,0,5.43.35,10.79,1,16.05l1.86-.23Z"/>
      <path class="cls-1" d="M70.63,242.77c-1.84-1.07-3.66-2.19-5.43-3.35-7.38-4.83-14.24-10.39-20.45-16.6-5.89-5.89-11.2-12.36-15.84-19.3-3.48-5.2-6.56-10.68-9.25-16.39l-1.7.8c2.73,5.79,5.86,11.35,9.39,16.63,4.72,7.05,10.1,13.61,16.08,19.59,6.3,6.3,13.26,11.95,20.75,16.84,1.81,1.18,3.65,2.32,5.51,3.41l.95-1.62Z"/>
      <path class="cls-5" d="M214.01,232.17c-2.85,2.28-5.78,4.46-8.82,6.5-6.46,4.32-13.33,8.06-20.55,11.16-7.59,3.25-15.55,5.79-23.82,7.52-8.45,1.77-17.22,2.71-26.2,2.71-8.51,0-16.82-.84-24.86-2.44-.63-.12-1.25-.26-1.88-.39l-.39,1.83c.63.14,1.27.28,1.9.4,8.16,1.62,16.59,2.47,25.22,2.47,9.11,0,18.01-.95,26.58-2.75,8.39-1.76,16.47-4.33,24.17-7.63,7.33-3.14,14.3-6.94,20.86-11.32,3.09-2.07,6.06-4.28,8.95-6.59l-1.17-1.47Z"/>
      <path class="cls-14" d="M262.6,116.9l-1.86.23h0c.64,5.18.99,10.46.99,15.81,0,8.51-.84,16.82-2.44,24.85-1.54,7.75-3.78,15.25-6.65,22.42-3.13,7.79-7,15.21-11.54,22.15l-.17.26,1.57,1.03.18-.26c4.6-7.05,8.54-14.57,11.71-22.48,2.92-7.28,5.19-14.89,6.75-22.75,1.62-8.16,2.47-16.59,2.47-25.22,0-5.43-.35-10.79-1-16.04Z"/>
      <path class="cls-15" d="M198.61,23.12c1.84,1.07,3.65,2.19,5.43,3.35,7.38,4.83,14.24,10.39,20.45,16.6,5.89,5.89,11.2,12.36,15.84,19.3,3.48,5.2,6.56,10.68,9.25,16.39l1.7-.8c-2.73-5.79-5.86-11.35-9.39-16.63-4.72-7.05-10.1-13.61-16.08-19.59-6.3-6.3-13.26-11.95-20.75-16.84-1.81-1.18-3.65-2.32-5.51-3.41l-.95,1.62Z"/>
      <path class="cls-16" d="M55.23,33.72c2.85-2.28,5.78-4.46,8.82-6.5,6.46-4.32,13.33-8.07,20.55-11.16,7.59-3.25,15.56-5.79,23.82-7.52,8.46-1.77,17.22-2.71,26.2-2.71,8.51,0,16.81.84,24.85,2.44.63.12,1.25.26,1.88.39l.39-1.84c-.63-.13-1.27-.27-1.9-.4-8.16-1.62-16.59-2.47-25.22-2.47-9.12,0-18.01.95-26.59,2.75-8.39,1.76-16.47,4.33-24.17,7.63-7.33,3.14-14.31,6.94-20.86,11.32-3.09,2.06-6.06,4.28-8.95,6.59l1.17,1.47Z"/>
      <path class="cls-17" d="M44.75,43.07c3.31-3.31,6.82-6.42,10.48-9.35l-1.17-1.47c-3.71,2.97-7.28,6.12-10.64,9.49-6.23,6.23-11.81,13.1-16.67,20.49l1.57,1.03c4.79-7.28,10.29-14.05,16.42-20.19Z"/>
      <path class="cls-19" d="M156.78,241.65c0-2.9,2.35-5.26,5.26-5.26s5.26,2.35,5.26,5.26-2.35,5.25-5.26,5.25-5.26-2.35-5.26-5.25Z"/>
      <path class="cls-19" d="M103.46,24.24c0-2.9,2.35-5.26,5.26-5.26s5.26,2.36,5.26,5.26-2.35,5.26-5.26,5.26-5.26-2.35-5.26-5.26Z"/>
      <path class="cls-19" d="M19.35,113.23c0-2.9,2.35-5.25,5.26-5.25s5.26,2.35,5.26,5.25-2.35,5.26-5.26,5.26-5.26-2.35-5.26-5.26Z"/>
      <path class="cls-19" d="M48.64,210.48c0-2.9,2.35-5.26,5.26-5.26s5.26,2.36,5.26,5.26-2.35,5.26-5.26,5.26-5.26-2.35-5.26-5.26Z"/>
      <path class="cls-19" d="M237.88,158.67c0-2.9,2.35-5.26,5.26-5.26s5.26,2.36,5.26,5.26-2.35,5.25-5.26,5.25-5.26-2.35-5.26-5.25Z"/>
      <path class="cls-19" d="M211.97,58.41c0-2.9,2.35-5.26,5.26-5.26s5.26,2.36,5.26,5.26-2.35,5.25-5.26,5.25-5.26-2.35-5.26-5.25Z"/>
      <path class="cls-18" d="M204.37,178.42c3.02-4.63,5.53-9.49,7.54-14.52,1.91-4.77,3.35-9.69,4.34-14.69,1.06-5.37,1.6-10.82,1.6-16.27,0-5.75-.61-11.5-1.79-17.15-1.11-5.32-2.75-10.54-4.9-15.6-1.99-4.66-4.4-9.17-7.28-13.48-.67-1-1.37-1.99-2.09-2.97-.22-.3-.45-.6-.68-.9-.53-.7-1.06-1.39-1.62-2.07-.25-.31-.5-.62-.75-.93-.7-.85-1.42-1.69-2.17-2.52l-.25-.29c-.91-1.01-1.86-2-2.83-2.97-1.03-1.03-2.08-2.02-3.14-2.98h0s0,0,0,0h0s-.27-.23-.27-.23c-.89-.79-1.79-1.56-2.7-2.31-.32-.27-.65-.53-.98-.79-.72-.58-1.46-1.14-2.2-1.69-.32-.24-.64-.48-.96-.71-1.04-.75-2.08-1.48-3.15-2.17-4.63-3.02-9.49-5.53-14.52-7.54-4.78-1.91-9.69-3.35-14.69-4.34-5.37-1.06-10.82-1.6-16.27-1.6-5.75,0-11.5.61-17.15,1.79-5.32,1.11-10.54,2.75-15.6,4.91-4.66,1.99-9.17,4.4-13.48,7.28-4.47,2.98-8.71,6.44-12.65,10.37-4.16,4.16-7.77,8.66-10.87,13.4-3.02,4.63-5.53,9.5-7.54,14.52-1.91,4.78-3.35,9.7-4.34,14.69-1.06,5.37-1.6,10.82-1.6,16.27,0,5.75.61,11.5,1.79,17.15,1.11,5.32,2.75,10.54,4.9,15.6,1.99,4.66,4.4,9.17,7.28,13.48.67,1,1.37,1.99,2.09,2.97.22.3.45.6.67.9.53.7,1.06,1.39,1.62,2.08.25.31.49.62.75.92.71.85,1.43,1.69,2.17,2.52.99,1.11,2.02,2.19,3.08,3.26,4.16,4.16,8.66,7.78,13.4,10.87,4.63,3.02,9.49,5.53,14.52,7.54,4.78,1.9,9.69,3.35,14.69,4.34,5.37,1.06,10.82,1.6,16.27,1.6,5.75,0,11.5-.61,17.15-1.79,5.32-1.11,10.54-2.75,15.6-4.91,4.66-1.99,9.17-4.4,13.48-7.28,4.47-2.98,8.71-6.44,12.65-10.37,4.16-4.16,7.78-8.66,10.87-13.4ZM202.4,84.63c-.15-.21-.29-.42-.44-.62.15.21.29.41.44.62ZM200.81,82.46c-.38-.5-.77-1-1.16-1.49.39.49.78.99,1.16,1.49ZM198.67,79.76c-.67-.81-1.36-1.61-2.06-2.4.71.79,1.39,1.59,2.06,2.4ZM190.06,70.83c-.85-.76-1.71-1.49-2.58-2.2.87.71,1.73,1.45,2.58,2.2ZM186.2,67.61c-.52-.41-1.05-.82-1.58-1.22.53.4,1.06.8,1.58,1.22ZM182.97,65.18c-.21-.15-.43-.29-.64-.44.21.15.43.29.64.44ZM66.84,181.25c.15.21.29.42.44.63-.15-.21-.29-.42-.44-.63ZM68.44,183.43c.38.5.77,1,1.17,1.5-.39-.5-.78-1-1.17-1.5ZM70.58,186.13c.67.81,1.36,1.61,2.07,2.41-.71-.79-1.4-1.59-2.07-2.41Z"/>
      <path class="cls-11" d="M214.35,116.15c-1.11-5.29-2.74-10.4-4.83-15.26-1.99-4.62-4.39-9.03-7.16-13.17-2.98-4.45-6.38-8.6-10.15-12.37-3.98-3.98-8.38-7.53-13.11-10.63-4.45-2.91-9.2-5.39-14.19-7.4-4.6-1.85-9.39-3.3-14.36-4.29-1.16-.23-2.32-.43-3.5-.61-.36-.06-.73-.11-1.09-.16-.85-.12-1.7-.23-2.55-.32-.39-.04-.77-.09-1.16-.12-1.07-.1-2.15-.18-3.24-.24l-.38-.03c-1.33-.07-2.67-.1-4.01-.1-1.42,0-2.84.04-4.24.11h0,0,0l-.34.02c-1.16.07-2.32.16-3.47.27-.41.04-.81.09-1.22.14-.9.1-1.8.22-2.69.35-.38.06-.77.11-1.15.17-1.23.2-2.46.42-3.68.68-5.29,1.11-10.4,2.74-15.26,4.83-4.62,1.99-9.03,4.39-13.17,7.16-4.45,2.98-8.6,6.38-12.37,10.15-3.98,3.98-7.53,8.38-10.63,13.11-2.91,4.45-5.39,9.2-7.4,14.19-1.85,4.6-3.3,9.4-4.29,14.36-1.03,5.16-1.58,10.48-1.58,15.93,0,5.76.61,11.37,1.75,16.79,1.11,5.29,2.74,10.4,4.83,15.26,1.99,4.62,4.39,9.03,7.16,13.17,2.98,4.45,6.38,8.6,10.15,12.37,3.98,3.98,8.38,7.53,13.11,10.63,4.45,2.91,9.2,5.39,14.19,7.4,4.6,1.85,9.4,3.3,14.36,4.29,1.16.23,2.32.43,3.5.61.36.06.73.1,1.09.16.85.12,1.7.23,2.56.32.38.04.77.09,1.16.12,1.08.1,2.16.18,3.25.24,1.45.08,2.91.13,4.38.13,5.75,0,11.37-.61,16.79-1.75,5.29-1.11,10.4-2.74,15.26-4.83,4.62-1.99,9.03-4.39,13.17-7.16,4.45-2.98,8.6-6.38,12.37-10.15,3.98-3.98,7.53-8.38,10.63-13.11,2.91-4.45,5.4-9.2,7.4-14.19,1.85-4.6,3.3-9.4,4.29-14.36,1.03-5.16,1.57-10.48,1.57-15.93,0-5.76-.61-11.37-1.75-16.79ZM148.09,52.61c-.24-.04-.49-.09-.73-.13.25.04.49.09.73.13ZM145.48,52.21c-.61-.08-1.22-.16-1.84-.23.61.07,1.23.15,1.84.23ZM142.13,51.82c-1.02-.1-2.05-.17-3.09-.23,1.03.06,2.06.13,3.09.23ZM125.1,52.04c-.65.08-1.29.16-1.94.25.64-.09,1.29-.18,1.94-.25ZM121.19,52.6c-.25.04-.5.1-.75.14.25-.04.5-.1.75-.14ZM121.14,213.28c.25.04.49.09.74.13-.25-.04-.49-.09-.74-.13ZM123.76,213.67c.61.08,1.23.16,1.84.23-.62-.07-1.23-.15-1.84-.23ZM127.11,214.07c1.03.1,2.06.17,3.09.23-1.04-.06-2.07-.14-3.09-.23Z"/>
    </g>
  </g>
</svg>