<?xml version="1.0" encoding="UTF-8"?>
<svg xmlns="http://www.w3.org/2000/svg" xmlns:xlink="http://www.w3.org/1999/xlink" version="1.1" viewBox="0 0 265.89 265.89">
  <defs>
    <style>
      .cls-1 {
        fill: #0f864e;
      }

      .cls-2 {
        fill: url(#linear-gradient-8);
      }

      .cls-3 {
        fill: url(#linear-gradient-7);
      }

      .cls-4 {
        fill: url(#linear-gradient-5);
      }

      .cls-5 {
        fill: url(#linear-gradient-6);
      }

      .cls-6 {
        fill: url(#linear-gradient-9);
      }

      .cls-7 {
        fill: url(#linear-gradient-4);
      }

      .cls-8 {
        fill: url(#linear-gradient-3);
      }

      .cls-9 {
        fill: url(#linear-gradient-2);
      }

      .cls-10 {
        fill: #0e6139;
      }

      .cls-11 {
        fill: url(#linear-gradient);
      }

      .cls-12 {
        fill: #f8f5f6;
      }

      .cls-13 {
        display: none;
        fill: #fff;
      }

      .cls-14 {
        fill: #e3dedd;
      }

      .cls-15 {
        fill: url(#linear-gradient-10);
      }

      .cls-16 {
        fill: url(#linear-gradient-11);
      }

      .cls-17 {
        fill: url(#linear-gradient-12);
      }

      .cls-18 {
        fill: url(#linear-gradient-13);
      }

      .cls-19 {
        fill: url(#linear-gradient-14);
      }

      .cls-20 {
        fill: #f9f8f7;
      }

      .cls-21 {
        fill: #eb7475;
      }
    </style>
    <linearGradient id="linear-gradient" x1="-234.27" y1="389.97" x2="-232.26" y2="389.97" gradientTransform="translate(10196.31 -39884.03) rotate(-135) scale(90.8 -90.8)" gradientUnits="userSpaceOnUse">
      <stop offset="0" stop-color="#52a958"/>
      <stop offset="1" stop-color="#1a5e3a"/>
    </linearGradient>
    <linearGradient id="linear-gradient-2" x1="-203.89" y1="362.35" x2="-201.89" y2="362.35" gradientTransform="translate(1174.23 1300.33) rotate(-16.5) scale(3.91 -3.91)" gradientUnits="userSpaceOnUse">
      <stop offset="0" stop-color="#8e8e90"/>
      <stop offset=".08" stop-color="#9a9a9c"/>
      <stop offset=".37" stop-color="#c5c5c6"/>
      <stop offset=".63" stop-color="#e5e5e5"/>
      <stop offset=".85" stop-color="#f8f8f8"/>
      <stop offset="1" stop-color="#fff"/>
    </linearGradient>
    <linearGradient id="linear-gradient-3" x1="-264.54" y1="377.61" x2="-262.54" y2="377.61" gradientTransform="translate(843.6 -3237.03) rotate(-135) scale(7.62 -7.62)" xlink:href="#linear-gradient-2"/>
    <linearGradient id="linear-gradient-4" x1="-243.83" y1="339.01" x2="-241.83" y2="339.01" gradientTransform="translate(1692.64 -163.98) rotate(-68.89) scale(3.97 -3.97)" xlink:href="#linear-gradient-2"/>
    <linearGradient id="linear-gradient-5" x1="-267.54" y1="405.23" x2="-265.54" y2="405.23" gradientTransform="translate(-2175.81 -2224.06) rotate(167) scale(6.93 -6.93)" xlink:href="#linear-gradient-2"/>
    <linearGradient id="linear-gradient-6" x1="-244.86" y1="420.78" x2="-242.86" y2="420.78" gradientTransform="translate(-3145.78 459.22) rotate(112.44) scale(6.9 -6.9)" xlink:href="#linear-gradient-2"/>
    <linearGradient id="linear-gradient-7" x1="-253.03" y1="390.51" x2="-251.03" y2="390.51" gradientTransform="translate(-742.5 -2954.38) rotate(-160.89) scale(6.77 -6.77)" gradientUnits="userSpaceOnUse">
      <stop offset="0" stop-color="#52a958"/>
      <stop offset=".14" stop-color="#3f904e"/>
      <stop offset=".31" stop-color="#2f7a45"/>
      <stop offset=".5" stop-color="#236a3e"/>
      <stop offset=".71" stop-color="#1c603b"/>
      <stop offset="1" stop-color="#1a5e3a"/>
    </linearGradient>
    <linearGradient id="linear-gradient-8" x1="-234.72" y1="406.94" x2="-232.72" y2="406.94" gradientTransform="translate(-5153.32 -1023.48) rotate(133.38) scale(11.37 -11.37)" xlink:href="#linear-gradient-7"/>
    <linearGradient id="linear-gradient-9" x1="-223.4" y1="402.29" x2="-221.4" y2="402.29" gradientTransform="translate(-5886.74 5118.84) rotate(80.07) scale(16.9 -16.9)" xlink:href="#linear-gradient-7"/>
    <linearGradient id="linear-gradient-10" x1="-218.54" y1="402.89" x2="-216.54" y2="402.89" gradientTransform="translate(-3040.36 6183.43) rotate(57.09) scale(14.98 -14.98)" gradientUnits="userSpaceOnUse">
      <stop offset="0" stop-color="#438f4b"/>
      <stop offset=".19" stop-color="#317a43"/>
      <stop offset=".41" stop-color="#246a3e"/>
      <stop offset=".66" stop-color="#1c603b"/>
      <stop offset="1" stop-color="#1a5e3a"/>
    </linearGradient>
    <linearGradient id="linear-gradient-11" x1="-218.62" y1="388.26" x2="-216.62" y2="388.26" gradientTransform="translate(5194.42 6521.9) rotate(-8.13) scale(18.31 -18.31)" xlink:href="#linear-gradient-7"/>
    <linearGradient id="linear-gradient-12" x1="-241.67" y1="352.36" x2="-239.66" y2="352.36" gradientTransform="translate(1365.35 -1505.84) rotate(-105.75) scale(4.61 -4.61)" xlink:href="#linear-gradient-7"/>
    <linearGradient id="linear-gradient-13" x1="-218.04" y1="401.95" x2="-216.03" y2="401.95" gradientTransform="translate(-926.27 3787.97) rotate(42.81) scale(8.46 -8.46)" xlink:href="#linear-gradient-2"/>
    <linearGradient id="linear-gradient-14" x1="-230.04" y1="392.28" x2="-228.03" y2="392.28" gradientTransform="translate(-9332.76 36168.08) rotate(45) scale(82.02 -82.02)" xlink:href="#linear-gradient"/>
  </defs>
  <!-- Generator: Adobe Illustrator 28.7.1, SVG Export Plug-In . SVG Version: 1.2.0 Build 142)  -->
  <g>
    <g id="Capa_1">
      <line class="cls-13" x1="-14.31" y1="49.42" x2="547.02" y2="49.42"/>
      <path class="cls-10" d="M229.66,112.88c-1.33-6.32-3.27-12.42-5.77-18.23-2.37-5.53-5.24-10.79-8.55-15.73-3.56-5.32-7.62-10.27-12.13-14.78-4.76-4.76-10.01-9-15.66-12.7-5.32-3.48-10.99-6.44-16.95-8.84-5.49-2.21-11.22-3.94-17.16-5.12-1.38-.27-2.77-.51-4.18-.73-.43-.07-.87-.13-1.3-.19-1.01-.14-2.03-.27-3.05-.38-.46-.05-.92-.1-1.39-.15-1.28-.12-2.57-.22-3.87-.29l-.45-.03c-1.59-.08-3.19-.12-4.8-.12-1.7,0-3.39.05-5.07.13h0,0,0l-.41.03c-1.39.08-2.77.19-4.14.33-.49.05-.97.11-1.46.16-1.08.12-2.14.26-3.21.42-.46.07-.92.13-1.38.21-1.48.24-2.94.5-4.39.81-6.32,1.33-12.42,3.27-18.23,5.77-5.53,2.37-10.79,5.24-15.73,8.55-5.31,3.56-10.27,7.62-14.78,12.13-4.76,4.76-9,10.01-12.7,15.66-3.48,5.31-6.44,10.99-8.84,16.95-2.21,5.49-3.94,11.23-5.12,17.16-1.23,6.16-1.88,12.52-1.88,19.03,0,6.88.73,13.59,2.09,20.06,1.33,6.33,3.28,12.42,5.77,18.23,2.37,5.53,5.24,10.79,8.55,15.73,3.56,5.32,7.62,10.27,12.13,14.78,4.76,4.76,10.01,9,15.66,12.7,5.31,3.48,10.99,6.44,16.95,8.84,5.49,2.21,11.23,3.94,17.16,5.12,1.38.28,2.78.51,4.18.73.43.07.87.13,1.3.19,1.01.14,2.03.27,3.05.38.46.05.92.1,1.38.15,1.29.12,2.58.22,3.88.29,1.74.09,3.48.15,5.24.15,6.88,0,13.58-.73,20.06-2.09,6.33-1.33,12.42-3.27,18.23-5.77,5.53-2.37,10.79-5.24,15.73-8.55,5.32-3.56,10.27-7.62,14.78-12.13,4.75-4.75,9-10.01,12.7-15.66,3.48-5.32,6.44-10.99,8.84-16.95,2.21-5.49,3.94-11.23,5.13-17.16,1.22-6.16,1.88-12.52,1.88-19.03,0-6.88-.73-13.59-2.09-20.06ZM150.49,36.96c-.29-.05-.58-.11-.88-.15.29.05.59.1.88.15ZM147.38,36.49c-.73-.1-1.46-.19-2.19-.27.73.08,1.46.17,2.19.27ZM143.38,36.02c-1.22-.11-2.45-.21-3.69-.28,1.24.07,2.46.16,3.69.28ZM128.88,35.76c-1.33.08-2.64.18-3.95.31,1.31-.13,2.63-.24,3.95-.31ZM123.03,36.28c-.77.09-1.54.19-2.31.3.77-.11,1.54-.21,2.31-.3ZM118.35,36.95c-.3.05-.59.11-.89.16.3-.05.59-.11.89-.16ZM118.3,228.93c.3.05.59.11.89.16-.29-.05-.59-.1-.89-.16ZM121.42,229.4c.73.1,1.47.19,2.2.28-.74-.09-1.47-.18-2.2-.28ZM125.42,229.87c1.23.11,2.46.21,3.7.28-1.24-.07-2.47-.16-3.7-.28Z"/>
      <path class="cls-12" d="M39.86,173.41c-2.63-6.14-4.68-12.58-6.08-19.27-.58-2.76-1.04-5.57-1.39-8.4l-24.26,3.04c.44,3.51,1.01,6.98,1.73,10.4,1.73,8.27,4.27,16.25,7.53,23.85.6,1.41,1.25,2.79,1.9,4.17l22.12-10.42c-.53-1.12-1.05-2.23-1.54-3.37Z"/>
      <path class="cls-12" d="M240.84,202.72l-20.45-13.41c-3.87,5.89-8.32,11.37-13.28,16.34-2.68,2.68-5.52,5.19-8.48,7.56l15.27,19.09c3.66-2.94,7.18-6.04,10.5-9.36,6.15-6.15,11.66-12.93,16.45-20.22Z"/>
      <path class="cls-12" d="M96.16,228.41c-4.69-1.88-9.2-4.1-13.52-6.62l-12.31,21.13c5.35,3.12,10.94,5.86,16.74,8.19,6.6,2.65,13.48,4.75,20.57,6.27l5.15-23.93c-5.73-1.23-11.29-2.91-16.62-5.04Z"/>
      <path class="cls-12" d="M228.94,92.48c2.63,6.14,4.68,12.58,6.08,19.27.58,2.76,1.04,5.56,1.39,8.4l24.26-3.04c-.44-3.51-1.01-6.98-1.73-10.4-1.73-8.27-4.27-16.25-7.53-23.85-.6-1.41-1.25-2.79-1.9-4.17l-22.12,10.42c.52,1.12,1.05,2.23,1.54,3.37Z"/>
      <path class="cls-12" d="M172.64,37.48c4.69,1.88,9.21,4.1,13.52,6.62l12.31-21.13c-5.34-3.12-10.93-5.87-16.74-8.19-6.6-2.65-13.48-4.75-20.57-6.27l-5.15,23.93c5.73,1.23,11.29,2.91,16.62,5.04Z"/>
      <path class="cls-1" d="M260.68,117.11l-24.26,3.04h0c-.35-2.83-.82-5.64-1.39-8.4-1.4-6.68-3.45-13.13-6.08-19.27-.49-1.14-1.01-2.26-1.54-3.38h0s22.12-10.42,22.12-10.42c-2.7-5.71-5.78-11.2-9.27-16.41-4.65-6.96-9.97-13.43-15.87-19.33-6.22-6.22-13.08-11.79-20.48-16.62-1.78-1.17-3.6-2.29-5.44-3.36l-12.31,21.13h0c-4.32-2.52-8.83-4.74-13.53-6.62-5.33-2.14-10.89-3.82-16.62-5.04l5.15-23.93c-.62-.13-1.25-.27-1.88-.4-8.05-1.6-16.37-2.44-24.89-2.44-8.99,0-17.77.94-26.24,2.71-8.27,1.73-16.25,4.27-23.85,7.53-7.23,3.1-14.12,6.85-20.58,11.17-3.04,2.04-5.98,4.22-8.83,6.51l15.28,19.09c-2.96,2.37-5.8,4.88-8.48,7.56-5.02,5.02-9.52,10.57-13.43,16.54l.14-.21-20.45-13.41-.17.26c-4.54,6.95-8.42,14.37-11.55,22.18-2.88,7.18-5.12,14.69-6.66,22.45-1.6,8.05-2.44,16.37-2.44,24.89,0,5.36.34,10.65.99,15.83l24.26-3.04v-.02c.35,2.85.81,5.66,1.39,8.43,1.4,6.68,3.45,13.13,6.08,19.27.49,1.14,1.01,2.26,1.54,3.37l-22.12,10.42c2.7,5.71,5.78,11.2,9.27,16.41,4.65,6.96,9.97,13.43,15.87,19.33,6.22,6.22,13.08,11.79,20.48,16.62,1.78,1.17,3.6,2.29,5.44,3.36l12.31-21.13h0c4.32,2.52,8.83,4.74,13.52,6.62,5.8,2.33,11.87,4.14,18.14,5.38-.51-.1-1.01-.23-1.51-.34l-5.15,23.93c.63.14,1.25.27,1.88.4,8.05,1.6,16.37,2.44,24.89,2.44,8.99,0,17.77-.94,26.23-2.71,8.27-1.73,16.25-4.27,23.85-7.53,7.23-3.1,14.11-6.85,20.58-11.17,3.04-2.04,5.98-4.22,8.83-6.51l-15.27-19.09c2.96-2.37,5.8-4.88,8.48-7.56,4.96-4.97,9.41-10.44,13.28-16.34l20.45,13.41.17-.26c4.54-6.95,8.42-14.37,11.55-22.18,2.88-7.18,5.13-14.69,6.66-22.45,1.6-8.05,2.44-16.37,2.44-24.89,0-5.36-.34-10.64-.99-15.83ZM226.01,86.3c-.18-.35-.36-.7-.54-1.05.18.35.36.7.54,1.05ZM222.18,79.41c-.73-1.2-1.48-2.38-2.26-3.55.78,1.16,1.53,2.35,2.26,3.55ZM224.21,82.9c-.33-.59-.67-1.18-1.01-1.76.34.58.68,1.17,1.01,1.76ZM77.31,47.43c-1.24.83-2.46,1.7-3.66,2.58,1.2-.89,2.42-1.75,3.66-2.58ZM32.01,142.3l.04.47-.04-.47ZM31.63,135.99c0,.25.02.5.03.76,0-.25-.02-.5-.03-.76ZM31.77,139.09c.01.24.03.47.05.71-.01-.24-.03-.47-.05-.71ZM42.79,179.59c.18.35.36.71.54,1.06-.18-.35-.36-.7-.54-1.06ZM46.62,186.48c.73,1.2,1.48,2.39,2.26,3.55-.78-1.16-1.53-2.35-2.26-3.55ZM44.59,182.99c.33.6.67,1.19,1.02,1.77-.34-.59-.69-1.18-1.02-1.77ZM191.49,218.47c1.24-.83,2.46-1.7,3.67-2.58-1.2.89-2.42,1.75-3.67,2.58ZM209.23,181.74c-3.39,5.19-7.29,10.01-11.66,14.38-4.14,4.14-8.69,7.87-13.57,11.14-4.54,3.04-9.37,5.67-14.44,7.85-5.34,2.29-10.93,4.08-16.74,5.3-5.95,1.25-12.11,1.92-18.42,1.92-5.98,0-11.82-.6-17.48-1.73-5.45-1.08-10.71-2.68-15.76-4.7-5.48-2.2-10.68-4.93-15.56-8.12-5.19-3.39-10.01-7.29-14.38-11.66-4.14-4.14-7.87-8.69-11.14-13.57-3.04-4.54-5.67-9.37-7.85-14.44-2.29-5.34-4.08-10.94-5.3-16.74-1.25-5.95-1.92-12.11-1.92-18.42,0-5.98.6-11.82,1.73-17.48,1.08-5.45,2.68-10.71,4.71-15.76,2.2-5.48,4.93-10.68,8.12-15.56,3.39-5.19,7.29-10.01,11.66-14.38,4.14-4.14,8.69-7.87,13.57-11.14,4.54-3.04,9.37-5.67,14.44-7.85,5.34-2.29,10.93-4.08,16.74-5.3,5.95-1.25,12.11-1.92,18.42-1.92,5.98,0,11.82.6,17.47,1.73,5.45,1.08,10.71,2.68,15.75,4.71,5.48,2.2,10.69,4.93,15.57,8.12,5.19,3.39,10.01,7.29,14.38,11.66,4.14,4.14,7.87,8.69,11.14,13.57,3.04,4.54,5.68,9.37,7.85,14.44,2.29,5.34,4.08,10.94,5.3,16.74,1.25,5.95,1.92,12.11,1.92,18.42,0,5.98-.6,11.82-1.73,17.48-1.08,5.45-2.68,10.71-4.71,15.76-2.2,5.48-4.93,10.68-8.12,15.56ZM236.74,123.13l.04.43-.04-.43ZM236.98,126.11c.02.22.03.45.04.67-.01-.22-.03-.45-.04-.67ZM237.14,129.16c0,.25.02.49.03.74,0-.25-.02-.49-.03-.74Z"/>
      <path class="cls-12" d="M61.7,60.24c2.68-2.68,5.52-5.19,8.48-7.56l-15.28-19.09c-3.66,2.93-7.18,6.04-10.5,9.36-6.15,6.15-11.66,12.92-16.45,20.22l20.45,13.41c3.87-5.89,8.32-11.37,13.28-16.33Z"/>
      <path class="cls-21" d="M214.8,116.01c-1.12-5.34-2.76-10.48-4.87-15.39-2-4.66-4.42-9.1-7.22-13.28-3.01-4.49-6.43-8.67-10.24-12.47-4.01-4.01-8.45-7.6-13.22-10.72-4.48-2.94-9.27-5.44-14.31-7.46-4.64-1.86-9.47-3.33-14.48-4.32-5.2-1.03-10.57-1.59-16.06-1.59-5.8,0-11.47.61-16.93,1.76-5.34,1.12-10.49,2.76-15.39,4.87-4.66,2-9.1,4.42-13.28,7.22-4.49,3-8.67,6.43-12.47,10.24-4.01,4.01-7.6,8.45-10.72,13.22-2.93,4.49-5.44,9.27-7.46,14.31-1.86,4.64-3.33,9.47-4.32,14.48-1.03,5.2-1.59,10.57-1.59,16.06,0,5.8.61,11.47,1.76,16.93,1.12,5.34,2.77,10.48,4.87,15.39,2,4.66,4.42,9.1,7.22,13.28,3.01,4.49,6.43,8.67,10.24,12.47,4.01,4.01,8.45,7.6,13.22,10.72,4.49,2.94,9.27,5.44,14.31,7.46,4.64,1.86,9.47,3.33,14.48,4.32,3.91.78,7.92,1.28,12.01,1.49-4.02-.2-7.97-.7-11.82-1.47-4.95-.99-9.73-2.43-14.31-4.27-4.97-2-9.7-4.47-14.14-7.37-4.71-3.08-9.1-6.62-13.06-10.59-3.76-3.76-7.15-7.89-10.12-12.32-2.76-4.12-5.15-8.51-7.13-13.12-2.08-4.85-3.7-9.93-4.81-15.21-1.14-5.4-1.74-11-1.74-16.73,0-5.43.55-10.74,1.57-15.87.99-4.95,2.43-9.73,4.27-14.31,2-4.97,4.47-9.7,7.37-14.14,3.08-4.71,6.62-9.09,10.59-13.06,3.76-3.76,7.89-7.15,12.32-10.12,4.12-2.76,8.51-5.15,13.12-7.13,4.85-2.08,9.93-3.7,15.21-4.81,5.4-1.14,11-1.74,16.73-1.74,5.43,0,10.74.55,15.87,1.57,4.95.99,9.73,2.43,14.31,4.27,4.98,2,9.7,4.47,14.14,7.37,4.71,3.08,9.1,6.62,13.06,10.59,3.76,3.76,7.15,7.89,10.12,12.32,2.76,4.12,5.15,8.51,7.13,13.12,2.08,4.85,3.7,9.93,4.81,15.21,1.14,5.4,1.74,11,1.74,16.73,0,5.43-.54,10.74-1.57,15.87-.98,4.95-2.43,9.73-4.27,14.31-2,4.97-4.47,9.71-7.37,14.14-3.08,4.71-6.62,9.1-10.59,13.06-3.76,3.76-7.89,7.15-12.32,10.12-4.12,2.76-8.51,5.15-13.12,7.13-4.85,2.08-9.93,3.7-15.21,4.81-5.4,1.14-11,1.74-16.73,1.74,5.8,0,11.46-.61,16.93-1.76,5.34-1.12,10.48-2.76,15.39-4.87,4.66-2,9.1-4.42,13.27-7.22,4.49-3,8.67-6.43,12.47-10.24,4.01-4.01,7.6-8.45,10.72-13.22,2.94-4.49,5.44-9.27,7.46-14.31,1.86-4.64,3.33-9.47,4.32-14.48,1.03-5.2,1.59-10.57,1.59-16.06,0-5.8-.61-11.47-1.76-16.93Z"/>
      <path class="cls-11" d="M58.21,83.26c-3.3,5.06-6.04,10.37-8.23,15.86-2.08,5.22-3.66,10.59-4.74,16.04-1.16,5.86-1.75,11.82-1.75,17.78,0,6.28.67,12.56,1.96,18.74,1.21,5.81,3,11.52,5.36,17.04,2.17,5.09,4.81,10.02,7.95,14.72,3.26,4.88,7.03,9.51,11.33,13.82,4.54,4.54,9.46,8.5,14.64,11.88,5.06,3.3,10.37,6.04,15.86,8.23,5.22,2.08,10.59,3.66,16.04,4.74,5.86,1.16,11.82,1.75,17.78,1.75,6.28,0,12.56-.67,18.74-1.96,5.81-1.21,11.52-3,17.04-5.36,5.09-2.17,10.02-4.81,14.72-7.95,4.88-3.26,9.51-7.03,13.82-11.33,4.54-4.54,8.49-9.46,11.88-14.64,3.3-5.06,6.04-10.37,8.23-15.86,2.08-5.22,3.66-10.59,4.74-16.04,1.16-5.86,1.75-11.82,1.75-17.78,0-6.28-.67-12.56-1.96-18.74-1.21-5.81-3-11.52-5.36-17.04-2.17-5.09-4.81-10.02-7.95-14.72-3.26-4.88-7.03-9.51-11.33-13.82-4.54-4.54-9.46-8.49-14.63-11.87-5.06-3.3-10.37-6.04-15.86-8.23-5.22-2.08-10.59-3.66-16.04-4.74-5.86-1.16-11.82-1.75-17.78-1.75-6.28,0-12.56.67-18.74,1.96-5.81,1.21-11.52,3-17.04,5.36-5.09,2.17-10.02,4.81-14.72,7.95-4.88,3.26-9.51,7.03-13.82,11.33-4.54,4.54-8.49,9.46-11.87,14.64ZM101.51,56.1c5.08-2.16,10.33-3.81,15.66-4.92,5.67-1.19,11.45-1.8,17.22-1.8,5.48,0,10.95.54,16.34,1.61,5.01.99,9.95,2.45,14.75,4.36,5.04,2.01,9.93,4.54,14.58,7.57,4.76,3.11,9.28,6.74,13.45,10.91,3.96,3.95,7.42,8.22,10.42,12.7,2.89,4.32,5.32,8.85,7.31,13.53,2.17,5.08,3.81,10.32,4.93,15.66,1.18,5.67,1.8,11.45,1.8,17.22,0,5.48-.54,10.95-1.61,16.34-.99,5.01-2.45,9.95-4.36,14.75-2.01,5.04-4.54,9.93-7.57,14.58-3.11,4.76-6.74,9.28-10.92,13.45-3.95,3.95-8.22,7.42-12.7,10.42-4.32,2.89-8.85,5.31-13.53,7.31-5.08,2.17-10.32,3.81-15.67,4.92-5.67,1.19-11.44,1.8-17.22,1.8-5.48,0-10.95-.54-16.34-1.61-5.01-.99-9.95-2.44-14.75-4.36-5.04-2.01-9.93-4.53-14.58-7.57-4.76-3.11-9.28-6.74-13.45-10.92-3.95-3.96-7.42-8.22-10.42-12.7-2.89-4.32-5.31-8.85-7.31-13.53-2.17-5.08-3.81-10.33-4.93-15.67-1.18-5.67-1.8-11.45-1.8-17.22,0-5.48.54-10.95,1.61-16.34.99-5.01,2.45-9.95,4.36-14.75,2.01-5.04,4.53-9.93,7.57-14.58,3.11-4.76,6.74-9.28,10.91-13.45,3.96-3.95,8.22-7.42,12.7-10.42,4.32-2.88,8.85-5.31,13.53-7.31Z"/>
      <path class="cls-10" d="M202.71,87.35l6.01-4.01c-3.27-4.88-7-9.43-11.14-13.57l-5.11,5.11c3.81,3.8,7.23,7.98,10.24,12.47Z"/>
      <path class="cls-14" d="M209.92,100.62l6.64-2.84c-2.18-5.07-4.81-9.9-7.85-14.44l-6.01,4.01c2.79,4.17,5.22,8.61,7.22,13.28Z"/>
      <path class="cls-10" d="M214.8,116.01l7.07-1.49c-1.22-5.81-3.01-11.41-5.3-16.74l-6.64,2.84c2.11,4.9,3.75,10.05,4.87,15.39Z"/>
      <path class="cls-14" d="M192.47,191.01l5.11,5.11c4.36-4.37,8.26-9.19,11.66-14.38l-6.05-3.94c-3.12,4.77-6.7,9.2-10.72,13.22Z"/>
      <path class="cls-14" d="M58.15,102.4l-6.7-2.69c-2.03,5.04-3.62,10.31-4.71,15.76l7.09,1.41c1-5.01,2.46-9.84,4.32-14.48Z"/>
      <path class="cls-10" d="M54,149.88l-7.07,1.49c1.22,5.81,3.01,11.41,5.3,16.74l6.64-2.84c-2.11-4.9-3.75-10.05-4.87-15.39Z"/>
      <path class="cls-10" d="M53.83,116.88l-7.09-1.41c-1.12,5.65-1.73,11.5-1.73,17.48h7.23c0-5.5.55-10.87,1.59-16.06Z"/>
      <path class="cls-14" d="M52.24,132.95h-7.23c0,6.31.67,12.47,1.92,18.42l7.07-1.49c-1.15-5.47-1.76-11.13-1.76-16.93Z"/>
      <path class="cls-14" d="M58.87,165.27l-6.64,2.84c2.18,5.07,4.81,9.9,7.85,14.44l6.01-4.01c-2.79-4.17-5.21-8.61-7.22-13.28Z"/>
      <path class="cls-14" d="M76.33,191.01l-5.11,5.11c4.36,4.36,9.19,8.27,14.38,11.66l3.94-6.05c-4.77-3.12-9.2-6.7-13.22-10.72Z"/>
      <path class="cls-10" d="M66.09,178.54l-6.01,4.01c3.27,4.88,7,9.43,11.14,13.57l5.11-5.11c-3.81-3.81-7.23-7.99-10.24-12.47Z"/>
      <path class="cls-10" d="M89.55,201.73l-3.94,6.05c4.88,3.19,10.09,5.92,15.56,8.12l2.69-6.71c-5.03-2.02-9.82-4.53-14.31-7.46Z"/>
      <path class="cls-10" d="M65.61,88.09l-6.05-3.94c-3.19,4.88-5.92,10.09-8.12,15.56l6.7,2.69c2.02-5.03,4.53-9.82,7.46-14.31Z"/>
      <path class="cls-14" d="M134.4,50.78v-7.23c-6.32,0-12.47.67-18.42,1.92l1.49,7.07c5.47-1.15,11.13-1.76,16.93-1.76Z"/>
      <path class="cls-14" d="M102.08,57.42l-2.84-6.64c-5.07,2.18-9.9,4.81-14.44,7.85l4.01,6.01c4.17-2.79,8.61-5.22,13.28-7.22Z"/>
      <path class="cls-10" d="M117.47,52.55l-1.49-7.07c-5.81,1.22-11.41,3.01-16.74,5.3l2.84,6.64c4.9-2.11,10.05-3.75,15.39-4.87Z"/>
      <path class="cls-14" d="M76.33,74.88l-5.11-5.11c-4.36,4.37-8.26,9.19-11.66,14.38l6.05,3.94c3.12-4.77,6.7-9.2,10.72-13.22Z"/>
      <path class="cls-10" d="M88.8,64.64l-4.01-6.01c-4.88,3.27-9.43,7-13.57,11.14l5.11,5.11c3.81-3.81,7.99-7.23,12.47-10.24Z"/>
      <path class="cls-14" d="M214.8,116.01c1.15,5.47,1.76,11.13,1.76,16.93h7.22c0-6.31-.67-12.47-1.92-18.42l-7.07,1.49Z"/>
      <path class="cls-10" d="M214.97,149.01l7.09,1.41c1.12-5.65,1.73-11.5,1.73-17.48h-7.22c0,5.5-.55,10.87-1.59,16.06Z"/>
      <path class="cls-14" d="M192.47,74.88l5.11-5.11c-4.37-4.37-9.19-8.27-14.38-11.66l-3.94,6.05c4.77,3.12,9.2,6.7,13.22,10.72Z"/>
      <path class="cls-14" d="M210.65,163.49l6.7,2.69c2.03-5.04,3.62-10.31,4.71-15.76l-7.09-1.41c-1,5.01-2.46,9.84-4.32,14.48Z"/>
      <path class="cls-14" d="M103.85,209.19l-2.69,6.71c5.04,2.03,10.31,3.62,15.76,4.7l1.41-7.09c-5.01-1-9.84-2.46-14.48-4.32Z"/>
      <path class="cls-10" d="M179.25,64.16l3.94-6.05c-4.88-3.19-10.09-5.92-15.57-8.12l-2.68,6.7c5.03,2.02,9.82,4.53,14.31,7.46Z"/>
      <path class="cls-14" d="M164.95,56.7l2.68-6.7c-5.04-2.03-10.3-3.62-15.75-4.71l-1.41,7.09c5.01,1,9.84,2.46,14.48,4.32Z"/>
      <path class="cls-10" d="M203.18,177.8l6.05,3.94c3.19-4.88,5.92-10.09,8.12-15.56l-6.7-2.69c-2.02,5.03-4.53,9.82-7.46,14.31Z"/>
      <path class="cls-14" d="M134.4,215.11v7.22c6.31,0,12.47-.67,18.42-1.92l-1.49-7.07c-5.47,1.15-11.13,1.76-16.93,1.76Z"/>
      <path class="cls-10" d="M150.46,52.37l1.41-7.09c-5.65-1.12-11.49-1.73-17.47-1.73v7.23c5.5,0,10.87.55,16.06,1.59Z"/>
      <path class="cls-10" d="M118.34,213.52l-1.41,7.09c5.65,1.13,11.5,1.73,17.48,1.73v-7.22c-5.5,0-10.87-.55-16.06-1.59Z"/>
      <path class="cls-10" d="M151.33,213.34l1.49,7.07c5.81-1.22,11.41-3.01,16.74-5.3l-2.84-6.64c-4.9,2.11-10.05,3.75-15.39,4.87Z"/>
      <path class="cls-14" d="M166.72,208.47l2.84,6.64c5.07-2.18,9.9-4.81,14.44-7.85l-4.01-6.01c-4.17,2.79-8.61,5.22-13.27,7.22Z"/>
      <path class="cls-10" d="M180,201.25l4.01,6.01c4.88-3.27,9.43-7,13.57-11.14l-5.11-5.11c-3.81,3.81-7.99,7.23-12.47,10.24Z"/>
      <path class="cls-10" d="M32.87,149.13c.04.27.07.55.12.83-.05-.27-.08-.55-.12-.83Z"/>
      <path class="cls-10" d="M207.1,205.65c4.96-4.97,9.41-10.44,13.28-16.34-3.87,5.89-8.32,11.37-13.28,16.34Z"/>
      <path class="cls-10" d="M104.39,231.29c2.75.84,5.54,1.55,8.38,2.16-2.84-.61-5.64-1.33-8.38-2.16Z"/>
      <path class="cls-10" d="M100.3,229.96c1.11.39,2.23.75,3.36,1.1-1.13-.35-2.25-.71-3.36-1.1Z"/>
      <path class="cls-10" d="M235.81,115.93l.06.4-.06-.4Z"/>
      <path class="cls-20" d="M54.64,68.07c-2.21,2.71-4.28,5.55-6.21,8.48,1.93-2.93,4-5.76,6.21-8.48Z"/>
      <path class="cls-20" d="M58.06,64.07c-1.08,1.2-2.12,2.42-3.15,3.67,1.02-1.25,2.07-2.48,3.15-3.67Z"/>
      <path class="cls-9" d="M20.95,186.41c-.64-1.36-1.28-2.73-1.88-4.11-3.21-7.49-5.71-15.35-7.42-23.5-.71-3.37-1.27-6.79-1.7-10.25l-1.84.23c.44,3.51,1.01,6.98,1.73,10.4,1.73,8.27,4.27,16.25,7.53,23.85.6,1.41,1.25,2.79,1.9,4.17l1.68-.79Z"/>
      <path class="cls-8" d="M223.08,221.63c-3.27,3.27-6.73,6.33-10.34,9.22l1.16,1.45c3.66-2.94,7.18-6.04,10.5-9.36,6.15-6.15,11.66-12.93,16.45-20.22l-1.55-1.02c-4.72,7.19-10.15,13.87-16.21,19.92Z"/>
      <path class="cls-7" d="M87.75,249.39c-5.72-2.29-11.23-5-16.49-8.07l-.93,1.6c5.35,3.12,10.94,5.86,16.74,8.19,6.6,2.65,13.48,4.75,20.57,6.27l.39-1.81c-6.99-1.5-13.77-3.57-20.27-6.18Z"/>
      <path class="cls-4" d="M249.73,83.59c3.21,7.49,5.71,15.35,7.42,23.5.7,3.37,1.27,6.79,1.7,10.25l1.84-.23c-.44-3.51-1.01-6.98-1.73-10.4-1.73-8.27-4.27-16.25-7.53-23.85-.6-1.41-1.25-2.79-1.9-4.17l-1.68.79c.64,1.36,1.28,2.73,1.88,4.11Z"/>
      <path class="cls-5" d="M181.05,16.5c5.72,2.29,11.23,5,16.49,8.07l.93-1.6c-5.34-3.12-10.93-5.87-16.74-8.19-6.6-2.65-13.48-4.75-20.57-6.27l-.39,1.81c6.99,1.5,13.77,3.57,20.27,6.18Z"/>
      <path class="cls-3" d="M9.95,148.55c-.64-5.11-.97-10.32-.97-15.6,0-8.39.83-16.59,2.41-24.53,1.52-7.65,3.73-15.05,6.56-22.12,3.08-7.69,6.91-15.01,11.39-21.86l.17-.25-1.55-1.02-.17.26c-4.54,6.95-8.42,14.37-11.55,22.18-2.88,7.18-5.12,14.69-6.66,22.45-1.6,8.05-2.44,16.37-2.44,24.89,0,5.36.34,10.65.99,15.83l1.84-.23Z"/>
      <path class="cls-2" d="M71.26,241.32c-1.82-1.06-3.61-2.16-5.36-3.31-7.28-4.76-14.05-10.25-20.18-16.38-5.81-5.81-11.05-12.19-15.64-19.05-3.43-5.13-6.47-10.54-9.13-16.17l-1.68.79c2.7,5.71,5.78,11.2,9.27,16.41,4.65,6.96,9.97,13.43,15.87,19.33,6.22,6.22,13.08,11.79,20.48,16.62,1.78,1.17,3.6,2.29,5.44,3.36l.93-1.6Z"/>
      <path class="cls-6" d="M212.74,230.85c-2.81,2.25-5.7,4.4-8.7,6.41-6.37,4.26-13.16,7.96-20.28,11.01-7.49,3.21-15.35,5.71-23.5,7.42-8.34,1.75-16.99,2.67-25.85,2.67-8.39,0-16.59-.83-24.53-2.41-.62-.12-1.23-.26-1.85-.39l-.39,1.81c.63.14,1.25.27,1.88.4,8.05,1.6,16.37,2.44,24.89,2.44,8.99,0,17.77-.94,26.23-2.71,8.27-1.73,16.25-4.27,23.85-7.53,7.23-3.1,14.11-6.85,20.58-11.17,3.04-2.04,5.98-4.22,8.83-6.51l-1.16-1.45Z"/>
      <path class="cls-15" d="M260.68,117.11l-1.84.23h0c.64,5.11.97,10.32.97,15.6,0,8.39-.83,16.59-2.4,24.53-1.52,7.65-3.73,15.05-6.57,22.12-3.09,7.69-6.91,15.01-11.39,21.86l-.17.25,1.55,1.02.17-.26c4.54-6.95,8.42-14.37,11.55-22.18,2.88-7.18,5.13-14.69,6.66-22.45,1.6-8.05,2.44-16.37,2.44-24.89,0-5.36-.34-10.64-.99-15.83Z"/>
      <path class="cls-16" d="M197.54,24.57c1.82,1.06,3.61,2.16,5.36,3.31,7.28,4.76,14.05,10.25,20.18,16.38,5.81,5.81,11.05,12.19,15.64,19.05,3.43,5.13,6.47,10.54,9.13,16.17l1.68-.79c-2.7-5.71-5.78-11.2-9.27-16.41-4.65-6.96-9.97-13.43-15.87-19.33-6.22-6.22-13.08-11.79-20.48-16.62-1.78-1.17-3.6-2.29-5.44-3.36l-.93,1.6Z"/>
      <path class="cls-17" d="M56.06,35.04c2.81-2.25,5.7-4.4,8.7-6.41,6.37-4.26,13.16-7.96,20.28-11.01,7.49-3.21,15.35-5.71,23.5-7.42,8.34-1.75,16.99-2.67,25.85-2.67,8.39,0,16.59.83,24.52,2.4.62.12,1.23.26,1.85.39l.39-1.81c-.62-.13-1.25-.27-1.88-.4-8.05-1.6-16.37-2.44-24.89-2.44-8.99,0-17.77.94-26.24,2.71-8.27,1.73-16.25,4.27-23.85,7.53-7.23,3.1-14.12,6.85-20.58,11.17-3.04,2.04-5.98,4.22-8.83,6.51l1.16,1.45Z"/>
      <path class="cls-18" d="M45.72,44.26c3.27-3.27,6.73-6.33,10.34-9.22l-1.16-1.45c-3.66,2.93-7.18,6.04-10.5,9.36-6.15,6.15-11.66,12.92-16.45,20.22l1.55,1.02c4.72-7.19,10.15-13.87,16.21-19.92Z"/>
      <path class="cls-20" d="M156.26,240.21c0-2.86,2.32-5.19,5.19-5.19s5.19,2.32,5.19,5.19-2.32,5.19-5.19,5.19-5.19-2.32-5.19-5.19Z"/>
      <path class="cls-20" d="M103.65,25.68c0-2.86,2.32-5.19,5.19-5.19s5.19,2.32,5.19,5.19-2.32,5.19-5.19,5.19-5.19-2.32-5.19-5.19Z"/>
      <path class="cls-20" d="M20.65,113.49c0-2.86,2.32-5.19,5.19-5.19s5.19,2.32,5.19,5.19-2.32,5.19-5.19,5.19-5.19-2.32-5.19-5.19Z"/>
      <path class="cls-20" d="M49.55,209.46c0-2.86,2.32-5.19,5.19-5.19s5.19,2.32,5.19,5.19-2.32,5.19-5.19,5.19-5.19-2.32-5.19-5.19Z"/>
      <path class="cls-20" d="M236.29,158.33c0-2.86,2.32-5.19,5.19-5.19s5.19,2.32,5.19,5.19-2.32,5.19-5.19,5.19-5.19-2.32-5.19-5.19Z"/>
      <path class="cls-20" d="M210.73,59.4c0-2.86,2.32-5.19,5.19-5.19s5.19,2.32,5.19,5.19-2.32,5.19-5.19,5.19-5.19-2.32-5.19-5.19Z"/>
      <path class="cls-19" d="M203.22,177.82c2.98-4.57,5.46-9.37,7.44-14.33,1.88-4.71,3.31-9.57,4.28-14.49,1.05-5.3,1.58-10.68,1.58-16.06,0-5.67-.6-11.35-1.77-16.92-1.1-5.25-2.71-10.4-4.84-15.39-1.96-4.6-4.35-9.05-7.18-13.3-.66-.99-1.35-1.96-2.06-2.93-.22-.3-.44-.59-.67-.89-.52-.69-1.05-1.37-1.6-2.05-.24-.31-.49-.61-.74-.91-.69-.84-1.4-1.67-2.14-2.48l-.25-.29c-.9-1-1.83-1.97-2.79-2.93-1.01-1.01-2.05-2-3.1-2.94h0s0,0,0,0h0s-.26-.23-.26-.23c-.87-.78-1.76-1.54-2.66-2.28-.32-.26-.65-.52-.97-.77-.71-.57-1.44-1.12-2.17-1.66-.31-.23-.63-.47-.94-.7-1.02-.74-2.06-1.46-3.1-2.14-4.57-2.98-9.37-5.46-14.33-7.44-4.71-1.88-9.57-3.31-14.49-4.28-5.3-1.05-10.68-1.58-16.06-1.58-5.67,0-11.35.6-16.92,1.77-5.25,1.1-10.4,2.71-15.39,4.84-4.6,1.96-9.05,4.35-13.3,7.18-4.41,2.94-8.59,6.35-12.48,10.24-4.1,4.1-7.67,8.54-10.73,13.22-2.98,4.57-5.46,9.37-7.44,14.33-1.88,4.71-3.31,9.57-4.28,14.49-1.05,5.3-1.58,10.68-1.58,16.06,0,5.68.6,11.35,1.77,16.92,1.1,5.25,2.71,10.4,4.84,15.39,1.96,4.6,4.35,9.05,7.18,13.3.66.99,1.35,1.96,2.06,2.93.22.3.44.59.67.89.52.69,1.05,1.37,1.6,2.05.25.3.49.61.74.91.7.84,1.41,1.67,2.14,2.49.98,1.09,1.99,2.17,3.04,3.22,4.1,4.1,8.54,7.67,13.22,10.72,4.57,2.98,9.37,5.46,14.33,7.44,4.71,1.88,9.57,3.31,14.49,4.28,5.3,1.05,10.68,1.58,16.06,1.58,5.67,0,11.35-.6,16.92-1.77,5.25-1.1,10.4-2.71,15.4-4.84,4.59-1.96,9.05-4.35,13.3-7.18,4.41-2.94,8.59-6.35,12.48-10.24,4.1-4.1,7.67-8.54,10.73-13.22ZM201.28,85.27c-.14-.2-.29-.41-.43-.61.15.2.29.41.43.61ZM199.71,83.13c-.38-.49-.76-.99-1.15-1.47.39.49.77.98,1.15,1.47ZM197.59,80.46c-.66-.8-1.34-1.59-2.03-2.37.7.78,1.37,1.57,2.03,2.37ZM189.1,71.66c-.83-.75-1.68-1.47-2.54-2.17.86.71,1.71,1.43,2.54,2.17ZM185.3,68.47c-.52-.41-1.04-.8-1.56-1.2.52.39,1.04.79,1.56,1.2ZM182.11,66.08c-.21-.15-.42-.29-.63-.44.21.15.42.29.63.44ZM67.51,180.61c.15.21.29.42.44.62-.15-.21-.29-.41-.44-.62ZM69.09,182.76c.38.5.76.99,1.15,1.48-.39-.49-.77-.98-1.15-1.48ZM71.2,185.43c.66.8,1.34,1.59,2.04,2.37-.7-.78-1.38-1.57-2.04-2.37Z"/>
      <path class="cls-1" d="M213.07,116.38c-1.1-5.22-2.7-10.26-4.77-15.06-1.96-4.56-4.33-8.91-7.06-12.99-2.94-4.39-6.29-8.48-10.02-12.2-3.93-3.93-8.27-7.43-12.93-10.49-4.39-2.87-9.08-5.32-14-7.3-4.54-1.82-9.27-3.26-14.17-4.23-1.14-.23-2.29-.42-3.45-.6-.36-.06-.72-.1-1.08-.15-.84-.12-1.67-.22-2.52-.31-.38-.04-.76-.08-1.15-.12-1.06-.1-2.13-.18-3.2-.24l-.37-.03c-1.31-.07-2.63-.1-3.96-.1-1.4,0-2.8.04-4.18.11h0s0,0,0,0h0s-.34.02-.34.02c-1.15.06-2.29.16-3.42.27-.4.04-.8.09-1.21.13-.89.1-1.77.22-2.65.35-.38.06-.76.11-1.14.17-1.22.2-2.43.41-3.63.67-5.22,1.1-10.26,2.71-15.06,4.77-4.56,1.96-8.91,4.33-12.99,7.06-4.39,2.94-8.48,6.29-12.21,10.02-3.93,3.93-7.43,8.27-10.49,12.93-2.87,4.39-5.32,9.07-7.3,14-1.82,4.54-3.26,9.27-4.23,14.17-1.01,5.09-1.55,10.34-1.55,15.72,0,5.68.6,11.22,1.73,16.57,1.1,5.22,2.7,10.26,4.77,15.06,1.96,4.56,4.33,8.91,7.06,12.99,2.94,4.39,6.29,8.48,10.02,12.2,3.93,3.93,8.27,7.43,12.93,10.49,4.39,2.87,9.07,5.32,14,7.3,4.54,1.82,9.27,3.26,14.17,4.23,1.14.23,2.29.42,3.45.6.36.06.72.1,1.08.15.84.12,1.68.22,2.52.31.38.04.76.09,1.14.12,1.06.1,2.13.18,3.2.24,1.43.08,2.87.12,4.33.12,5.68,0,11.22-.6,16.57-1.73,5.22-1.1,10.26-2.7,15.06-4.77,4.56-1.96,8.91-4.33,12.99-7.06,4.39-2.94,8.48-6.29,12.2-10.02,3.93-3.93,7.43-8.27,10.49-12.93,2.87-4.39,5.32-9.07,7.3-14,1.83-4.54,3.26-9.27,4.23-14.17,1.01-5.09,1.55-10.34,1.55-15.72,0-5.68-.6-11.22-1.73-16.57ZM147.69,53.67c-.24-.04-.48-.09-.72-.13.24.04.48.09.72.13ZM145.12,53.28c-.6-.08-1.21-.16-1.81-.22.61.07,1.21.14,1.81.22ZM141.81,52.9c-1.01-.09-2.02-.17-3.05-.23,1.02.06,2.03.13,3.05.23ZM125.01,53.12c-.64.08-1.28.16-1.91.25.63-.09,1.27-.18,1.91-.25ZM121.14,53.66c-.25.04-.49.09-.74.14.25-.04.49-.09.74-.14ZM121.1,212.21c.25.04.49.09.73.13-.25-.04-.49-.09-.73-.13ZM126.99,212.99c1.01.09,2.03.17,3.05.23-1.02-.06-2.04-.13-3.05-.23Z"/>
    </g>
  </g>
</svg>