<?xml version="1.0" encoding="UTF-8"?>
<svg xmlns="http://www.w3.org/2000/svg" xmlns:xlink="http://www.w3.org/1999/xlink" version="1.1" viewBox="0 0 265.89 265.89">
  <defs>
    <style>
      .cls-1 {
        fill: #e02144;
      }

      .cls-2 {
        fill: url(#linear-gradient-8);
      }

      .cls-3 {
        fill: url(#linear-gradient-7);
      }

      .cls-4 {
        fill: url(#linear-gradient-5);
      }

      .cls-5 {
        fill: url(#linear-gradient-6);
      }

      .cls-6 {
        fill: url(#linear-gradient-9);
      }

      .cls-7 {
        fill: url(#linear-gradient-4);
      }

      .cls-8 {
        fill: url(#linear-gradient-3);
      }

      .cls-9 {
        fill: url(#linear-gradient-2);
      }

      .cls-10 {
        fill: url(#linear-gradient);
      }

      .cls-11 {
        fill: #ae182e;
      }

      .cls-12 {
        fill: #f8f5f6;
      }

      .cls-13 {
        fill: #e3dedd;
      }

      .cls-14 {
        fill: url(#linear-gradient-10);
      }

      .cls-15 {
        fill: url(#linear-gradient-11);
      }

      .cls-16 {
        fill: url(#linear-gradient-12);
      }

      .cls-17 {
        fill: url(#linear-gradient-13);
      }

      .cls-18 {
        fill: url(#linear-gradient-14);
      }

      .cls-19 {
        fill: #f9f8f7;
      }

      .cls-20 {
        fill: #eb7475;
      }
    </style>
    <linearGradient id="linear-gradient" x1="-232.64" y1="391.6" x2="-230.64" y2="391.6" gradientTransform="translate(10405.55 -39884.43) rotate(-135) scale(90.8 -90.8)" gradientUnits="userSpaceOnUse">
      <stop offset="0" stop-color="#e86d75"/>
      <stop offset=".35" stop-color="#d8515f"/>
      <stop offset="1" stop-color="#b61732"/>
    </linearGradient>
    <linearGradient id="linear-gradient-2" x1="-255.29" y1="377.55" x2="-253.29" y2="377.55" gradientTransform="translate(1383.13 1299.92) rotate(-16.5) scale(3.91 -3.91)" gradientUnits="userSpaceOnUse">
      <stop offset="0" stop-color="#8e8e90"/>
      <stop offset=".08" stop-color="#9a9a9c"/>
      <stop offset=".37" stop-color="#c5c5c6"/>
      <stop offset=".63" stop-color="#e5e5e5"/>
      <stop offset=".85" stop-color="#f8f8f8"/>
      <stop offset="1" stop-color="#fff"/>
    </linearGradient>
    <linearGradient id="linear-gradient-3" x1="-245.12" y1="397.01" x2="-243.12" y2="397.01" gradientTransform="translate(1053.19 -3238.49) rotate(-135) scale(7.63 -7.63)" xlink:href="#linear-gradient-2"/>
    <linearGradient id="linear-gradient-4" x1="-262.82" y1="388.15" x2="-260.82" y2="388.15" gradientTransform="translate(1901.93 -163.98) rotate(-68.89) scale(3.97 -3.97)" xlink:href="#linear-gradient-2"/>
    <linearGradient id="linear-gradient-5" x1="-238.12" y1="398.44" x2="-236.12" y2="398.44" gradientTransform="translate(-1967.49 -2225.03) rotate(167) scale(6.94 -6.94)" xlink:href="#linear-gradient-2"/>
    <linearGradient id="linear-gradient-6" x1="-233.29" y1="392.76" x2="-231.29" y2="392.76" gradientTransform="translate(-2935.7 459.16) rotate(112.44) scale(6.9 -6.9)" xlink:href="#linear-gradient-2"/>
    <linearGradient id="linear-gradient-7" x1="-236.91" y1="386.09" x2="-234.9" y2="386.09" gradientTransform="translate(1404.06 5696.63) rotate(17.38) scale(12.75 -12.75)" gradientUnits="userSpaceOnUse">
      <stop offset="0" stop-color="#e7515c"/>
      <stop offset="1" stop-color="#eb6b76"/>
    </linearGradient>
    <linearGradient id="linear-gradient-8" x1="-257.89" y1="383.38" x2="-255.89" y2="383.38" gradientTransform="translate(2027.37 660.68) rotate(-43.73) scale(4.41 -4.41)" gradientUnits="userSpaceOnUse">
      <stop offset="0" stop-color="#841723"/>
      <stop offset=".01" stop-color="#861623"/>
      <stop offset=".16" stop-color="#a21428"/>
      <stop offset=".31" stop-color="#b7132b"/>
      <stop offset=".49" stop-color="#c6112e"/>
      <stop offset=".69" stop-color="#cf112f"/>
      <stop offset="1" stop-color="#d21130"/>
    </linearGradient>
    <linearGradient id="linear-gradient-9" x1="-269.38" y1="398.95" x2="-267.38" y2="398.95" gradientTransform="translate(1197.12 -901.46) rotate(-104.47) scale(3.23 -3.23)" gradientUnits="userSpaceOnUse">
      <stop offset="0" stop-color="#981829"/>
      <stop offset=".03" stop-color="#9a1829"/>
      <stop offset=".28" stop-color="#a9182d"/>
      <stop offset=".57" stop-color="#b2182f"/>
      <stop offset="1" stop-color="#b51830"/>
    </linearGradient>
    <linearGradient id="linear-gradient-10" x1="-243.43" y1="388.31" x2="-241.43" y2="388.31" gradientTransform="translate(2497.68 -2631.64) rotate(-109.29) scale(7.84 -7.84)" gradientUnits="userSpaceOnUse">
      <stop offset="0" stop-color="#a8182d"/>
      <stop offset=".5" stop-color="#b2172b"/>
      <stop offset="1" stop-color="#c1172a"/>
    </linearGradient>
    <linearGradient id="linear-gradient-11" x1="-234.67" y1="394.91" x2="-232.66" y2="394.91" gradientTransform="translate(-3645.16 -1506.92) rotate(142.43) scale(9.1 -9.1)" gradientUnits="userSpaceOnUse">
      <stop offset="0" stop-color="#841723"/>
      <stop offset=".09" stop-color="#841723"/>
      <stop offset=".09" stop-color="#851623"/>
      <stop offset=".23" stop-color="#a11427"/>
      <stop offset=".37" stop-color="#b6132b"/>
      <stop offset=".53" stop-color="#c5112e"/>
      <stop offset=".72" stop-color="#ce112f"/>
      <stop offset="1" stop-color="#d11130"/>
    </linearGradient>
    <linearGradient id="linear-gradient-12" x1="-233.89" y1="387.33" x2="-231.89" y2="387.33" gradientTransform="translate(-2000.13 1855.9) rotate(79.7) scale(6.2 -6.2)" xlink:href="#linear-gradient-7"/>
    <linearGradient id="linear-gradient-13" x1="-236.19" y1="385.15" x2="-234.19" y2="385.15" gradientTransform="translate(-717.46 3790.01) rotate(42.81) scale(8.47 -8.47)" xlink:href="#linear-gradient-2"/>
    <linearGradient id="linear-gradient-14" x1="-231.84" y1="390.48" x2="-229.84" y2="390.48" gradientTransform="translate(-9123.51 36167.66) rotate(45) scale(82.02 -82.02)" xlink:href="#linear-gradient"/>
  </defs>
  <!-- Generator: Adobe Illustrator 28.7.1, SVG Export Plug-In . SVG Version: 1.2.0 Build 142)  -->
  <g>
    <g id="Capa_2">
      <path class="cls-1" d="M229.71,112.87c-1.33-6.33-3.28-12.43-5.77-18.24-2.37-5.53-5.25-10.79-8.56-15.74-3.56-5.32-7.63-10.27-12.14-14.78-4.76-4.76-10.02-9.01-15.67-12.7-5.32-3.48-10.99-6.45-16.96-8.85-5.5-2.21-11.23-3.95-17.17-5.13-1.38-.28-2.78-.51-4.18-.73-.43-.07-.87-.13-1.3-.19-1.01-.14-2.03-.27-3.05-.38-.46-.05-.92-.1-1.39-.15-1.28-.12-2.58-.22-3.87-.29l-.45-.03c-1.59-.08-3.19-.12-4.8-.12-1.7,0-3.39.05-5.07.13h0,0,0l-.41.03c-1.39.08-2.77.19-4.14.33-.49.05-.97.11-1.46.16-1.08.12-2.15.26-3.21.42-.46.07-.92.13-1.38.21-1.48.24-2.94.5-4.4.81-6.33,1.33-12.43,3.28-18.24,5.77-5.53,2.38-10.79,5.25-15.74,8.56-5.32,3.56-10.27,7.63-14.78,12.14-4.76,4.76-9.01,10.02-12.7,15.67-3.48,5.32-6.45,10.99-8.85,16.96-2.21,5.5-3.95,11.23-5.13,17.17-1.23,6.16-1.88,12.53-1.88,19.04,0,6.88.73,13.59,2.09,20.07,1.33,6.33,3.28,12.43,5.77,18.24,2.38,5.53,5.25,10.79,8.56,15.74,3.56,5.32,7.63,10.27,12.14,14.78,4.76,4.76,10.02,9.01,15.67,12.7,5.32,3.48,10.99,6.45,16.96,8.85,5.5,2.21,11.23,3.95,17.17,5.13,1.38.28,2.78.51,4.18.73.43.07.87.13,1.3.19,1.01.14,2.03.27,3.05.38.46.05.92.1,1.39.15,1.29.12,2.58.22,3.88.29,1.74.09,3.48.15,5.24.15,6.88,0,13.59-.73,20.07-2.09,6.33-1.33,12.43-3.28,18.24-5.77,5.53-2.38,10.79-5.25,15.74-8.56,5.32-3.56,10.27-7.63,14.79-12.14,4.76-4.76,9-10.02,12.7-15.67,3.48-5.32,6.45-10.99,8.85-16.96,2.21-5.5,3.95-11.23,5.13-17.17,1.23-6.16,1.88-12.53,1.88-19.04,0-6.88-.73-13.59-2.09-20.07ZM150.5,36.91c-.29-.05-.58-.11-.88-.15.29.05.59.1.88.15ZM147.38,36.44c-.73-.1-1.46-.19-2.19-.27.73.08,1.46.17,2.19.27ZM143.38,35.98c-1.23-.11-2.45-.21-3.69-.28,1.24.07,2.46.16,3.69.28ZM128.88,35.71c-1.33.08-2.64.18-3.96.31,1.31-.13,2.63-.24,3.96-.31ZM123.02,36.24c-.78.09-1.55.19-2.31.3.77-.11,1.54-.21,2.31-.3ZM118.34,36.9c-.3.05-.6.11-.89.16.3-.05.6-.11.89-.16ZM118.29,228.97c.3.05.59.11.89.16-.3-.05-.59-.1-.89-.16ZM121.41,229.45c.73.1,1.47.19,2.2.28-.74-.09-1.47-.18-2.2-.28ZM125.42,229.92c1.23.11,2.46.21,3.7.28-1.24-.07-2.47-.16-3.7-.28Z"/>
      <path class="cls-12" d="M39.81,173.43c-2.63-6.14-4.68-12.59-6.08-19.28-.58-2.76-1.04-5.57-1.4-8.41l-24.28,3.04c.44,3.51,1.01,6.99,1.73,10.41,1.74,8.28,4.27,16.26,7.53,23.86.6,1.41,1.25,2.79,1.91,4.18l22.13-10.43c-.53-1.12-1.05-2.23-1.54-3.37Z"/>
      <path class="cls-12" d="M240.9,202.76l-20.47-13.42c-3.87,5.9-8.32,11.38-13.29,16.34-2.68,2.68-5.52,5.19-8.48,7.56l15.28,19.1c3.67-2.94,7.18-6.05,10.5-9.36,6.15-6.15,11.66-12.93,16.45-20.23Z"/>
      <path class="cls-12" d="M96.14,228.46c-4.69-1.88-9.21-4.1-13.53-6.62l-12.32,21.14c5.35,3.12,10.94,5.87,16.75,8.19,6.61,2.65,13.48,4.75,20.58,6.27l5.15-23.94c-5.73-1.23-11.3-2.91-16.63-5.05Z"/>
      <path class="cls-12" d="M228.99,92.47c2.63,6.14,4.68,12.59,6.08,19.28.58,2.76,1.04,5.57,1.39,8.41l24.28-3.04c-.43-3.51-1.01-6.99-1.73-10.41-1.73-8.28-4.27-16.26-7.53-23.86-.61-1.41-1.25-2.79-1.91-4.18l-22.13,10.43c.52,1.12,1.05,2.24,1.54,3.37Z"/>
      <path class="cls-12" d="M172.66,37.43c4.69,1.88,9.21,4.1,13.53,6.62l12.32-21.14c-5.35-3.12-10.94-5.87-16.75-8.2-6.6-2.65-13.49-4.75-20.58-6.27l-5.15,23.94c5.73,1.23,11.3,2.91,16.63,5.05Z"/>
      <path class="cls-1" d="M260.75,117.11l-24.28,3.04h0c-.36-2.83-.82-5.64-1.4-8.41-1.4-6.69-3.45-13.14-6.08-19.28-.49-1.14-1.01-2.26-1.54-3.38h0s22.13-10.42,22.13-10.42c-2.7-5.71-5.79-11.21-9.27-16.42-4.66-6.96-9.97-13.44-15.87-19.34-6.22-6.22-13.09-11.8-20.49-16.63-1.79-1.17-3.6-2.29-5.44-3.36l-12.32,21.14h0c-4.32-2.52-8.84-4.74-13.53-6.62-5.33-2.14-10.9-3.82-16.63-5.05l5.15-23.94c-.63-.13-1.25-.27-1.88-.4-8.05-1.6-16.38-2.44-24.9-2.44-9,0-17.78.94-26.25,2.71-8.28,1.74-16.26,4.27-23.86,7.53-7.23,3.1-14.12,6.85-20.59,11.18-3.05,2.04-5.98,4.22-8.84,6.51l15.28,19.1c-2.96,2.37-5.8,4.88-8.48,7.56-5.03,5.03-9.53,10.57-13.43,16.55l.14-.21-20.46-13.42-.17.26c-4.54,6.96-8.43,14.38-11.56,22.19-2.88,7.19-5.13,14.7-6.67,22.46-1.6,8.05-2.44,16.38-2.44,24.9,0,5.37.34,10.65.99,15.84l24.28-3.04v-.02c.35,2.85.82,5.66,1.4,8.43,1.4,6.69,3.45,13.14,6.08,19.28.49,1.14,1.01,2.26,1.54,3.37l-22.13,10.43c2.7,5.71,5.79,11.21,9.27,16.42,4.66,6.96,9.97,13.44,15.87,19.34,6.22,6.22,13.09,11.79,20.49,16.63,1.78,1.17,3.6,2.29,5.44,3.36l12.32-21.14h0c4.32,2.52,8.84,4.74,13.53,6.62,5.81,2.33,11.87,4.14,18.15,5.38-.51-.1-1.01-.23-1.52-.34l-5.15,23.94c.63.14,1.25.27,1.88.4,8.05,1.6,16.38,2.44,24.9,2.44,9,0,17.78-.94,26.25-2.71,8.28-1.74,16.26-4.27,23.86-7.53,7.23-3.1,14.12-6.85,20.59-11.18,3.05-2.04,5.98-4.23,8.84-6.51l-15.28-19.1c2.96-2.37,5.8-4.88,8.48-7.56,4.97-4.97,9.42-10.45,13.29-16.34l20.47,13.42.17-.26c4.55-6.96,8.43-14.38,11.56-22.19,2.88-7.19,5.13-14.7,6.67-22.46,1.6-8.05,2.44-16.38,2.44-24.9,0-5.37-.34-10.65-.99-15.84ZM226.06,86.27c-.18-.35-.36-.7-.54-1.05.18.35.36.7.54,1.05ZM222.22,79.38c-.73-1.2-1.48-2.39-2.26-3.55.78,1.16,1.53,2.35,2.26,3.55ZM224.25,82.87c-.33-.59-.67-1.18-1.01-1.76.34.59.68,1.17,1.01,1.76ZM77.28,47.38c-1.24.83-2.46,1.7-3.66,2.58,1.2-.89,2.42-1.75,3.66-2.58ZM31.96,142.31l.04.47-.04-.47ZM31.58,135.99c0,.25.02.5.03.76,0-.25-.02-.5-.03-.76ZM31.72,139.1c.01.24.03.47.05.71-.02-.24-.03-.47-.05-.71ZM42.74,179.62c.18.35.36.71.54,1.06-.18-.35-.36-.7-.54-1.06ZM46.58,186.51c.73,1.2,1.48,2.39,2.26,3.55-.78-1.17-1.53-2.35-2.26-3.55ZM44.55,183.02c.33.6.67,1.19,1.02,1.78-.34-.59-.69-1.18-1.02-1.78ZM191.52,218.51c1.24-.83,2.46-1.7,3.67-2.59-1.2.89-2.42,1.75-3.67,2.59ZM209.27,181.77c-3.4,5.19-7.3,10.02-11.67,14.39-4.14,4.14-8.69,7.87-13.58,11.14-4.54,3.04-9.38,5.68-14.45,7.86-5.34,2.29-10.94,4.08-16.75,5.3-5.95,1.25-12.11,1.92-18.43,1.92-5.98,0-11.83-.6-17.48-1.73-5.45-1.08-10.72-2.68-15.76-4.71-5.48-2.2-10.69-4.93-15.57-8.12-5.19-3.4-10.02-7.3-14.39-11.66-4.14-4.14-7.87-8.69-11.14-13.57-3.04-4.54-5.68-9.38-7.86-14.45-2.29-5.34-4.08-10.94-5.3-16.75-1.25-5.95-1.92-12.11-1.92-18.43,0-5.98.6-11.83,1.73-17.48,1.09-5.45,2.68-10.72,4.71-15.76,2.2-5.48,4.93-10.69,8.12-15.57,3.4-5.19,7.3-10.02,11.66-14.39,4.14-4.14,8.69-7.87,13.57-11.14,4.54-3.04,9.38-5.68,14.45-7.86,5.34-2.29,10.94-4.08,16.75-5.3,5.95-1.25,12.11-1.92,18.43-1.92,5.98,0,11.83.6,17.49,1.73,5.45,1.09,10.72,2.68,15.76,4.71,5.48,2.2,10.69,4.93,15.57,8.12,5.19,3.4,10.02,7.3,14.39,11.67,4.14,4.14,7.87,8.69,11.14,13.57,3.05,4.54,5.68,9.38,7.86,14.45,2.29,5.34,4.08,10.94,5.3,16.75,1.25,5.95,1.92,12.11,1.92,18.43,0,5.98-.6,11.83-1.73,17.48-1.08,5.45-2.68,10.72-4.71,15.76-2.2,5.48-4.93,10.69-8.12,15.57ZM236.8,123.13l.04.43-.04-.43ZM237.04,126.11c.02.22.03.45.04.67-.01-.22-.03-.45-.04-.67ZM237.19,129.16c.01.25.02.49.03.74,0-.25-.02-.49-.03-.74Z"/>
      <path class="cls-12" d="M61.66,60.21c2.68-2.68,5.52-5.19,8.48-7.56l-15.28-19.1c-3.67,2.94-7.18,6.05-10.5,9.36-6.15,6.15-11.66,12.93-16.45,20.23l20.46,13.42c3.87-5.9,8.32-11.38,13.29-16.34Z"/>
      <path class="cls-20" d="M214.84,116.01c-1.12-5.34-2.76-10.49-4.87-15.4-2-4.67-4.42-9.11-7.22-13.28-3.01-4.49-6.44-8.67-10.25-12.48-4.02-4.02-8.45-7.6-13.22-10.72-4.49-2.94-9.28-5.44-14.31-7.47-4.64-1.86-9.48-3.33-14.49-4.33-5.2-1.04-10.57-1.59-16.07-1.59-5.81,0-11.47.61-16.94,1.76-5.34,1.12-10.49,2.77-15.4,4.87-4.67,2-9.11,4.43-13.28,7.22-4.49,3.01-8.67,6.43-12.48,10.24-4.01,4.01-7.6,8.45-10.72,13.22-2.94,4.49-5.44,9.28-7.47,14.31-1.87,4.64-3.33,9.48-4.33,14.49-1.03,5.2-1.59,10.57-1.59,16.07,0,5.81.61,11.47,1.76,16.94,1.12,5.34,2.77,10.49,4.87,15.4,2,4.67,4.43,9.11,7.22,13.28,3.01,4.49,6.44,8.67,10.24,12.48,4.02,4.01,8.45,7.6,13.22,10.72,4.49,2.94,9.28,5.44,14.31,7.47,4.64,1.87,9.48,3.33,14.49,4.33,3.92.78,7.93,1.28,12.02,1.49-4.03-.2-7.98-.7-11.83-1.47-4.95-.99-9.73-2.43-14.32-4.28-4.98-2-9.71-4.48-14.14-7.38-4.71-3.08-9.1-6.63-13.07-10.59-3.76-3.76-7.15-7.89-10.12-12.33-2.76-4.13-5.16-8.52-7.14-13.13-2.08-4.85-3.71-9.94-4.82-15.21-1.14-5.4-1.74-11-1.74-16.74,0-5.43.55-10.74,1.57-15.88.99-4.95,2.43-9.73,4.28-14.32,2-4.98,4.48-9.71,7.38-14.14,3.08-4.71,6.63-9.1,10.59-13.07,3.76-3.76,7.89-7.15,12.33-10.12,4.13-2.76,8.52-5.16,13.13-7.14,4.85-2.08,9.94-3.71,15.21-4.82,5.41-1.14,11-1.74,16.74-1.74,5.43,0,10.74.55,15.88,1.57,4.95.99,9.73,2.43,14.32,4.28,4.98,2,9.71,4.48,14.14,7.38,4.71,3.08,9.1,6.63,13.06,10.6,3.76,3.76,7.15,7.89,10.12,12.33,2.76,4.13,5.16,8.52,7.14,13.13,2.08,4.85,3.7,9.94,4.82,15.21,1.14,5.4,1.74,11,1.74,16.74,0,5.43-.54,10.74-1.57,15.88-.98,4.95-2.43,9.73-4.28,14.32-2,4.98-4.47,9.71-7.38,14.14-3.08,4.71-6.63,9.1-10.6,13.07-3.76,3.76-7.89,7.15-12.33,10.12-4.13,2.76-8.51,5.16-13.13,7.14-4.85,2.08-9.94,3.71-15.22,4.82-5.4,1.14-11,1.74-16.74,1.74,5.81,0,11.47-.61,16.94-1.76,5.34-1.12,10.49-2.77,15.4-4.87,4.66-2,9.11-4.43,13.28-7.22,4.49-3.01,8.67-6.44,12.48-10.24,4.02-4.02,7.6-8.45,10.72-13.22,2.94-4.49,5.44-9.28,7.47-14.31,1.86-4.64,3.33-9.48,4.33-14.49,1.04-5.2,1.59-10.57,1.59-16.07,0-5.81-.61-11.47-1.77-16.94Z"/>
      <path class="cls-10" d="M58.17,83.24c-3.3,5.06-6.05,10.38-8.24,15.87-2.08,5.22-3.67,10.6-4.74,16.05-1.16,5.87-1.75,11.83-1.75,17.79,0,6.29.67,12.57,1.96,18.75,1.21,5.81,3,11.52,5.36,17.05,2.17,5.09,4.81,10.03,7.95,14.73,3.26,4.88,7.03,9.52,11.34,13.82,4.55,4.55,9.46,8.5,14.64,11.88,5.06,3.3,10.38,6.05,15.87,8.24,5.22,2.08,10.6,3.67,16.05,4.74,5.87,1.16,11.83,1.75,17.79,1.75,6.29,0,12.57-.67,18.75-1.96,5.81-1.21,11.52-3,17.05-5.36,5.09-2.17,10.03-4.81,14.73-7.96,4.88-3.26,9.52-7.03,13.82-11.34,4.55-4.55,8.5-9.46,11.88-14.64,3.3-5.06,6.04-10.38,8.24-15.87,2.08-5.22,3.66-10.6,4.74-16.05,1.16-5.87,1.75-11.83,1.75-17.79,0-6.29-.67-12.57-1.96-18.75-1.22-5.81-3-11.52-5.36-17.05-2.17-5.09-4.81-10.03-7.95-14.73-3.26-4.88-7.03-9.52-11.34-13.83-4.55-4.54-9.46-8.5-14.64-11.88-5.06-3.3-10.38-6.05-15.87-8.24-5.22-2.08-10.59-3.66-16.05-4.74-5.87-1.16-11.83-1.75-17.79-1.75-6.29,0-12.57.67-18.75,1.96-5.81,1.22-11.52,3-17.05,5.36-5.09,2.17-10.03,4.81-14.73,7.96-4.88,3.26-9.52,7.03-13.83,11.34-4.55,4.55-8.5,9.46-11.88,14.64ZM101.5,56.06c5.08-2.17,10.33-3.81,15.67-4.93,5.68-1.19,11.45-1.8,17.23-1.8,5.48,0,10.96.54,16.35,1.61,5.02.99,9.96,2.45,14.76,4.36,5.05,2.01,9.94,4.54,14.58,7.57,4.76,3.11,9.28,6.74,13.46,10.92,3.96,3.96,7.43,8.22,10.42,12.71,2.89,4.32,5.32,8.86,7.31,13.54,2.17,5.08,3.81,10.33,4.93,15.67,1.19,5.68,1.8,11.45,1.8,17.23,0,5.48-.54,10.96-1.61,16.35-.99,5.02-2.45,9.96-4.36,14.75-2.01,5.05-4.54,9.93-7.57,14.59-3.11,4.76-6.74,9.28-10.92,13.46-3.95,3.96-8.22,7.42-12.71,10.42-4.32,2.89-8.86,5.32-13.54,7.31-5.08,2.17-10.33,3.81-15.67,4.93-5.68,1.19-11.45,1.8-17.23,1.8-5.48,0-10.96-.54-16.35-1.61-5.02-.99-9.96-2.45-14.76-4.36-5.05-2.01-9.93-4.54-14.58-7.57-4.76-3.11-9.28-6.74-13.46-10.92-3.96-3.96-7.43-8.22-10.42-12.71-2.89-4.32-5.32-8.86-7.31-13.54-2.17-5.08-3.81-10.33-4.93-15.67-1.19-5.68-1.8-11.45-1.8-17.23,0-5.48.54-10.96,1.61-16.35.99-5.02,2.45-9.96,4.36-14.76,2.01-5.05,4.54-9.93,7.57-14.59,3.11-4.76,6.74-9.28,10.92-13.46,3.96-3.96,8.22-7.43,12.71-10.42,4.32-2.89,8.86-5.32,13.54-7.31Z"/>
      <path class="cls-11" d="M202.74,87.33l6.01-4.01c-3.27-4.88-7-9.43-11.14-13.57l-5.11,5.11c3.81,3.81,7.24,7.99,10.25,12.48Z"/>
      <path class="cls-13" d="M209.96,100.61l6.65-2.84c-2.18-5.08-4.82-9.91-7.86-14.45l-6.01,4.01c2.8,4.17,5.22,8.62,7.22,13.28Z"/>
      <path class="cls-11" d="M214.84,116.01l7.07-1.49c-1.22-5.81-3.01-11.41-5.3-16.75l-6.65,2.84c2.11,4.91,3.75,10.06,4.87,15.4Z"/>
      <path class="cls-13" d="M192.5,191.04l5.11,5.11c4.37-4.37,8.27-9.2,11.67-14.39l-6.05-3.95c-3.12,4.77-6.71,9.21-10.72,13.22Z"/>
      <path class="cls-13" d="M58.11,102.39l-6.71-2.69c-2.03,5.05-3.62,10.31-4.71,15.76l7.09,1.41c1-5.01,2.46-9.85,4.33-14.49Z"/>
      <path class="cls-11" d="M53.96,149.89l-7.07,1.49c1.22,5.81,3.01,11.41,5.3,16.75l6.64-2.84c-2.11-4.91-3.75-10.06-4.87-15.4Z"/>
      <path class="cls-11" d="M53.79,116.87l-7.09-1.41c-1.13,5.66-1.73,11.5-1.73,17.48h7.23c0-5.5.55-10.87,1.59-16.07Z"/>
      <path class="cls-13" d="M52.2,132.95h-7.23c0,6.32.67,12.48,1.92,18.43l7.07-1.49c-1.15-5.47-1.76-11.13-1.76-16.94Z"/>
      <path class="cls-13" d="M58.84,165.28l-6.64,2.84c2.18,5.07,4.82,9.91,7.86,14.45l6.01-4.01c-2.8-4.17-5.22-8.62-7.22-13.28Z"/>
      <path class="cls-13" d="M76.3,191.04l-5.11,5.11c4.37,4.37,9.2,8.27,14.39,11.66l3.95-6.05c-4.77-3.12-9.21-6.71-13.22-10.72Z"/>
      <path class="cls-11" d="M66.06,178.57l-6.01,4.01c3.27,4.88,7,9.43,11.14,13.57l5.11-5.11c-3.81-3.81-7.24-7.99-10.24-12.48Z"/>
      <path class="cls-11" d="M89.53,201.77l-3.95,6.05c4.88,3.19,10.09,5.92,15.57,8.12l2.69-6.71c-5.04-2.03-9.83-4.53-14.31-7.47Z"/>
      <path class="cls-11" d="M65.58,88.07l-6.05-3.95c-3.19,4.88-5.92,10.09-8.12,15.57l6.71,2.69c2.03-5.04,4.53-9.83,7.47-14.31Z"/>
      <path class="cls-13" d="M134.4,50.74v-7.23c-6.32,0-12.48.67-18.43,1.92l1.49,7.07c5.47-1.15,11.13-1.76,16.94-1.76Z"/>
      <path class="cls-13" d="M102.06,57.38l-2.84-6.64c-5.07,2.18-9.91,4.82-14.45,7.86l4.01,6.01c4.17-2.8,8.62-5.22,13.28-7.22Z"/>
      <path class="cls-11" d="M117.46,52.51l-1.49-7.07c-5.81,1.22-11.41,3.01-16.75,5.3l2.84,6.64c4.91-2.11,10.06-3.75,15.4-4.87Z"/>
      <path class="cls-13" d="M76.3,74.85l-5.11-5.11c-4.37,4.37-8.27,9.2-11.66,14.39l6.05,3.95c3.12-4.77,6.71-9.21,10.72-13.22Z"/>
      <path class="cls-11" d="M88.78,64.61l-4.01-6.01c-4.88,3.27-9.43,7-13.57,11.14l5.11,5.11c3.81-3.81,7.99-7.24,12.48-10.24Z"/>
      <path class="cls-13" d="M214.84,116.01c1.15,5.47,1.77,11.13,1.77,16.94h7.23c0-6.32-.67-12.48-1.92-18.43l-7.07,1.49Z"/>
      <path class="cls-11" d="M215.01,149.02l7.09,1.41c1.13-5.66,1.73-11.5,1.73-17.48h-7.23c0,5.5-.55,10.87-1.59,16.07Z"/>
      <path class="cls-13" d="M192.5,74.85l5.11-5.11c-4.37-4.37-9.2-8.27-14.39-11.67l-3.95,6.05c4.77,3.12,9.21,6.71,13.22,10.72Z"/>
      <path class="cls-13" d="M210.69,163.51l6.71,2.69c2.03-5.05,3.62-10.31,4.71-15.76l-7.09-1.41c-.99,5.01-2.46,9.85-4.33,14.49Z"/>
      <path class="cls-13" d="M103.84,209.23l-2.69,6.71c5.05,2.03,10.31,3.62,15.76,4.71l1.41-7.09c-5.01-1-9.85-2.46-14.49-4.33Z"/>
      <path class="cls-11" d="M179.28,64.13l3.95-6.05c-4.88-3.19-10.09-5.92-15.57-8.12l-2.69,6.71c5.03,2.03,9.83,4.53,14.31,7.47Z"/>
      <path class="cls-13" d="M164.96,56.66l2.69-6.71c-5.05-2.03-10.31-3.62-15.76-4.71l-1.41,7.09c5.01,1,9.85,2.46,14.49,4.33Z"/>
      <path class="cls-11" d="M203.22,177.82l6.05,3.95c3.19-4.88,5.92-10.09,8.12-15.57l-6.71-2.69c-2.02,5.04-4.53,9.83-7.47,14.31Z"/>
      <path class="cls-13" d="M134.4,215.15v7.23c6.32,0,12.48-.67,18.43-1.92l-1.49-7.07c-5.47,1.15-11.14,1.76-16.94,1.76Z"/>
      <path class="cls-11" d="M150.47,52.33l1.41-7.09c-5.66-1.13-11.5-1.73-17.49-1.73v7.23c5.5,0,10.87.55,16.07,1.59Z"/>
      <path class="cls-11" d="M118.33,213.56l-1.41,7.09c5.66,1.13,11.5,1.73,17.48,1.73v-7.23c-5.5,0-10.87-.55-16.07-1.59Z"/>
      <path class="cls-11" d="M151.34,213.38l1.49,7.07c5.81-1.22,11.42-3.01,16.75-5.3l-2.84-6.64c-4.91,2.11-10.06,3.75-15.4,4.87Z"/>
      <path class="cls-13" d="M166.74,208.51l2.84,6.64c5.07-2.18,9.91-4.82,14.45-7.86l-4.01-6.01c-4.18,2.8-8.62,5.22-13.28,7.22Z"/>
      <path class="cls-11" d="M180.02,201.29l4.01,6.01c4.89-3.27,9.43-7,13.58-11.14l-5.11-5.11c-3.81,3.81-7.99,7.24-12.48,10.24Z"/>
      <path class="cls-1" d="M32.82,149.14c.04.27.07.55.12.83-.04-.27-.08-.55-.12-.83Z"/>
      <path class="cls-1" d="M207.14,205.69c4.97-4.97,9.42-10.45,13.29-16.34-3.87,5.9-8.32,11.38-13.29,16.34Z"/>
      <path class="cls-1" d="M104.37,231.34c2.75.84,5.55,1.55,8.39,2.16-2.84-.61-5.64-1.33-8.39-2.16Z"/>
      <path class="cls-1" d="M100.28,230.01c1.11.39,2.23.75,3.36,1.1-1.13-.35-2.25-.71-3.36-1.1Z"/>
      <path class="cls-1" d="M235.86,115.92l.06.4-.06-.4Z"/>
      <path class="cls-19" d="M54.6,68.03c-2.21,2.72-4.28,5.55-6.21,8.48,1.93-2.94,4-5.77,6.21-8.48Z"/>
      <path class="cls-19" d="M58.02,64.04c-1.08,1.2-2.12,2.43-3.15,3.67,1.02-1.25,2.07-2.48,3.15-3.67Z"/>
      <path class="cls-9" d="M20.89,186.44c-.64-1.36-1.28-2.73-1.88-4.11-3.21-7.49-5.71-15.36-7.42-23.52-.71-3.37-1.27-6.79-1.7-10.25l-1.84.23c.44,3.51,1.01,6.99,1.73,10.41,1.74,8.28,4.27,16.26,7.53,23.86.6,1.41,1.25,2.79,1.91,4.18l1.68-.79Z"/>
      <path class="cls-8" d="M223.13,221.68c-3.27,3.27-6.74,6.33-10.35,9.23l1.15,1.45c3.67-2.94,7.18-6.05,10.5-9.36,6.15-6.15,11.66-12.93,16.45-20.23l-1.55-1.02c-4.72,7.19-10.16,13.87-16.22,19.93Z"/>
      <path class="cls-7" d="M87.73,249.45c-5.72-2.29-11.23-5-16.5-8.08l-.93,1.6c5.35,3.12,10.94,5.87,16.75,8.19,6.61,2.65,13.48,4.75,20.58,6.27l.39-1.81c-7-1.5-13.77-3.57-20.28-6.18Z"/>
      <path class="cls-4" d="M249.79,83.57c3.21,7.49,5.71,15.36,7.42,23.52.7,3.37,1.27,6.79,1.7,10.25l1.84-.23c-.43-3.51-1.01-6.99-1.73-10.41-1.73-8.28-4.27-16.26-7.53-23.86-.61-1.41-1.25-2.79-1.91-4.18l-1.68.79c.65,1.36,1.28,2.73,1.88,4.12Z"/>
      <path class="cls-5" d="M181.08,16.44c5.72,2.3,11.23,5,16.5,8.08l.94-1.6c-5.35-3.12-10.94-5.87-16.75-8.2-6.6-2.65-13.49-4.75-20.58-6.27l-.39,1.81c6.99,1.5,13.77,3.57,20.28,6.18Z"/>
      <path class="cls-3" d="M9.89,148.56c-.64-5.11-.97-10.32-.97-15.61,0-8.4.83-16.6,2.41-24.54,1.52-7.65,3.73-15.05,6.57-22.14,3.09-7.7,6.91-15.01,11.39-21.87l.17-.25-1.55-1.02-.17.26c-4.54,6.96-8.43,14.38-11.56,22.19-2.88,7.19-5.13,14.7-6.67,22.46-1.6,8.05-2.44,16.38-2.44,24.9,0,5.37.34,10.65.99,15.84l1.84-.23Z"/>
      <path class="cls-2" d="M71.22,241.37c-1.82-1.06-3.61-2.17-5.36-3.31-7.29-4.76-14.06-10.26-20.19-16.39-5.81-5.81-11.05-12.2-15.64-19.06-3.43-5.13-6.48-10.55-9.14-16.18l-1.68.79c2.7,5.71,5.79,11.21,9.27,16.42,4.66,6.96,9.97,13.44,15.87,19.34,6.22,6.22,13.09,11.79,20.49,16.63,1.78,1.17,3.6,2.29,5.44,3.36l.93-1.6Z"/>
      <path class="cls-6" d="M212.78,230.9c-2.81,2.25-5.71,4.4-8.71,6.41-6.38,4.26-13.16,7.96-20.29,11.01-7.49,3.21-15.36,5.71-23.52,7.42-8.35,1.75-16.99,2.67-25.86,2.67-8.4,0-16.6-.83-24.54-2.41-.62-.12-1.24-.26-1.85-.39l-.39,1.81c.63.14,1.25.27,1.88.4,8.05,1.6,16.38,2.44,24.9,2.44,9,0,17.78-.94,26.25-2.71,8.28-1.74,16.26-4.27,23.86-7.53,7.23-3.1,14.12-6.85,20.59-11.18,3.05-2.04,5.98-4.23,8.84-6.51l-1.15-1.45Z"/>
      <path class="cls-14" d="M260.75,117.11l-1.84.23h0c.63,5.11.97,10.32.97,15.61,0,8.4-.83,16.6-2.41,24.54-1.52,7.65-3.73,15.05-6.57,22.14-3.09,7.7-6.91,15.01-11.39,21.87l-.17.25,1.55,1.02.17-.26c4.55-6.96,8.43-14.38,11.56-22.19,2.88-7.19,5.13-14.7,6.67-22.46,1.6-8.05,2.44-16.38,2.44-24.9,0-5.37-.34-10.65-.99-15.84Z"/>
      <path class="cls-15" d="M197.58,24.52c1.82,1.06,3.61,2.17,5.37,3.31,7.29,4.76,14.05,10.26,20.19,16.39,5.81,5.81,11.06,12.2,15.64,19.06,3.43,5.13,6.48,10.55,9.13,16.18l1.68-.79c-2.7-5.71-5.79-11.21-9.27-16.42-4.66-6.96-9.97-13.44-15.87-19.34-6.22-6.22-13.09-11.8-20.49-16.63-1.79-1.17-3.6-2.29-5.44-3.36l-.94,1.6Z"/>
      <path class="cls-16" d="M56.02,34.99c2.81-2.25,5.71-4.41,8.71-6.41,6.38-4.27,13.16-7.96,20.29-11.02,7.49-3.21,15.36-5.71,23.51-7.42,8.35-1.75,17-2.67,25.87-2.67,8.4,0,16.6.83,24.54,2.4.62.12,1.23.26,1.85.39l.39-1.81c-.63-.13-1.25-.27-1.88-.4-8.05-1.6-16.38-2.44-24.9-2.44-9,0-17.78.94-26.25,2.71-8.28,1.74-16.26,4.27-23.86,7.53-7.23,3.1-14.12,6.85-20.59,11.18-3.05,2.04-5.98,4.22-8.84,6.51l1.16,1.45Z"/>
      <path class="cls-17" d="M45.67,44.22c3.27-3.27,6.74-6.33,10.35-9.23l-1.16-1.45c-3.67,2.94-7.18,6.05-10.5,9.36-6.15,6.15-11.66,12.93-16.45,20.23l1.55,1.02c4.72-7.19,10.16-13.87,16.22-19.93Z"/>
      <path class="cls-19" d="M156.27,240.26c0-2.86,2.33-5.19,5.19-5.19s5.19,2.32,5.19,5.19-2.33,5.19-5.19,5.19-5.19-2.32-5.19-5.19Z"/>
      <path class="cls-19" d="M103.63,25.63c0-2.87,2.32-5.19,5.19-5.19s5.19,2.32,5.19,5.19-2.32,5.19-5.19,5.19-5.19-2.32-5.19-5.19Z"/>
      <path class="cls-19" d="M20.6,113.48c0-2.87,2.32-5.19,5.19-5.19s5.19,2.32,5.19,5.19-2.32,5.19-5.19,5.19-5.19-2.32-5.19-5.19Z"/>
      <path class="cls-19" d="M49.51,209.49c0-2.87,2.32-5.19,5.19-5.19s5.19,2.32,5.19,5.19-2.32,5.19-5.19,5.19-5.19-2.32-5.19-5.19Z"/>
      <path class="cls-19" d="M236.34,158.34c0-2.87,2.33-5.19,5.19-5.19s5.19,2.32,5.19,5.19-2.33,5.19-5.19,5.19-5.19-2.32-5.19-5.19Z"/>
      <path class="cls-19" d="M210.77,59.36c0-2.87,2.32-5.19,5.19-5.19s5.19,2.32,5.19,5.19-2.32,5.19-5.19,5.19-5.19-2.32-5.19-5.19Z"/>
      <path class="cls-18" d="M203.26,177.84c2.98-4.57,5.46-9.37,7.44-14.33,1.88-4.72,3.31-9.57,4.29-14.5,1.05-5.3,1.58-10.68,1.58-16.07,0-5.68-.6-11.35-1.77-16.93-1.1-5.25-2.71-10.41-4.84-15.4-1.96-4.6-4.35-9.06-7.19-13.3-.66-.99-1.35-1.96-2.06-2.93-.22-.3-.44-.59-.67-.89-.52-.69-1.05-1.37-1.6-2.05-.24-.31-.49-.61-.74-.92-.69-.84-1.41-1.67-2.14-2.48l-.25-.29c-.9-1-1.83-1.98-2.79-2.94-1.01-1.01-2.05-2-3.1-2.94h0s0,0,0,0h0s-.26-.23-.26-.23c-.87-.78-1.77-1.54-2.67-2.28-.32-.26-.65-.52-.97-.78-.71-.57-1.44-1.12-2.17-1.66-.31-.23-.63-.47-.94-.7-1.03-.74-2.06-1.46-3.11-2.14-4.57-2.98-9.37-5.46-14.33-7.44-4.72-1.88-9.57-3.31-14.5-4.28-5.3-1.05-10.68-1.58-16.07-1.58-5.68,0-11.35.6-16.93,1.77-5.25,1.1-10.41,2.71-15.4,4.84-4.6,1.96-9.06,4.35-13.3,7.18-4.41,2.95-8.6,6.35-12.49,10.24-4.11,4.11-7.68,8.55-10.73,13.23-2.98,4.57-5.46,9.37-7.44,14.33-1.88,4.72-3.31,9.57-4.28,14.5-1.05,5.3-1.58,10.68-1.58,16.07,0,5.68.6,11.35,1.77,16.93,1.1,5.25,2.71,10.41,4.84,15.4,1.96,4.6,4.35,9.06,7.19,13.3.66.99,1.35,1.96,2.06,2.93.22.3.44.59.67.89.52.69,1.05,1.37,1.6,2.05.25.3.49.61.74.91.7.84,1.41,1.67,2.14,2.49.98,1.09,1.99,2.17,3.04,3.22,4.11,4.1,8.55,7.68,13.23,10.73,4.57,2.98,9.37,5.46,14.33,7.44,4.72,1.88,9.57,3.31,14.5,4.28,5.3,1.05,10.68,1.58,16.07,1.58,5.68,0,11.36-.6,16.93-1.77,5.25-1.1,10.41-2.71,15.4-4.84,4.6-1.96,9.05-4.35,13.3-7.18,4.41-2.95,8.6-6.35,12.49-10.24,4.11-4.11,7.68-8.55,10.73-13.23ZM201.32,85.25c-.14-.2-.29-.41-.43-.61.15.2.29.41.43.61ZM199.74,83.1c-.38-.49-.76-.99-1.15-1.47.39.49.77.98,1.15,1.47ZM197.63,80.44c-.66-.8-1.34-1.59-2.04-2.37.7.78,1.37,1.57,2.04,2.37ZM189.13,71.63c-.83-.75-1.68-1.47-2.54-2.17.86.71,1.71,1.43,2.54,2.17ZM185.32,68.44c-.52-.41-1.04-.81-1.56-1.2.52.39,1.05.79,1.56,1.2ZM182.14,66.04c-.21-.15-.42-.29-.63-.44.21.15.42.29.63.44ZM67.48,180.64c.15.21.29.42.44.62-.15-.21-.29-.41-.44-.62ZM69.06,182.79c.38.5.76.99,1.15,1.48-.39-.49-.77-.98-1.15-1.48ZM71.17,185.46c.66.8,1.34,1.59,2.04,2.37-.7-.78-1.38-1.57-2.04-2.37Z"/>
      <path class="cls-1" d="M213.12,116.37c-1.1-5.23-2.71-10.27-4.77-15.07-1.96-4.56-4.33-8.91-7.07-13-2.94-4.39-6.3-8.49-10.03-12.21-3.93-3.93-8.27-7.44-12.94-10.49-4.39-2.87-9.08-5.33-14.01-7.31-4.54-1.83-9.27-3.26-14.18-4.23-1.14-.23-2.29-.42-3.45-.6-.36-.06-.72-.1-1.08-.15-.84-.12-1.68-.22-2.52-.31-.38-.04-.76-.08-1.15-.12-1.06-.1-2.13-.18-3.2-.24l-.37-.03c-1.31-.07-2.63-.1-3.96-.1-1.4,0-2.8.04-4.19.11h0s0,0,0,0h0s-.34.02-.34.02c-1.15.06-2.29.16-3.42.27-.4.04-.8.09-1.21.13-.89.1-1.77.22-2.65.35-.38.06-.76.11-1.14.17-1.22.2-2.43.41-3.63.67-5.23,1.1-10.26,2.71-15.07,4.77-4.57,1.96-8.91,4.33-13,7.07-4.39,2.94-8.48,6.3-12.21,10.02-3.93,3.93-7.44,8.27-10.49,12.94-2.87,4.39-5.33,9.08-7.31,14.01-1.83,4.54-3.26,9.28-4.23,14.18-1.01,5.09-1.56,10.35-1.56,15.73,0,5.68.6,11.23,1.73,16.58,1.1,5.23,2.71,10.27,4.77,15.07,1.96,4.57,4.33,8.91,7.07,13,2.94,4.39,6.3,8.49,10.02,12.21,3.93,3.93,8.27,7.44,12.94,10.49,4.39,2.87,9.08,5.33,14.01,7.31,4.54,1.83,9.28,3.26,14.18,4.23,1.14.23,2.29.42,3.45.6.36.06.72.1,1.07.15.84.12,1.68.22,2.52.31.38.04.76.09,1.14.12,1.06.1,2.13.18,3.2.24,1.43.08,2.88.12,4.33.12,5.68,0,11.23-.6,16.58-1.73,5.23-1.1,10.26-2.71,15.07-4.77,4.56-1.96,8.91-4.33,13-7.07,4.39-2.94,8.48-6.3,12.21-10.02,3.93-3.93,7.44-8.27,10.49-12.94,2.87-4.39,5.33-9.08,7.31-14.01,1.82-4.54,3.26-9.28,4.24-14.18,1.01-5.09,1.55-10.35,1.55-15.73,0-5.68-.6-11.23-1.73-16.58ZM147.7,53.64c-.24-.04-.48-.09-.72-.13.24.04.48.09.72.13ZM145.13,53.24c-.6-.08-1.21-.16-1.81-.23.61.07,1.21.14,1.81.23ZM141.82,52.86c-1.01-.09-2.03-.17-3.05-.23,1.02.06,2.04.13,3.05.23ZM129.84,52.64c-1.09.06-2.18.15-3.27.26,1.08-.11,2.17-.19,3.27-.26ZM125,53.08c-.64.08-1.28.16-1.91.25.64-.09,1.27-.18,1.91-.25ZM121.14,53.62c-.25.04-.49.09-.74.14.25-.04.49-.09.74-.14ZM121.09,212.25c.24.04.49.09.73.13-.25-.04-.49-.09-.73-.13ZM123.68,212.65c.6.08,1.21.16,1.82.23-.61-.07-1.22-.14-1.82-.23ZM126.98,213.03c1.01.09,2.03.17,3.06.23-1.02-.06-2.04-.13-3.06-.23Z"/>
    </g>
  </g>
</svg>