<?xml version="1.0" encoding="UTF-8"?>
<svg xmlns="http://www.w3.org/2000/svg" xmlns:xlink="http://www.w3.org/1999/xlink" version="1.1" viewBox="0 0 265.89 265.89">
  <defs>
    <style>
      .cls-1 {
        fill: url(#linear-gradient-8);
      }

      .cls-2 {
        fill: url(#linear-gradient-7);
      }

      .cls-3 {
        fill: url(#linear-gradient-5);
      }

      .cls-4 {
        fill: url(#linear-gradient-6);
      }

      .cls-5 {
        fill: url(#linear-gradient-9);
      }

      .cls-6 {
        fill: url(#linear-gradient-4);
      }

      .cls-7 {
        fill: url(#linear-gradient-3);
      }

      .cls-8 {
        fill: url(#linear-gradient-2);
      }

      .cls-9 {
        fill: #262326;
      }

      .cls-10 {
        fill: url(#linear-gradient);
      }

      .cls-11 {
        fill: #f8f5f6;
      }

      .cls-12 {
        fill: #e3dedd;
      }

      .cls-13 {
        fill: #36363a;
      }

      .cls-14 {
        fill: url(#linear-gradient-10);
      }

      .cls-15 {
        fill: url(#linear-gradient-11);
      }

      .cls-16 {
        fill: url(#linear-gradient-12);
      }

      .cls-17 {
        fill: url(#linear-gradient-13);
      }

      .cls-18 {
        fill: url(#linear-gradient-19);
      }

      .cls-19 {
        fill: url(#linear-gradient-14);
      }

      .cls-20 {
        fill: url(#linear-gradient-15);
      }

      .cls-21 {
        fill: url(#linear-gradient-16);
      }

      .cls-22 {
        fill: url(#linear-gradient-17);
      }

      .cls-23 {
        fill: url(#linear-gradient-18);
      }

      .cls-24 {
        fill: #f9f8f7;
      }

      .cls-25 {
        fill: #1b181c;
      }
    </style>
    <linearGradient id="linear-gradient" x1="-229.85" y1="391.71" x2="-227.84" y2="391.71" gradientTransform="translate(-20635.83 -35419.77) rotate(-180) scale(90.76 -90.76)" gradientUnits="userSpaceOnUse">
      <stop offset="0" stop-color="#737476"/>
      <stop offset=".4" stop-color="#4a494c"/>
      <stop offset=".79" stop-color="#282529"/>
      <stop offset="1" stop-color="#1b181c"/>
    </linearGradient>
    <linearGradient id="linear-gradient-2" x1="-306.73" y1="392.89" x2="-304.72" y2="392.89" gradientTransform="translate(1592.81 1300.33) rotate(-16.5) scale(3.91 -3.91)" gradientUnits="userSpaceOnUse">
      <stop offset="0" stop-color="#8e8e90"/>
      <stop offset=".08" stop-color="#9a9a9c"/>
      <stop offset=".37" stop-color="#c5c5c6"/>
      <stop offset=".63" stop-color="#e5e5e5"/>
      <stop offset=".85" stop-color="#f8f8f8"/>
      <stop offset="1" stop-color="#fff"/>
    </linearGradient>
    <linearGradient id="linear-gradient-3" x1="-225.74" y1="416.4" x2="-223.73" y2="416.4" gradientTransform="translate(1262.19 -3237.03) rotate(-135) scale(7.62 -7.62)" xlink:href="#linear-gradient-2"/>
    <linearGradient id="linear-gradient-4" x1="-281.84" y1="437.34" x2="-279.83" y2="437.34" gradientTransform="translate(2110.68 -163.86) rotate(-68.89) scale(3.97 -3.97)" xlink:href="#linear-gradient-2"/>
    <linearGradient id="linear-gradient-5" x1="-208.79" y1="391.6" x2="-206.78" y2="391.6" gradientTransform="translate(-1758.19 -2225.03) rotate(167) scale(6.94 -6.94)" xlink:href="#linear-gradient-2"/>
    <linearGradient id="linear-gradient-6" x1="-221.85" y1="364.72" x2="-219.83" y2="364.72" gradientTransform="translate(-2727.99 459.27) rotate(112.44) scale(6.9 -6.9)" xlink:href="#linear-gradient-2"/>
    <linearGradient id="linear-gradient-7" x1="-194.8" y1="405.58" x2="-192.79" y2="405.58" gradientTransform="translate(-715.39 -3004.31) rotate(-167.59) scale(7.1 -7.1)" gradientUnits="userSpaceOnUse">
      <stop offset="0" stop-color="#fff"/>
      <stop offset=".11" stop-color="#fdfdfd"/>
      <stop offset="1" stop-color="#f0f0f0"/>
    </linearGradient>
    <linearGradient id="linear-gradient-8" x1="-194.8" y1="405.58" x2="-192.79" y2="405.58" gradientTransform="translate(-715.39 -3004.31) rotate(-167.59) scale(7.1 -7.1)" gradientUnits="userSpaceOnUse">
      <stop offset="0" stop-color="#555558"/>
      <stop offset=".15" stop-color="#525255"/>
      <stop offset="1" stop-color="#464548"/>
    </linearGradient>
    <linearGradient id="linear-gradient-9" x1="-268.18" y1="393.11" x2="-266.17" y2="393.11" gradientTransform="translate(3223.43 2198.88) rotate(-23.86) scale(7.89 -7.89)" xlink:href="#linear-gradient-7"/>
    <linearGradient id="linear-gradient-10" x1="-268.18" y1="397.67" x2="-266.17" y2="397.67" gradientTransform="translate(3223.43 2198.88) rotate(-23.86) scale(7.89 -7.89)" gradientUnits="userSpaceOnUse">
      <stop offset="0" stop-color="#faf6f7"/>
      <stop offset=".11" stop-color="#f8f4f5"/>
      <stop offset="1" stop-color="#ebe8e8"/>
    </linearGradient>
    <linearGradient id="linear-gradient-11" x1="-268.18" y1="393.12" x2="-266.17" y2="393.12" gradientTransform="translate(3223.43 2198.88) rotate(-23.86) scale(7.89 -7.89)" xlink:href="#linear-gradient-8"/>
    <linearGradient id="linear-gradient-12" x1="-236.16" y1="388.91" x2="-234.15" y2="388.91" gradientTransform="translate(12632.94 20873.66) scale(53.04 -53.04)" gradientUnits="userSpaceOnUse">
      <stop offset="0" stop-color="#1b181c"/>
      <stop offset="1" stop-color="#1b181c"/>
    </linearGradient>
    <linearGradient id="linear-gradient-13" x1="-228.18" y1="407.21" x2="-226.17" y2="407.21" gradientTransform="translate(2158.22 -4386.23) rotate(-128.07) scale(10.57 -10.57)" gradientUnits="userSpaceOnUse">
      <stop offset="0" stop-color="#1b181c"/>
      <stop offset=".32" stop-color="#1d1a1e"/>
      <stop offset=".54" stop-color="#252327"/>
      <stop offset=".72" stop-color="#343235"/>
      <stop offset=".88" stop-color="#48474a"/>
      <stop offset="1" stop-color="#5b5c5e"/>
    </linearGradient>
    <linearGradient id="linear-gradient-14" x1="-208.3" y1="386.63" x2="-206.29" y2="386.63" gradientTransform="translate(-1942.05 -2193.73) rotate(164.16) scale(7.11 -7.11)" gradientUnits="userSpaceOnUse">
      <stop offset="0" stop-color="#484749"/>
      <stop offset=".53" stop-color="#555456"/>
      <stop offset="1" stop-color="#5a595b"/>
    </linearGradient>
    <linearGradient id="linear-gradient-15" x1="-213.74" y1="447.79" x2="-211.73" y2="447.79" gradientTransform="translate(1552.81 -1301.87) rotate(-106.64) scale(3.94 -3.94)" xlink:href="#linear-gradient-7"/>
    <linearGradient id="linear-gradient-16" x1="-213.73" y1="434.01" x2="-211.72" y2="434.01" gradientTransform="translate(1552.81 -1301.87) rotate(-106.64) scale(3.94 -3.94)" xlink:href="#linear-gradient-10"/>
    <linearGradient id="linear-gradient-17" x1="-213.74" y1="447.79" x2="-211.73" y2="447.79" gradientTransform="translate(1552.81 -1301.87) rotate(-106.64) scale(3.94 -3.94)" xlink:href="#linear-gradient-8"/>
    <linearGradient id="linear-gradient-18" x1="-254.42" y1="368.36" x2="-252.41" y2="368.36" gradientTransform="translate(-507.69 3787.97) rotate(42.81) scale(8.46 -8.46)" xlink:href="#linear-gradient-2"/>
    <linearGradient id="linear-gradient-19" x1="-233.66" y1="388.68" x2="-231.64" y2="388.68" gradientTransform="translate(-8914.26 36167.66) rotate(45) scale(82.02 -82.02)" xlink:href="#linear-gradient"/>
  </defs>
  <!-- Generator: Adobe Illustrator 28.7.1, SVG Export Plug-In . SVG Version: 1.2.0 Build 142)  -->
  <g>
    <g id="Capa_3">
      <path class="cls-25" d="M45.83,133.86c0-49.49,40.12-89.61,89.61-89.61s89.61,40.12,89.61,89.61-40.12,89.61-89.61,89.61-89.61-40.12-89.61-89.61Z"/>
      <path class="cls-11" d="M39.52,173.16c-2.64-6.16-4.7-12.63-6.1-19.34-.58-2.77-1.04-5.58-1.4-8.43l-24.35,3.05c.44,3.52,1.01,7.01,1.73,10.44,1.74,8.3,4.29,16.31,7.56,23.94.61,1.41,1.26,2.8,1.91,4.19l22.2-10.46c-.53-1.12-1.06-2.24-1.54-3.38h0Z"/>
      <path class="cls-11" d="M241.22,202.58l-20.53-13.46c-3.88,5.91-8.35,11.41-13.33,16.39-2.69,2.69-5.54,5.21-8.51,7.59l15.33,19.16c3.68-2.95,7.21-6.07,10.53-9.39,6.17-6.17,11.7-12.97,16.5-20.29Z"/>
      <path class="cls-11" d="M96.02,228.36c-4.7-1.89-9.24-4.11-13.57-6.64l-12.36,21.21c5.36,3.13,10.97,5.88,16.8,8.22,6.62,2.66,13.52,4.77,20.65,6.29l5.17-24.01c-5.75-1.23-11.33-2.92-16.69-5.06h0Z"/>
      <path class="cls-11" d="M229.28,91.95c2.64,6.16,4.7,12.63,6.1,19.34.58,2.77,1.05,5.58,1.4,8.43l24.35-3.05c-.44-3.53-1.01-7.01-1.73-10.44-1.74-8.3-4.29-16.31-7.55-23.94-.61-1.41-1.26-2.8-1.91-4.19l-22.2,10.46c.53,1.12,1.05,2.24,1.54,3.38Z"/>
      <path class="cls-11" d="M172.78,36.75c4.7,1.89,9.24,4.11,13.57,6.64l12.36-21.21c-5.36-3.13-10.97-5.89-16.8-8.22-6.62-2.66-13.53-4.77-20.65-6.29l-5.17,24.01c5.75,1.23,11.33,2.92,16.69,5.06h0Z"/>
      <path class="cls-13" d="M261.04,116.68l-24.33,3.05h0c-.35-2.84-.82-5.65-1.4-8.43-1.4-6.7-3.46-13.17-6.1-19.32-.49-1.14-1.02-2.27-1.55-3.39h0s22.18-10.45,22.18-10.45c-2.71-5.73-5.8-11.23-9.29-16.45-4.67-6.98-10-13.47-15.91-19.38-6.24-6.24-13.12-11.82-20.53-16.67-1.79-1.17-3.61-2.29-5.46-3.37l-12.35,21.19h0c-4.33-2.53-8.86-4.75-13.56-6.64-5.35-2.14-10.92-3.83-16.67-5.06l5.16-24c-.63-.14-1.25-.27-1.88-.4-8.07-1.6-16.42-2.45-24.96-2.45-9.02,0-17.82.94-26.31,2.72-8.3,1.74-16.3,4.28-23.92,7.55-7.25,3.11-14.15,6.87-20.64,11.2-3.05,2.04-5.99,4.24-8.86,6.52l15.32,19.14c-2.97,2.38-5.82,4.9-8.5,7.58-5.04,5.04-9.55,10.6-13.46,16.59l.14-.21-20.51-13.45-.17.26c-4.56,6.97-8.45,14.41-11.59,22.24-2.89,7.2-5.14,14.73-6.68,22.51-1.6,8.07-2.45,16.42-2.45,24.96,0,5.38.34,10.68.99,15.88l24.33-3.05v-.02c.35,2.85.82,5.67,1.4,8.45,1.41,6.7,3.46,13.17,6.1,19.32.49,1.14,1.02,2.26,1.54,3.38l-22.18,10.45c2.71,5.73,5.8,11.23,9.3,16.45,4.67,6.98,10,13.47,15.91,19.38,6.24,6.23,13.12,11.82,20.53,16.67,1.79,1.17,3.61,2.29,5.46,3.37l12.35-21.19h0c4.33,2.53,8.86,4.75,13.56,6.64,5.82,2.33,11.9,4.15,18.19,5.4-.51-.1-1.01-.23-1.52-.34l-5.16,23.99c.63.13,1.25.27,1.88.4,8.07,1.6,16.42,2.45,24.96,2.45,9.02,0,17.82-.94,26.31-2.72,8.3-1.74,16.3-4.28,23.92-7.55,7.25-3.11,14.15-6.87,20.64-11.2,3.06-2.04,6-4.23,8.86-6.53l-15.32-19.14c2.97-2.38,5.82-4.9,8.5-7.58,4.98-4.98,9.44-10.47,13.32-16.38l20.51,13.45.17-.26c4.56-6.97,8.45-14.41,11.59-22.24,2.89-7.2,5.14-14.73,6.68-22.51,1.6-8.07,2.45-16.42,2.45-24.96,0-5.38-.34-10.67-.99-15.88h0ZM226.28,85.77c-.18-.35-.36-.71-.54-1.06.18.35.36.7.54,1.06h0ZM222.43,78.86c-.73-1.2-1.48-2.39-2.26-3.56.78,1.17,1.53,2.36,2.26,3.56h0ZM224.46,82.36c-.33-.59-.67-1.18-1.01-1.77.34.59.68,1.17,1.01,1.77h0ZM77.15,46.79c-1.24.83-2.46,1.7-3.67,2.59,1.2-.89,2.42-1.75,3.67-2.59h0ZM31.73,141.94l.04.47-.04-.47h0ZM31.34,135.61c0,.25.02.5.03.76-.01-.25-.02-.5-.03-.76h0ZM31.48,138.72c.01.24.03.47.05.71-.02-.24-.03-.47-.05-.71h0ZM42.53,179.34c.18.35.36.71.54,1.06-.18-.35-.37-.71-.54-1.06h0ZM46.37,186.24c.73,1.2,1.48,2.39,2.27,3.56-.78-1.17-1.53-2.36-2.27-3.56h0ZM44.34,182.74c.33.6.68,1.19,1.02,1.78-.35-.59-.69-1.18-1.02-1.78h0ZM191.65,218.32c1.25-.83,2.47-1.71,3.68-2.59-1.21.89-2.43,1.76-3.68,2.59h0ZM209.45,181.49c-3.4,5.2-7.31,10.04-11.69,14.42-4.15,4.15-8.71,7.89-13.61,11.17-4.55,3.05-9.4,5.69-14.49,7.88-5.35,2.3-10.97,4.09-16.79,5.31-5.96,1.26-12.14,1.92-18.47,1.92-6,0-11.86-.6-17.53-1.73-5.46-1.09-10.74-2.68-15.8-4.72-5.49-2.21-10.71-4.94-15.61-8.14-5.2-3.4-10.04-7.31-14.42-11.69-4.15-4.15-7.89-8.71-11.17-13.61-3.05-4.55-5.69-9.4-7.88-14.48-2.3-5.35-4.09-10.97-5.31-16.79-1.26-5.96-1.92-12.14-1.92-18.47,0-6,.6-11.86,1.73-17.53,1.09-5.46,2.68-10.74,4.72-15.8,2.21-5.49,4.94-10.71,8.14-15.61,3.4-5.2,7.31-10.04,11.69-14.42,4.15-4.15,8.71-7.89,13.61-11.17,4.55-3.05,9.4-5.69,14.48-7.88,5.35-2.3,10.97-4.09,16.79-5.32,5.96-1.25,12.14-1.92,18.48-1.92,6,0,11.86.6,17.53,1.73,5.46,1.09,10.74,2.68,15.8,4.72,5.49,2.21,10.71,4.94,15.61,8.14,5.2,3.4,10.04,7.31,14.42,11.69,4.15,4.15,7.89,8.71,11.17,13.61,3.05,4.55,5.69,9.4,7.88,14.48,2.3,5.35,4.09,10.97,5.32,16.79,1.25,5.96,1.92,12.14,1.92,18.47,0,6-.6,11.86-1.73,17.53-1.09,5.46-2.68,10.74-4.72,15.8-2.21,5.49-4.94,10.71-8.14,15.61h0ZM237.04,122.71l.04.43-.04-.43h0ZM237.28,125.7c.01.22.03.45.04.67-.01-.22-.03-.45-.04-.67h0ZM237.43,128.76c0,.25.02.49.03.74,0-.25-.02-.49-.03-.74h0Z"/>
      <path class="cls-11" d="M61.44,59.59c2.69-2.69,5.54-5.21,8.51-7.59l-15.33-19.16c-3.68,2.94-7.21,6.07-10.53,9.39-6.17,6.17-11.7,12.97-16.5,20.29l20.53,13.46c3.88-5.91,8.35-11.41,13.33-16.39h0Z"/>
      <path class="cls-10" d="M101.4,55.44c5.1-2.17,10.36-3.82,15.72-4.94,5.7-1.19,11.49-1.81,17.28-1.81,5.49,0,10.99.54,16.4,1.61,5.03,1,9.99,2.45,14.8,4.37,5.06,2.02,9.96,4.55,14.63,7.6,4.78,3.12,9.31,6.76,13.5,10.95,3.97,3.97,7.45,8.25,10.45,12.75,2.9,4.34,5.33,8.89,7.34,13.58,2.17,5.1,3.82,10.36,4.94,15.72,1.19,5.69,1.81,11.49,1.81,17.28,0,5.5-.54,10.99-1.61,16.4-1,5.03-2.45,9.99-4.37,14.8-2.02,5.06-4.55,9.96-7.59,14.63-3.12,4.78-6.76,9.31-10.95,13.5-3.97,3.97-8.25,7.45-12.75,10.45-4.34,2.9-8.89,5.33-13.58,7.34-5.1,2.17-10.36,3.82-15.72,4.94-5.69,1.19-11.49,1.81-17.28,1.81-5.5,0-10.99-.54-16.4-1.61-5.03-.99-9.99-2.45-14.8-4.37-5.06-2.02-9.97-4.55-14.63-7.59-4.78-3.12-9.31-6.76-13.5-10.95-3.97-3.97-7.45-8.25-10.46-12.75-2.9-4.34-5.33-8.89-7.33-13.58-2.17-5.1-3.82-10.36-4.94-15.72-1.19-5.69-1.8-11.49-1.8-17.28,0-5.5.54-10.99,1.61-16.4,1-5.03,2.45-9.99,4.37-14.8,2.02-5.06,4.55-9.96,7.6-14.63,3.12-4.78,6.76-9.31,10.95-13.5,3.97-3.97,8.25-7.45,12.75-10.46,4.34-2.9,8.89-5.33,13.58-7.33ZM210.87,182.42c3.31-5.08,6.07-10.41,8.26-15.92,2.09-5.24,3.68-10.63,4.76-16.1,1.17-5.89,1.76-11.86,1.76-17.84,0-6.31-.67-12.61-1.96-18.8-1.22-5.83-3.01-11.56-5.38-17.1-2.18-5.11-4.83-10.06-7.98-14.77-3.27-4.9-7.05-9.55-11.37-13.87-4.56-4.56-9.49-8.53-14.69-11.92-5.08-3.31-10.41-6.06-15.92-8.26-5.24-2.09-10.63-3.68-16.1-4.76-5.89-1.17-11.86-1.76-17.84-1.76-6.31,0-12.61.67-18.8,1.96-5.83,1.22-11.56,3.01-17.1,5.38-5.11,2.18-10.06,4.83-14.78,7.98-4.9,3.27-9.55,7.05-13.87,11.37-4.56,4.56-8.53,9.49-11.92,14.69-3.31,5.08-6.07,10.41-8.26,15.92-2.09,5.24-3.68,10.63-4.76,16.1-1.17,5.89-1.76,11.86-1.76,17.84,0,6.31.67,12.61,1.96,18.8,1.22,5.83,3.01,11.56,5.38,17.1,2.18,5.11,4.83,10.06,7.98,14.78,3.27,4.9,7.06,9.55,11.37,13.87,4.56,4.56,9.49,8.53,14.69,11.92,5.08,3.31,10.41,6.07,15.92,8.26,5.24,2.09,10.63,3.68,16.1,4.76,5.88,1.17,11.86,1.76,17.84,1.76,6.3,0,12.61-.67,18.8-1.96,5.83-1.22,11.56-3.01,17.1-5.38,5.11-2.18,10.06-4.83,14.78-7.98,4.89-3.27,9.55-7.05,13.87-11.37,4.56-4.56,8.53-9.49,11.92-14.69Z"/>
      <path class="cls-9" d="M202.95,86.79l6.03-4.02c-3.28-4.9-7.02-9.46-11.18-13.62l-5.13,5.12c3.82,3.82,7.26,8.01,10.27,12.52Z"/>
      <path class="cls-12" d="M210.2,100.12l6.66-2.85c-2.19-5.09-4.83-9.94-7.88-14.5l-6.03,4.02c2.8,4.19,5.23,8.64,7.25,13.32Z"/>
      <path class="cls-9" d="M215.08,115.56l7.1-1.49c-1.23-5.83-3.02-11.45-5.32-16.8l-6.66,2.85c2.11,4.92,3.76,10.09,4.89,15.44Z"/>
      <path class="cls-12" d="M192.68,190.83l5.12,5.12c4.38-4.38,8.3-9.23,11.7-14.43l-6.07-3.96c-3.13,4.78-6.73,9.24-10.75,13.26Z"/>
      <path class="cls-12" d="M57.88,101.9l-6.73-2.7c-2.04,5.06-3.63,10.35-4.72,15.81l7.11,1.42c1-5.02,2.47-9.88,4.34-14.53Z"/>
      <path class="cls-9" d="M53.72,149.55l-7.09,1.49c1.23,5.83,3.02,11.45,5.32,16.8l6.66-2.85c-2.11-4.92-3.76-10.09-4.89-15.44Z"/>
      <path class="cls-9" d="M53.54,116.43l-7.11-1.42c-1.13,5.67-1.73,11.54-1.73,17.54h7.25c0-5.52.55-10.9,1.59-16.12Z"/>
      <path class="cls-12" d="M51.95,132.56h-7.25c0,6.34.67,12.52,1.93,18.49l7.09-1.49c-1.15-5.49-1.77-11.17-1.77-16.99Z"/>
      <path class="cls-12" d="M58.6,164.99l-6.66,2.85c2.19,5.09,4.83,9.94,7.88,14.5l6.03-4.03c-2.8-4.19-5.23-8.64-7.25-13.32Z"/>
      <path class="cls-12" d="M76.12,190.83l-5.12,5.12c4.38,4.38,9.23,8.29,14.43,11.7l3.96-6.07c-4.78-3.13-9.24-6.73-13.26-10.75Z"/>
      <path class="cls-9" d="M65.85,178.32l-6.03,4.03c3.28,4.9,7.02,9.46,11.18,13.62l5.12-5.12c-3.82-3.82-7.26-8.01-10.27-12.52Z"/>
      <path class="cls-9" d="M89.39,201.59l-3.96,6.07c4.9,3.2,10.13,5.94,15.62,8.15l2.7-6.73c-5.05-2.03-9.86-4.54-14.36-7.49Z"/>
      <path class="cls-9" d="M65.37,87.54l-6.07-3.96c-3.2,4.9-5.94,10.12-8.15,15.62l6.73,2.7c2.03-5.05,4.55-9.86,7.49-14.36Z"/>
      <path class="cls-12" d="M134.4,50.1v-7.25c-6.34,0-12.52.67-18.49,1.93l1.49,7.09c5.49-1.15,11.17-1.77,17-1.77Z"/>
      <path class="cls-12" d="M101.96,56.76l-2.85-6.66c-5.09,2.19-9.94,4.83-14.49,7.88l4.02,6.03c4.19-2.8,8.65-5.24,13.32-7.25Z"/>
      <path class="cls-9" d="M117.41,51.87l-1.49-7.09c-5.83,1.23-11.45,3.02-16.8,5.32l2.85,6.66c4.92-2.11,10.09-3.76,15.44-4.89Z"/>
      <path class="cls-12" d="M76.12,74.28l-5.12-5.12c-4.38,4.38-8.29,9.23-11.7,14.43l6.07,3.96c3.13-4.78,6.73-9.24,10.75-13.26Z"/>
      <path class="cls-9" d="M88.64,64.01l-4.02-6.03c-4.9,3.28-9.46,7.02-13.62,11.18l5.12,5.12c3.82-3.82,8.01-7.26,12.52-10.27Z"/>
      <path class="cls-12" d="M215.08,115.56c1.16,5.49,1.77,11.17,1.77,16.99h7.25c0-6.34-.67-12.52-1.92-18.49l-7.1,1.49Z"/>
      <path class="cls-9" d="M215.26,148.68l7.11,1.42c1.13-5.67,1.73-11.54,1.73-17.54h-7.25c0,5.52-.55,10.9-1.59,16.12Z"/>
      <path class="cls-12" d="M192.68,74.28l5.13-5.12c-4.38-4.38-9.23-8.29-14.43-11.7l-3.96,6.07c4.78,3.13,9.24,6.73,13.26,10.75Z"/>
      <path class="cls-12" d="M210.92,163.21l6.73,2.7c2.03-5.06,3.63-10.34,4.72-15.81l-7.11-1.42c-1,5.02-2.47,9.88-4.34,14.53Z"/>
      <path class="cls-12" d="M103.75,209.08l-2.7,6.73c5.06,2.04,10.34,3.63,15.81,4.72l1.42-7.11c-5.02-1-9.88-2.47-14.53-4.34Z"/>
      <path class="cls-9" d="M179.41,63.52l3.96-6.07c-4.9-3.2-10.12-5.94-15.62-8.15l-2.7,6.73c5.05,2.03,9.86,4.54,14.36,7.49Z"/>
      <path class="cls-12" d="M165.06,56.03l2.7-6.73c-5.06-2.04-10.34-3.63-15.81-4.72l-1.42,7.11c5.02,1,9.88,2.47,14.53,4.34Z"/>
      <path class="cls-9" d="M203.43,177.57l6.07,3.96c3.2-4.9,5.94-10.12,8.15-15.62l-6.73-2.7c-2.03,5.05-4.54,9.86-7.49,14.36Z"/>
      <path class="cls-12" d="M134.4,215.01v7.25c6.34,0,12.52-.67,18.49-1.92l-1.49-7.1c-5.49,1.15-11.17,1.77-16.99,1.77Z"/>
      <path class="cls-9" d="M150.52,51.69l1.42-7.11c-5.67-1.13-11.54-1.73-17.54-1.73v7.25c5.52,0,10.91.55,16.12,1.59Z"/>
      <path class="cls-9" d="M118.28,213.42l-1.42,7.11c5.67,1.13,11.54,1.73,17.54,1.73v-7.25c-5.52,0-10.9-.55-16.12-1.59Z"/>
      <path class="cls-9" d="M151.39,213.24l1.49,7.1c5.83-1.23,11.45-3.02,16.8-5.32l-2.85-6.67c-4.92,2.11-10.09,3.76-15.44,4.89Z"/>
      <path class="cls-12" d="M166.84,208.35l2.85,6.67c5.09-2.19,9.94-4.83,14.49-7.88l-4.03-6.03c-4.19,2.8-8.64,5.23-13.32,7.25Z"/>
      <path class="cls-9" d="M180.16,201.11l4.03,6.03c4.9-3.28,9.46-7.02,13.62-11.18l-5.12-5.12c-3.82,3.82-8.01,7.26-12.52,10.27Z"/>
      <path class="cls-9" d="M32.51,148.8c.04.28.07.55.12.83-.05-.27-.08-.55-.12-.83Z"/>
      <path class="cls-9" d="M207.36,205.52c4.98-4.98,9.45-10.48,13.33-16.39-3.88,5.91-8.35,11.41-13.33,16.39Z"/>
      <path class="cls-9" d="M104.28,231.25c2.76.84,5.56,1.56,8.42,2.17-2.85-.61-5.66-1.33-8.42-2.17Z"/>
      <path class="cls-9" d="M100.17,229.91c1.11.39,2.24.75,3.37,1.1-1.13-.35-2.26-.71-3.37-1.1Z"/>
      <path class="cls-9" d="M236.17,115.48l.06.4-.06-.4Z"/>
      <path class="cls-24" d="M54.36,67.44c-2.22,2.72-4.29,5.57-6.23,8.51,1.93-2.94,4.01-5.78,6.23-8.51Z"/>
      <path class="cls-24" d="M57.79,63.44c-1.08,1.2-2.13,2.43-3.16,3.69,1.02-1.25,2.07-2.48,3.16-3.69Z"/>
      <path class="cls-8" d="M9.51,148.21l-1.75.22h-.09c.44,3.54,1.01,7.02,1.73,10.45,1.74,8.3,4.29,16.31,7.56,23.94.61,1.41,1.26,2.8,1.91,4.19h0l1.68-.79c-.64-1.37-1.29-2.74-1.88-4.13-3.22-7.51-5.73-15.4-7.44-23.59-.71-3.38-1.28-6.81-1.71-10.29h0Z"/>
      <path class="cls-7" d="M223.4,221.56c-3.28,3.28-6.76,6.35-10.38,9.26l1.16,1.45c3.68-2.95,7.21-6.07,10.53-9.39,6.17-6.17,11.7-12.97,16.5-20.29l-1.55-1.02c-4.74,7.21-10.19,13.92-16.27,19.99Z"/>
      <path class="cls-6" d="M71.03,241.32l-.94,1.61h0c5.36,3.13,10.97,5.88,16.8,8.22,6.62,2.66,13.52,4.77,20.65,6.29l.02-.09.04-.18.33-1.54c-7.02-1.5-13.82-3.58-20.35-6.2-5.74-2.3-11.27-5.02-16.55-8.1h0Z"/>
      <path class="cls-3" d="M250.14,83.02c3.22,7.51,5.73,15.4,7.44,23.59.71,3.38,1.27,6.81,1.71,10.29l1.84-.23c-.44-3.53-1.01-7.01-1.73-10.44-1.74-8.3-4.29-16.31-7.55-23.94-.61-1.41-1.26-2.8-1.91-4.19l-1.68.79c.65,1.37,1.29,2.74,1.88,4.13Z"/>
      <path class="cls-4" d="M161.26,7.67h0l-.1.47-.29,1.35c7.02,1.5,13.82,3.58,20.35,6.2,5.74,2.3,11.27,5.02,16.55,8.1h0s.87-1.5.87-1.5l.06-.11c-5.36-3.13-10.97-5.89-16.8-8.22-6.62-2.66-13.53-4.77-20.65-6.29h0Z"/>
      <path class="cls-2" d="M27.58,62.53l-.17.26c-4.56,6.98-8.45,14.43-11.59,22.26-2.89,7.21-5.14,14.74-6.69,22.53-1.6,8.08-2.45,16.43-2.45,24.98,0,5.38.34,10.68.99,15.89h.09c-.65-5.21-.99-10.51-.99-15.89,0-8.54.85-16.89,2.45-24.96,1.54-7.78,3.79-15.31,6.68-22.51,3.14-7.83,7.03-15.27,11.59-22.24l.17-.26-.08-.05h0Z"/>
      <path class="cls-1" d="M27.66,62.58l-.17.26c-4.56,6.97-8.45,14.41-11.59,22.24-2.89,7.2-5.14,14.73-6.68,22.51-1.6,8.07-2.45,16.42-2.45,24.96,0,5.38.34,10.67.99,15.88l1.75-.22c-.64-5.13-.98-10.35-.98-15.66,0-8.42.83-16.65,2.41-24.61,1.52-7.68,3.74-15.1,6.59-22.2,3.09-7.72,6.94-15.06,11.43-21.94l.17-.26-1.47-.97h0Z"/>
      <path class="cls-5" d="M18.95,186.97l-.08.04c2.71,5.73,5.8,11.24,9.3,16.47,4.67,6.98,10.01,13.48,15.92,19.4,6.24,6.24,13.13,11.83,20.55,16.68,1.79,1.17,3.61,2.29,5.46,3.38l.94-1.61h0l-.89,1.53c-1.85-1.08-3.67-2.2-5.46-3.37-7.41-4.84-14.3-10.43-20.53-16.67-5.91-5.91-11.24-12.41-15.91-19.38-3.49-5.22-6.59-10.73-9.3-16.45h0Z"/>
      <path class="cls-14" d="M18.95,186.97l-.08.04h0l.08-.04h0ZM20.55,186.21h0l-.31.14.31-.14h0Z"/>
      <path class="cls-15" d="M20.55,186.21l-.31.14-1.29.61h0c2.71,5.73,5.8,11.23,9.3,16.45,4.67,6.98,10,13.47,15.91,19.38,6.24,6.23,13.12,11.82,20.53,16.67,1.79,1.17,3.61,2.29,5.46,3.37l.89-1.53c-1.82-1.06-3.62-2.17-5.38-3.32-7.31-4.78-14.1-10.29-20.25-16.44-5.83-5.83-11.09-12.24-15.69-19.11-3.45-5.15-6.5-10.58-9.17-16.23h0Z"/>
      <path class="cls-16" d="M213.02,230.81c-2.82,2.26-5.72,4.42-8.74,6.43-6.4,4.28-13.2,7.99-20.36,11.05-7.51,3.22-15.4,5.73-23.59,7.44-8.37,1.75-17.05,2.68-25.94,2.68-8.42,0-16.65-.83-24.61-2.41-.62-.12-1.24-.26-1.86-.39l-.39,1.82c.63.14,1.25.27,1.88.4,8.08,1.6,16.43,2.45,24.98,2.45,9.02,0,17.83-.94,26.33-2.72,8.3-1.74,16.31-4.29,23.94-7.55,7.25-3.11,14.16-6.87,20.65-11.21,3.06-2.05,6-4.24,8.87-6.53l-1.16-1.45Z"/>
      <path class="cls-17" d="M261.14,116.67l-1.84.23h0c.64,5.13.98,10.35.98,15.66,0,8.42-.83,16.65-2.42,24.61-1.52,7.68-3.74,15.1-6.59,22.2-3.1,7.72-6.93,15.06-11.43,21.94l-.17.26,1.55,1.02.17-.26c4.56-6.98,8.45-14.43,11.59-22.26,2.89-7.21,5.14-14.74,6.69-22.53,1.6-8.08,2.45-16.43,2.45-24.98,0-5.38-.34-10.68-.99-15.89Z"/>
      <path class="cls-19" d="M197.77,23.79c1.82,1.06,3.62,2.17,5.38,3.32,7.31,4.78,14.1,10.29,20.25,16.44,5.83,5.83,11.09,12.24,15.69,19.12,3.44,5.15,6.5,10.58,9.16,16.23l1.68-.79c-2.71-5.73-5.8-11.24-9.3-16.47-4.67-6.98-10-13.48-15.92-19.4-6.24-6.24-13.13-11.83-20.55-16.68-1.79-1.17-3.61-2.29-5.46-3.37l-.93,1.61Z"/>
      <path class="cls-20" d="M134.4,4.83c-9.03,0-17.83.94-26.33,2.72-8.3,1.74-16.31,4.29-23.93,7.55-7.26,3.11-14.16,6.87-20.66,11.21-3.06,2.04-6,4.24-8.86,6.53l.06.07c2.86-2.29,5.81-4.48,8.86-6.52,6.49-4.34,13.39-8.1,20.64-11.2,7.62-3.27,15.62-5.81,23.92-7.55,8.49-1.78,17.29-2.72,26.31-2.72,8.54,0,16.89.85,24.96,2.45.63.13,1.26.26,1.88.4l.02-.09c-.63-.13-1.25-.27-1.88-.4-8.08-1.6-16.43-2.45-24.98-2.45h0Z"/>
      <path class="cls-21" d="M161.16,8.14l-.29,1.35h0l.29-1.35h0ZM161.26,7.67l-.02.09h0l.02-.09h0Z"/>
      <path class="cls-22" d="M134.4,4.92c-9.02,0-17.82.94-26.31,2.72-8.3,1.74-16.3,4.28-23.92,7.55-7.25,3.11-14.15,6.87-20.64,11.2-3.05,2.04-5.99,4.23-8.86,6.52l1.11,1.38c2.82-2.26,5.72-4.42,8.73-6.43,6.39-4.28,13.2-7.99,20.35-11.05,7.51-3.22,15.41-5.73,23.59-7.44,8.37-1.75,17.05-2.68,25.94-2.68,8.42,0,16.65.83,24.61,2.41.62.12,1.24.26,1.86.39l.29-1.35.08-.37h0c-.63-.14-1.25-.27-1.88-.4-8.07-1.6-16.42-2.45-24.96-2.45h0Z"/>
      <path class="cls-23" d="M45.4,43.55c3.28-3.28,6.76-6.35,10.38-9.26l-1.16-1.45c-3.68,2.94-7.21,6.07-10.53,9.39-6.17,6.17-11.7,12.97-16.5,20.29l1.55,1.02c4.74-7.21,10.19-13.91,16.27-19.99Z"/>
      <path class="cls-24" d="M156.34,240.2c0-2.87,2.33-5.2,5.2-5.2s5.21,2.33,5.21,5.2-2.33,5.21-5.21,5.21-5.2-2.33-5.2-5.21Z"/>
      <path class="cls-24" d="M103.54,24.91c0-2.87,2.33-5.21,5.21-5.21s5.21,2.33,5.21,5.21-2.33,5.21-5.21,5.21-5.21-2.33-5.21-5.21Z"/>
      <path class="cls-24" d="M20.25,113.03c0-2.87,2.33-5.21,5.21-5.21s5.21,2.33,5.21,5.21-2.33,5.21-5.21,5.21-5.21-2.33-5.21-5.21Z"/>
      <path class="cls-24" d="M49.25,209.34c0-2.87,2.33-5.2,5.21-5.2s5.2,2.33,5.2,5.2-2.33,5.21-5.2,5.21-5.21-2.33-5.21-5.21Z"/>
      <path class="cls-24" d="M236.66,158.03c0-2.87,2.33-5.21,5.21-5.21s5.21,2.33,5.21,5.21-2.33,5.21-5.21,5.21-5.21-2.33-5.21-5.21Z"/>
      <path class="cls-24" d="M211,58.75c0-2.87,2.33-5.21,5.21-5.21s5.21,2.33,5.21,5.21-2.33,5.21-5.21,5.21-5.21-2.33-5.21-5.21Z"/>
      <path class="cls-18" d="M203.47,177.59c2.99-4.58,5.48-9.4,7.46-14.38,1.89-4.73,3.32-9.6,4.3-14.54,1.05-5.32,1.59-10.71,1.59-16.12,0-5.69-.6-11.39-1.77-16.98-1.1-5.27-2.72-10.44-4.86-15.45-1.97-4.61-4.36-9.08-7.21-13.35-.66-.99-1.36-1.97-2.07-2.94-.22-.3-.44-.59-.67-.89-.52-.69-1.05-1.38-1.6-2.05-.25-.31-.49-.61-.74-.92-.7-.84-1.41-1.67-2.14-2.49l-.25-.29c-.9-1-1.84-1.98-2.8-2.95-1.02-1.02-2.06-2-3.11-2.95h0s0,0,0,0h0s-.26-.23-.26-.23c-.88-.79-1.77-1.54-2.68-2.29-.32-.26-.65-.52-.97-.78-.72-.57-1.44-1.13-2.18-1.67-.32-.23-.63-.47-.95-.7-1.03-.74-2.06-1.46-3.11-2.15-4.58-2.99-9.4-5.48-14.38-7.46-4.73-1.89-9.6-3.32-14.54-4.3-5.32-1.05-10.72-1.59-16.12-1.59-5.7,0-11.39.61-16.98,1.77-5.27,1.1-10.44,2.72-15.45,4.86-4.61,1.97-9.09,4.36-13.35,7.21-4.42,2.95-8.62,6.37-12.53,10.27-4.12,4.12-7.7,8.57-10.76,13.27-2.99,4.58-5.48,9.4-7.46,14.38-1.89,4.73-3.32,9.6-4.3,14.54-1.05,5.32-1.58,10.71-1.58,16.12,0,5.7.6,11.39,1.77,16.98,1.1,5.27,2.72,10.44,4.86,15.45,1.97,4.61,4.36,9.08,7.21,13.35.66.99,1.36,1.97,2.07,2.94.22.3.45.59.67.89.52.69,1.05,1.38,1.6,2.06.25.31.49.61.74.92.7.84,1.41,1.68,2.15,2.5.99,1.1,1.99,2.17,3.05,3.23,4.12,4.12,8.57,7.7,13.27,10.76,4.58,2.99,9.4,5.48,14.38,7.47,4.73,1.89,9.6,3.32,14.55,4.3,5.32,1.05,10.71,1.59,16.12,1.59,5.69,0,11.39-.6,16.98-1.77,5.27-1.1,10.44-2.72,15.45-4.86,4.61-1.97,9.08-4.36,13.34-7.21,4.42-2.95,8.63-6.37,12.53-10.27,4.12-4.12,7.7-8.57,10.76-13.27ZM201.52,84.71c-.15-.2-.28-.41-.43-.62.15.2.29.41.43.62ZM199.94,82.56c-.38-.5-.76-.99-1.15-1.48.39.49.77.98,1.15,1.48ZM197.82,79.88c-.66-.8-1.34-1.59-2.04-2.37.7.78,1.38,1.57,2.04,2.37ZM189.3,71.05c-.84-.75-1.69-1.47-2.55-2.18.86.71,1.72,1.43,2.55,2.18ZM185.48,67.85c-.52-.41-1.04-.81-1.57-1.2.53.39,1.05.8,1.57,1.2ZM182.28,65.45c-.21-.15-.42-.29-.63-.44.21.15.42.29.63.44ZM67.27,180.39c.15.21.29.42.44.62-.15-.21-.29-.42-.44-.62ZM68.86,182.55c.38.5.76.99,1.15,1.48-.39-.49-.77-.99-1.15-1.48ZM70.98,185.23c.67.8,1.35,1.6,2.05,2.38-.7-.78-1.38-1.58-2.05-2.38Z"/>
      <path class="cls-13" d="M213.36,115.93c-1.11-5.24-2.72-10.3-4.78-15.11-1.97-4.58-4.35-8.94-7.09-13.04-2.95-4.41-6.32-8.51-10.05-12.25-3.94-3.94-8.3-7.46-12.98-10.52-4.41-2.88-9.11-5.34-14.05-7.33-4.56-1.83-9.3-3.27-14.22-4.25-1.15-.23-2.3-.42-3.46-.6-.36-.06-.72-.1-1.08-.16-.84-.12-1.68-.22-2.53-.31-.38-.04-.77-.09-1.15-.12-1.06-.1-2.13-.18-3.21-.24l-.37-.03c-1.32-.07-2.64-.1-3.98-.1-1.41,0-2.81.04-4.2.11h0s0,0,0,0h0s-.34.02-.34.02c-1.15.06-2.29.16-3.43.27-.4.04-.81.09-1.21.13-.89.1-1.78.22-2.66.35-.38.06-.76.11-1.14.17-1.22.2-2.44.42-3.64.67-5.24,1.1-10.3,2.72-15.11,4.78-4.58,1.97-8.94,4.35-13.04,7.09-4.41,2.95-8.51,6.32-12.25,10.05-3.94,3.94-7.46,8.3-10.52,12.98-2.88,4.4-5.34,9.11-7.33,14.05-1.83,4.55-3.27,9.31-4.25,14.22-1.02,5.11-1.56,10.38-1.56,15.78,0,5.7.6,11.26,1.73,16.63,1.1,5.24,2.72,10.3,4.78,15.11,1.97,4.58,4.35,8.94,7.09,13.04,2.95,4.41,6.32,8.51,10.05,12.25,3.94,3.94,8.3,7.46,12.98,10.52,4.41,2.88,9.11,5.34,14.05,7.33,4.55,1.83,9.3,3.27,14.22,4.25,1.14.23,2.3.42,3.46.6.36.06.72.1,1.08.15.84.12,1.68.22,2.53.32.38.04.76.09,1.15.12,1.07.1,2.14.18,3.21.24,1.44.08,2.89.12,4.34.12,5.7,0,11.26-.6,16.63-1.73,5.24-1.1,10.3-2.71,15.11-4.78,4.58-1.97,8.94-4.35,13.04-7.09,4.41-2.95,8.51-6.32,12.25-10.05,3.94-3.94,7.46-8.3,10.52-12.98,2.88-4.4,5.34-9.11,7.33-14.05,1.83-4.55,3.27-9.31,4.25-14.22,1.02-5.11,1.56-10.38,1.56-15.78,0-5.7-.6-11.26-1.73-16.63ZM147.74,53c-.24-.04-.48-.09-.72-.13.24.04.48.09.72.13ZM145.16,52.61c-.6-.08-1.21-.16-1.82-.23.61.07,1.22.14,1.82.23ZM141.84,52.22c-1.02-.09-2.03-.17-3.06-.23,1.02.06,2.04.13,3.06.23ZM124.98,52.44c-.64.08-1.28.16-1.92.25.64-.09,1.28-.18,1.92-.25ZM121.1,52.99c-.25.04-.49.09-.74.14.25-.04.49-.09.74-.14ZM121.05,212.11c.25.04.49.09.74.13-.25-.04-.49-.09-.74-.13ZM126.96,212.89c1.02.09,2.04.17,3.07.23-1.03-.06-2.05-.13-3.07-.23Z"/>
    </g>
  </g>
</svg>