<?xml version="1.0" encoding="UTF-8"?>
<svg xmlns="http://www.w3.org/2000/svg" xmlns:xlink="http://www.w3.org/1999/xlink" version="1.1" viewBox="0 0 265.89 265.89">
  <defs>
    <style>
      .cls-1 {
        fill: #343336;
      }

      .cls-2 {
        fill: #f0edee;
      }

      .cls-3 {
        fill: url(#linear-gradient-8);
      }

      .cls-4 {
        fill: url(#linear-gradient-7);
      }

      .cls-5 {
        fill: url(#linear-gradient-5);
      }

      .cls-6 {
        fill: url(#linear-gradient-6);
      }

      .cls-7 {
        fill: url(#linear-gradient-9);
      }

      .cls-8 {
        fill: url(#linear-gradient-4);
      }

      .cls-9 {
        fill: url(#linear-gradient-3);
      }

      .cls-10 {
        fill: url(#linear-gradient-2);
      }

      .cls-11 {
        fill: #262326;
      }

      .cls-12 {
        fill: url(#linear-gradient);
      }

      .cls-13 {
        fill: #fff;
      }

      .cls-14 {
        fill: #e3dedd;
      }

      .cls-15 {
        fill: url(#linear-gradient-10);
      }

      .cls-16 {
        fill: url(#linear-gradient-11);
      }

      .cls-17 {
        fill: url(#linear-gradient-12);
      }

      .cls-18 {
        fill: url(#linear-gradient-13);
      }

      .cls-19 {
        fill: url(#linear-gradient-19);
      }

      .cls-20 {
        fill: url(#linear-gradient-14);
      }

      .cls-21 {
        fill: url(#linear-gradient-21);
      }

      .cls-22 {
        fill: url(#linear-gradient-20);
      }

      .cls-23 {
        fill: url(#linear-gradient-22);
      }

      .cls-24 {
        fill: url(#linear-gradient-23);
      }

      .cls-25 {
        fill: url(#linear-gradient-28);
      }

      .cls-26 {
        fill: url(#linear-gradient-25);
      }

      .cls-27 {
        fill: url(#linear-gradient-30);
      }

      .cls-28 {
        fill: url(#linear-gradient-15);
      }

      .cls-29 {
        fill: url(#linear-gradient-16);
      }

      .cls-30 {
        fill: url(#linear-gradient-17);
      }

      .cls-31 {
        fill: url(#linear-gradient-18);
      }

      .cls-32 {
        fill: url(#linear-gradient-27);
      }

      .cls-33 {
        fill: url(#linear-gradient-24);
      }

      .cls-34 {
        fill: url(#linear-gradient-26);
      }

      .cls-35 {
        fill: url(#linear-gradient-29);
      }

      .cls-36 {
        fill: #f9f8f7;
      }
    </style>
    <linearGradient id="linear-gradient" x1="-229.85" y1="389.81" x2="-227.85" y2="389.81" gradientTransform="translate(-20636.13 -35247.82) rotate(-180) scale(90.76 -90.76)" gradientUnits="userSpaceOnUse">
      <stop offset="0" stop-color="#fff"/>
      <stop offset=".13" stop-color="#fbfafb"/>
      <stop offset=".26" stop-color="#efeeef"/>
      <stop offset=".39" stop-color="#dbdadb"/>
      <stop offset=".53" stop-color="#bebebf"/>
      <stop offset=".66" stop-color="#9a999b"/>
      <stop offset=".79" stop-color="#6e6c6f"/>
      <stop offset=".93" stop-color="#3b383c"/>
      <stop offset="1" stop-color="#1b181c"/>
    </linearGradient>
    <linearGradient id="linear-gradient-2" x1="-294.11" y1="435.1" x2="-292.1" y2="435.1" gradientTransform="translate(1592.12 1471.81) rotate(-16.5) scale(3.9 -3.9)" gradientUnits="userSpaceOnUse">
      <stop offset="0" stop-color="#fff"/>
      <stop offset=".11" stop-color="#fdfdfd"/>
      <stop offset="1" stop-color="#f0f0f0"/>
    </linearGradient>
    <linearGradient id="linear-gradient-3" x1="-294.11" y1="435.1" x2="-292.1" y2="435.1" gradientTransform="translate(1592.12 1471.81) rotate(-16.5) scale(3.9 -3.9)" gradientUnits="userSpaceOnUse">
      <stop offset="0" stop-color="#525254"/>
      <stop offset=".16" stop-color="#4f4e51"/>
      <stop offset="1" stop-color="#434245"/>
    </linearGradient>
    <linearGradient id="linear-gradient-4" x1="-294.11" y1="435.1" x2="-292.1" y2="435.1" gradientTransform="translate(1592.12 1471.81) rotate(-16.5) scale(3.9 -3.9)" gradientUnits="userSpaceOnUse">
      <stop offset="0" stop-color="#f3f0f1"/>
      <stop offset=".16" stop-color="#efeced"/>
      <stop offset="1" stop-color="#e3e0e1"/>
    </linearGradient>
    <linearGradient id="linear-gradient-5" x1="-209.78" y1="397.8" x2="-207.78" y2="397.8" gradientTransform="translate(1262.93 -3067.76) rotate(-135) scale(7.63 -7.63)" xlink:href="#linear-gradient-2"/>
    <linearGradient id="linear-gradient-6" x1="-209.78" y1="400.42" x2="-207.77" y2="400.42" gradientTransform="translate(1262.93 -3067.76) rotate(-135) scale(7.63 -7.63)" xlink:href="#linear-gradient-3"/>
    <linearGradient id="linear-gradient-7" x1="-209.78" y1="400.42" x2="-207.78" y2="400.42" gradientTransform="translate(1262.93 -3067.76) rotate(-135) scale(7.63 -7.63)" xlink:href="#linear-gradient-4"/>
    <linearGradient id="linear-gradient-8" x1="-241.33" y1="447.9" x2="-239.32" y2="447.9" gradientTransform="translate(2110.22 8.39) rotate(-68.89) scale(3.97 -3.97)" xlink:href="#linear-gradient-2"/>
    <linearGradient id="linear-gradient-9" x1="-241.33" y1="452.91" x2="-239.32" y2="452.91" gradientTransform="translate(2110.22 8.39) rotate(-68.89) scale(3.97 -3.97)" xlink:href="#linear-gradient-3"/>
    <linearGradient id="linear-gradient-10" x1="-214.35" y1="370.32" x2="-212.34" y2="370.32" gradientTransform="translate(-1758.19 -2052.83) rotate(167) scale(6.94 -6.94)" xlink:href="#linear-gradient-2"/>
    <linearGradient id="linear-gradient-11" x1="-214.35" y1="367.45" x2="-212.34" y2="367.45" gradientTransform="translate(-1758.19 -2052.83) rotate(167) scale(6.94 -6.94)" xlink:href="#linear-gradient-3"/>
    <linearGradient id="linear-gradient-12" x1="-214.35" y1="370.31" x2="-212.34" y2="370.31" gradientTransform="translate(-1471.42 -2287.84) rotate(174.18) scale(6.94 -6.94)" xlink:href="#linear-gradient-4"/>
    <linearGradient id="linear-gradient-13" x1="-244.83" y1="358.12" x2="-242.82" y2="358.12" gradientTransform="translate(-2727.2 631.42) rotate(112.44) scale(6.9 -6.9)" xlink:href="#linear-gradient-2"/>
    <linearGradient id="linear-gradient-14" x1="-244.83" y1="355.23" x2="-242.82" y2="355.23" gradientTransform="translate(-2727.2 631.42) rotate(112.44) scale(6.9 -6.9)" xlink:href="#linear-gradient-3"/>
    <linearGradient id="linear-gradient-15" x1="-244.83" y1="358.11" x2="-242.82" y2="358.11" gradientTransform="translate(-2727.2 631.42) rotate(112.44) scale(6.9 -6.9)" xlink:href="#linear-gradient-4"/>
    <linearGradient id="linear-gradient-16" x1="-250.24" y1="387.91" x2="-248.23" y2="387.91" gradientTransform="translate(-293.25 7992.23) rotate(34.89) scale(17.13 -17.13)" gradientUnits="userSpaceOnUse">
      <stop offset="0" stop-color="#fff"/>
      <stop offset="1" stop-color="#f9f9f9"/>
    </linearGradient>
    <linearGradient id="linear-gradient-17" x1="-250.24" y1="387.92" x2="-248.23" y2="387.92" gradientTransform="translate(-293.25 7992.23) rotate(34.89) scale(17.13 -17.13)" gradientUnits="userSpaceOnUse">
      <stop offset="0" stop-color="#f3f0f1"/>
      <stop offset="1" stop-color="#eceaea"/>
    </linearGradient>
    <linearGradient id="linear-gradient-18" x1="-250.24" y1="390.3" x2="-248.23" y2="390.3" gradientTransform="translate(-293.25 7992.23) rotate(34.89) scale(17.13 -17.13)" gradientUnits="userSpaceOnUse">
      <stop offset="0" stop-color="#525254"/>
      <stop offset="1" stop-color="#4b4a4d"/>
    </linearGradient>
    <linearGradient id="linear-gradient-19" x1="-244.44" y1="398.42" x2="-242.44" y2="398.42" gradientTransform="translate(6723.41 6353.17) rotate(-16.02) scale(19.43 -19.43)" xlink:href="#linear-gradient-2"/>
    <linearGradient id="linear-gradient-20" x1="-244.44" y1="396.7" x2="-242.44" y2="396.7" gradientTransform="translate(6723.41 6353.17) rotate(-16.02) scale(19.43 -19.43)" xlink:href="#linear-gradient-3"/>
    <linearGradient id="linear-gradient-21" x1="-244.44" y1="398.42" x2="-242.44" y2="398.42" gradientTransform="translate(6723.41 6353.17) rotate(-16.02) scale(19.43 -19.43)" xlink:href="#linear-gradient-4"/>
    <linearGradient id="linear-gradient-22" x1="-222.57" y1="411.91" x2="-220.57" y2="411.91" gradientTransform="translate(3526.46 -2439.16) rotate(-100.41) scale(9.21 -9.21)" gradientUnits="userSpaceOnUse">
      <stop offset="0" stop-color="#bbbcbd"/>
      <stop offset="1" stop-color="#dfe0e0"/>
    </linearGradient>
    <linearGradient id="linear-gradient-23" x1="-217.99" y1="389.11" x2="-215.98" y2="389.11" gradientTransform="translate(-226.22 -5607.67) rotate(-155.62) scale(12.99 -12.99)" gradientUnits="userSpaceOnUse">
      <stop offset="0" stop-color="#c3c3c5"/>
      <stop offset=".16" stop-color="#cacacc"/>
      <stop offset=".66" stop-color="#dededf"/>
      <stop offset="1" stop-color="#e5e5e6"/>
    </linearGradient>
    <linearGradient id="linear-gradient-24" x1="-230.08" y1="384.11" x2="-228.08" y2="384.11" gradientTransform="translate(-12191.15 -6894.27) rotate(150.01) scale(31.82 -31.82)" gradientUnits="userSpaceOnUse">
      <stop offset="0" stop-color="#8e8e90"/>
      <stop offset=".08" stop-color="#9a9a9c"/>
      <stop offset=".37" stop-color="#c5c5c6"/>
      <stop offset=".63" stop-color="#e5e5e5"/>
      <stop offset=".85" stop-color="#f8f8f8"/>
      <stop offset="1" stop-color="#fff"/>
    </linearGradient>
    <linearGradient id="linear-gradient-25" x1="-172.01" y1="435.23" x2="-170" y2="435.23" gradientTransform="translate(1552.97 -1129.75) rotate(-106.64) scale(3.94 -3.94)" xlink:href="#linear-gradient-2"/>
    <linearGradient id="linear-gradient-26" x1="-172.01" y1="421.48" x2="-170" y2="421.48" gradientTransform="translate(1567.04 1130.56) rotate(-28.76) scale(3.94 -3.94)" xlink:href="#linear-gradient-3"/>
    <linearGradient id="linear-gradient-27" x1="-172.01" y1="435.23" x2="-170" y2="435.23" gradientTransform="translate(1552.97 -1129.75) rotate(-106.64) scale(3.94 -3.94)" xlink:href="#linear-gradient-4"/>
    <linearGradient id="linear-gradient-28" x1="-172.01" y1="449" x2="-170" y2="449" gradientTransform="translate(1552.97 -1129.75) rotate(-106.64) scale(3.94 -3.94)" xlink:href="#linear-gradient-3"/>
    <linearGradient id="linear-gradient-29" x1="-268.19" y1="383.29" x2="-266.19" y2="383.29" gradientTransform="translate(-507.26 3958.06) rotate(42.81) scale(8.46 -8.46)" xlink:href="#linear-gradient-3"/>
    <linearGradient id="linear-gradient-30" x1="-235.13" y1="390.16" x2="-233.13" y2="390.16" gradientTransform="translate(-8914.26 36339.86) rotate(45) scale(82.02 -82.02)" xlink:href="#linear-gradient"/>
  </defs>
  <!-- Generator: Adobe Illustrator 28.7.1, SVG Export Plug-In . SVG Version: 1.2.0 Build 142)  -->
  <g>
    <g id="Capa_2">
      <path class="cls-13" d="M46.28,134.08c0-49.37,40.02-89.39,89.39-89.39s89.39,40.02,89.39,89.39-40.02,89.39-89.39,89.39-89.39-40.02-89.39-89.39Z"/>
      <path class="cls-1" d="M39.97,173.28c-2.63-6.15-4.68-12.6-6.09-19.29-.58-2.76-1.04-5.57-1.4-8.41l-24.29,3.05c.44,3.52,1.01,6.99,1.73,10.41,1.74,8.28,4.28,16.27,7.53,23.88.61,1.41,1.25,2.8,1.91,4.18l22.15-10.44c-.53-1.12-1.05-2.23-1.54-3.37h0Z"/>
      <path class="cls-1" d="M241.18,202.63l-20.48-13.42c-3.87,5.9-8.33,11.38-13.3,16.35-2.68,2.68-5.53,5.2-8.49,7.57l15.29,19.11c3.67-2.94,7.19-6.05,10.51-9.37,6.15-6.15,11.67-12.94,16.47-20.24h0Z"/>
      <path class="cls-1" d="M96.34,228.34c-4.69-1.88-9.21-4.1-13.54-6.63l-12.33,21.15c5.35,3.12,10.95,5.87,16.76,8.2,6.61,2.65,13.49,4.76,20.6,6.27l5.15-23.95c-5.74-1.23-11.3-2.91-16.64-5.05h0Z"/>
      <path class="cls-1" d="M229.27,92.27c2.63,6.15,4.69,12.6,6.09,19.29.58,2.77,1.04,5.57,1.4,8.41l24.29-3.05c-.44-3.52-1.01-6.99-1.73-10.41-1.74-8.28-4.28-16.27-7.54-23.88-.6-1.41-1.25-2.8-1.91-4.18l-22.14,10.44c.53,1.12,1.05,2.24,1.54,3.38h0Z"/>
      <path class="cls-1" d="M172.91,37.21c4.69,1.88,9.21,4.11,13.54,6.63l12.33-21.15c-5.35-3.12-10.94-5.87-16.76-8.2-6.61-2.65-13.49-4.76-20.6-6.28l-5.15,23.95c5.74,1.23,11.3,2.91,16.64,5.05h0Z"/>
      <path class="cls-2" d="M260.95,116.94l-24.27,3.04h0c-.35-2.83-.81-5.64-1.4-8.41-1.4-6.69-3.45-13.13-6.08-19.27-.49-1.14-1.01-2.26-1.54-3.38h0s22.13-10.42,22.13-10.42c-2.7-5.71-5.79-11.2-9.27-16.41-4.66-6.96-9.97-13.44-15.87-19.34-6.22-6.22-13.09-11.79-20.48-16.63-1.78-1.16-3.6-2.28-5.44-3.36l-12.32,21.14h0c-4.32-2.52-8.84-4.74-13.53-6.62-5.33-2.14-10.9-3.82-16.63-5.05l5.15-23.94c-.62-.13-1.25-.27-1.88-.4-8.05-1.59-16.38-2.44-24.9-2.44-9,0-17.77.94-26.25,2.71-8.28,1.74-16.26,4.27-23.86,7.53-7.24,3.1-14.12,6.85-20.59,11.18-3.04,2.04-5.98,4.23-8.84,6.51l15.28,19.1c-2.96,2.37-5.8,4.88-8.48,7.56-5.03,5.03-9.53,10.57-13.43,16.55l.14-.21-20.46-13.41-.17.26c-4.54,6.95-8.43,14.38-11.56,22.19-2.88,7.19-5.13,14.7-6.67,22.46-1.6,8.05-2.44,16.38-2.44,24.9,0,5.37.34,10.65.99,15.84l24.27-3.05v-.03c.35,2.85.81,5.66,1.39,8.43,1.4,6.68,3.45,13.13,6.08,19.27.49,1.14,1.01,2.26,1.54,3.37l-22.13,10.43c2.7,5.71,5.79,11.21,9.27,16.41,4.66,6.96,9.97,13.44,15.87,19.34,6.22,6.22,13.09,11.79,20.48,16.62,1.78,1.17,3.6,2.29,5.44,3.36l12.32-21.14h0c4.32,2.52,8.84,4.74,13.53,6.62,5.81,2.33,11.87,4.14,18.14,5.38-.51-.1-1.01-.23-1.51-.34l-5.15,23.93c.63.13,1.25.27,1.88.4,8.05,1.6,16.38,2.44,24.9,2.44,9,0,17.77-.94,26.24-2.71,8.28-1.74,16.26-4.27,23.86-7.53,7.23-3.1,14.12-6.85,20.59-11.18,3.05-2.04,5.98-4.22,8.84-6.51l-15.28-19.1c2.96-2.37,5.8-4.88,8.48-7.56,4.97-4.97,9.42-10.45,13.29-16.34l20.46,13.42.17-.26c4.54-6.96,8.43-14.38,11.56-22.19,2.88-7.19,5.13-14.7,6.66-22.46,1.6-8.05,2.44-16.38,2.44-24.9,0-5.36-.34-10.65-.99-15.84h0ZM226.27,86.11c-.18-.35-.36-.7-.54-1.05.18.35.36.7.54,1.05h0ZM222.43,79.22c-.73-1.2-1.48-2.38-2.26-3.55.78,1.17,1.53,2.35,2.26,3.55h0ZM224.46,82.71c-.33-.59-.67-1.18-1.01-1.76.34.59.68,1.17,1.01,1.76h0ZM77.51,47.23c-1.24.83-2.46,1.7-3.66,2.58,1.2-.89,2.42-1.75,3.66-2.58h0ZM32.2,142.14l.04.47-.04-.47h0ZM31.82,135.82c0,.25.02.5.03.76,0-.25-.02-.5-.03-.76h0ZM31.96,138.93c.01.24.03.47.04.71-.02-.24-.03-.47-.04-.71h0ZM42.98,179.44c.18.35.36.71.54,1.06-.18-.35-.36-.7-.54-1.06h0ZM46.81,186.33c.73,1.2,1.48,2.39,2.26,3.55-.78-1.17-1.53-2.35-2.26-3.55h0ZM44.78,182.84c.33.6.67,1.19,1.02,1.78-.34-.59-.69-1.18-1.02-1.78h0ZM191.73,218.33c1.24-.83,2.46-1.7,3.67-2.59-1.2.89-2.42,1.75-3.67,2.59h0ZM209.49,181.59c-3.4,5.19-7.3,10.02-11.66,14.38-4.14,4.14-8.69,7.87-13.57,11.14-4.54,3.04-9.38,5.68-14.45,7.86-5.34,2.29-10.94,4.08-16.75,5.3-5.95,1.25-12.11,1.92-18.43,1.92-5.98,0-11.83-.6-17.48-1.73-5.45-1.09-10.72-2.68-15.76-4.7-5.48-2.21-10.69-4.93-15.57-8.12-5.19-3.39-10.02-7.29-14.39-11.66-4.14-4.14-7.87-8.69-11.14-13.57-3.04-4.54-5.67-9.37-7.85-14.45-2.29-5.34-4.08-10.94-5.3-16.75-1.25-5.95-1.92-12.11-1.92-18.43,0-5.98.6-11.83,1.73-17.48,1.09-5.45,2.68-10.71,4.71-15.76,2.2-5.48,4.93-10.69,8.12-15.57,3.39-5.19,7.29-10.02,11.66-14.38,4.14-4.14,8.69-7.87,13.57-11.14,4.54-3.04,9.38-5.68,14.45-7.85,5.34-2.3,10.94-4.08,16.75-5.3,5.95-1.25,12.11-1.92,18.43-1.92,5.98,0,11.83.6,17.48,1.73,5.45,1.09,10.71,2.68,15.76,4.71,5.48,2.2,10.69,4.93,15.57,8.12,5.19,3.4,10.02,7.3,14.39,11.67,4.14,4.14,7.87,8.69,11.14,13.57,3.04,4.54,5.68,9.37,7.86,14.45,2.29,5.34,4.08,10.94,5.3,16.75,1.25,5.95,1.92,12.11,1.92,18.43,0,5.98-.6,11.83-1.73,17.48-1.08,5.45-2.68,10.72-4.71,15.76-2.2,5.48-4.93,10.69-8.12,15.57h0ZM237.01,122.96l.04.43-.04-.43h0ZM237.24,125.94c.01.22.03.45.04.67-.01-.23-.03-.45-.04-.67h0ZM237.4,128.99c0,.25.02.49.03.74,0-.25-.02-.49-.03-.74h0Z"/>
      <path class="cls-1" d="M61.84,59.99c2.68-2.68,5.53-5.19,8.49-7.57l-15.29-19.11c-3.67,2.94-7.19,6.05-10.51,9.37-6.15,6.15-11.67,12.94-16.46,20.24l20.48,13.42c3.87-5.9,8.33-11.38,13.3-16.35h0Z"/>
      <path class="cls-12" d="M101.7,55.85c5.08-2.17,10.34-3.81,15.68-4.93,5.68-1.19,11.46-1.8,17.24-1.8,5.48,0,10.96.54,16.36,1.61,5.02.99,9.96,2.45,14.76,4.36,5.05,2.01,9.94,4.54,14.59,7.58,4.77,3.11,9.29,6.75,13.47,10.93,3.96,3.96,7.43,8.23,10.43,12.72,2.89,4.32,5.32,8.86,7.32,13.55,2.17,5.08,3.81,10.33,4.93,15.68,1.18,5.68,1.8,11.46,1.8,17.24,0,5.48-.54,10.96-1.61,16.36-.99,5.02-2.45,9.96-4.36,14.76-2.01,5.05-4.54,9.94-7.58,14.6-3.11,4.77-6.75,9.29-10.93,13.47-3.96,3.96-8.23,7.43-12.72,10.43-4.32,2.89-8.86,5.32-13.55,7.32-5.08,2.17-10.34,3.81-15.68,4.93-5.68,1.19-11.46,1.8-17.24,1.8-5.48,0-10.96-.54-16.36-1.61-5.02-.99-9.96-2.45-14.76-4.36-5.05-2.02-9.94-4.54-14.6-7.58-4.77-3.11-9.29-6.75-13.47-10.93-3.96-3.96-7.43-8.23-10.43-12.72-2.89-4.32-5.32-8.86-7.32-13.55-2.17-5.08-3.81-10.34-4.93-15.68-1.19-5.68-1.8-11.46-1.8-17.24,0-5.48.54-10.96,1.61-16.36.99-5.02,2.45-9.96,4.37-14.76,2.01-5.05,4.54-9.94,7.58-14.6,3.11-4.77,6.75-9.29,10.93-13.47,3.96-3.96,8.22-7.43,12.71-10.43,4.33-2.89,8.87-5.32,13.55-7.32ZM58.35,83.04c-3.3,5.06-6.05,10.38-8.24,15.88-2.09,5.22-3.67,10.6-4.75,16.06-1.16,5.87-1.75,11.83-1.75,17.8,0,6.29.67,12.57,1.96,18.76,1.22,5.82,3,11.53,5.36,17.06,2.17,5.09,4.82,10.03,7.96,14.74,3.27,4.88,7.04,9.53,11.35,13.83,4.55,4.55,9.47,8.51,14.65,11.89,5.06,3.3,10.38,6.05,15.88,8.24,5.22,2.08,10.6,3.67,16.06,4.75,5.87,1.16,11.83,1.75,17.8,1.75,6.29,0,12.57-.67,18.76-1.96,5.82-1.22,11.53-3,17.06-5.36,5.09-2.17,10.03-4.82,14.74-7.96,4.88-3.26,9.53-7.04,13.83-11.34,4.55-4.55,8.5-9.47,11.89-14.65,3.3-5.06,6.05-10.38,8.24-15.88,2.08-5.22,3.67-10.6,4.75-16.06,1.16-5.87,1.75-11.83,1.75-17.8,0-6.29-.67-12.58-1.96-18.76-1.22-5.82-3-11.53-5.36-17.06-2.17-5.09-4.82-10.03-7.96-14.74-3.26-4.88-7.04-9.53-11.35-13.83-4.55-4.55-9.47-8.5-14.65-11.89-5.06-3.3-10.38-6.05-15.88-8.24-5.22-2.08-10.6-3.67-16.06-4.75-5.87-1.16-11.83-1.75-17.8-1.75-6.29,0-12.58.67-18.76,1.96-5.82,1.22-11.53,3-17.06,5.36-5.09,2.17-10.03,4.82-14.74,7.96-4.88,3.26-9.52,7.04-13.83,11.35-4.55,4.55-8.5,9.46-11.89,14.65Z"/>
      <path class="cls-11" d="M203,87.13l6.01-4.01c-3.27-4.89-7.01-9.44-11.15-13.58l-5.11,5.11c3.81,3.81,7.24,7.99,10.25,12.48Z"/>
      <path class="cls-14" d="M210.23,100.42l6.65-2.84c-2.18-5.08-4.82-9.92-7.86-14.46l-6.01,4.01c2.8,4.18,5.22,8.62,7.23,13.29Z"/>
      <path class="cls-11" d="M215.11,115.83l7.08-1.49c-1.22-5.81-3.01-11.42-5.31-16.76l-6.65,2.84c2.11,4.91,3.75,10.06,4.87,15.41Z"/>
      <path class="cls-14" d="M192.75,190.91l5.11,5.11c4.37-4.37,8.28-9.21,11.67-14.4l-6.06-3.95c-3.12,4.77-6.71,9.21-10.73,13.23Z"/>
      <path class="cls-14" d="M58.29,102.2l-6.71-2.69c-2.03,5.05-3.63,10.32-4.71,15.77l7.09,1.41c1-5.01,2.46-9.86,4.33-14.5Z"/>
      <path class="cls-11" d="M54.14,149.73l-7.08,1.49c1.22,5.81,3.01,11.42,5.31,16.76l6.65-2.85c-2.11-4.91-3.75-10.06-4.88-15.4Z"/>
      <path class="cls-11" d="M53.96,116.7l-7.09-1.41c-1.13,5.66-1.73,11.51-1.73,17.49h7.23c0-5.5.55-10.88,1.59-16.08Z"/>
      <path class="cls-14" d="M52.37,132.78h-7.23c0,6.32.67,12.49,1.92,18.44l7.08-1.49c-1.15-5.47-1.76-11.14-1.76-16.95Z"/>
      <path class="cls-14" d="M59.01,165.13l-6.65,2.85c2.18,5.08,4.82,9.91,7.86,14.46l6.01-4.02c-2.8-4.18-5.22-8.62-7.23-13.29Z"/>
      <path class="cls-14" d="M76.49,190.91l-5.11,5.11c4.37,4.37,9.2,8.27,14.39,11.67l3.95-6.06c-4.77-3.12-9.22-6.71-13.23-10.73Z"/>
      <path class="cls-11" d="M66.24,178.42l-6.01,4.02c3.27,4.89,7.01,9.44,11.15,13.58l5.11-5.11c-3.81-3.81-7.24-8-10.25-12.49Z"/>
      <path class="cls-11" d="M89.72,201.64l-3.95,6.06c4.89,3.2,10.1,5.92,15.58,8.13l2.69-6.71c-5.04-2.03-9.83-4.53-14.32-7.47Z"/>
      <path class="cls-11" d="M65.76,87.88l-6.05-3.95c-3.2,4.88-5.92,10.1-8.13,15.58l6.71,2.69c2.03-5.04,4.53-9.83,7.47-14.32Z"/>
      <path class="cls-14" d="M134.62,50.53v-7.23c-6.32,0-12.49.67-18.44,1.92l1.49,7.08c5.47-1.15,11.14-1.77,16.95-1.77Z"/>
      <path class="cls-14" d="M102.27,57.17l-2.85-6.65c-5.08,2.18-9.91,4.82-14.46,7.86l4.02,6.01c4.18-2.8,8.62-5.22,13.29-7.23Z"/>
      <path class="cls-11" d="M117.67,52.29l-1.49-7.08c-5.81,1.22-11.42,3.01-16.76,5.31l2.85,6.65c4.91-2.11,10.06-3.75,15.41-4.88Z"/>
      <path class="cls-14" d="M76.49,74.64l-5.11-5.11c-4.37,4.37-8.28,9.2-11.67,14.4l6.05,3.95c3.12-4.77,6.71-9.22,10.73-13.23Z"/>
      <path class="cls-11" d="M88.97,64.4l-4.02-6.01c-4.88,3.27-9.44,7.01-13.58,11.15l5.11,5.11c3.81-3.81,7.99-7.24,12.48-10.25Z"/>
      <path class="cls-14" d="M215.11,115.83c1.15,5.47,1.77,11.14,1.77,16.95h7.23c0-6.32-.67-12.49-1.92-18.44l-7.08,1.49Z"/>
      <path class="cls-11" d="M215.28,148.86l7.09,1.41c1.13-5.66,1.73-11.51,1.73-17.5h-7.23c0,5.5-.55,10.88-1.59,16.08Z"/>
      <path class="cls-14" d="M192.75,74.64l5.11-5.11c-4.37-4.37-9.2-8.27-14.4-11.67l-3.95,6.06c4.77,3.12,9.21,6.71,13.23,10.73Z"/>
      <path class="cls-14" d="M210.95,163.36l6.71,2.69c2.03-5.05,3.63-10.32,4.71-15.77l-7.09-1.41c-1,5.01-2.46,9.85-4.33,14.5Z"/>
      <path class="cls-14" d="M104.04,209.11l-2.69,6.71c5.05,2.03,10.32,3.63,15.77,4.71l1.41-7.09c-5.01-1-9.86-2.46-14.5-4.33Z"/>
      <path class="cls-11" d="M179.52,63.92l3.95-6.06c-4.88-3.2-10.1-5.92-15.58-8.13l-2.69,6.71c5.04,2.03,9.83,4.53,14.32,7.47Z"/>
      <path class="cls-14" d="M165.2,56.45l2.69-6.71c-5.05-2.03-10.32-3.62-15.77-4.71l-1.41,7.09c5.01.99,9.86,2.46,14.5,4.33Z"/>
      <path class="cls-11" d="M203.48,177.68l6.06,3.95c3.2-4.89,5.92-10.1,8.13-15.58l-6.71-2.69c-2.03,5.04-4.53,9.83-7.47,14.32Z"/>
      <path class="cls-14" d="M134.62,215.03v7.23c6.32,0,12.49-.67,18.44-1.92l-1.49-7.08c-5.47,1.15-11.14,1.76-16.95,1.76Z"/>
      <path class="cls-11" d="M150.7,52.12l1.41-7.09c-5.66-1.13-11.51-1.73-17.49-1.73v7.23c5.5,0,10.88.55,16.08,1.59Z"/>
      <path class="cls-11" d="M118.54,213.44l-1.41,7.09c5.66,1.13,11.51,1.73,17.5,1.73v-7.23c-5.5,0-10.88-.55-16.08-1.59Z"/>
      <path class="cls-11" d="M151.57,213.26l1.49,7.08c5.81-1.22,11.42-3.01,16.76-5.31l-2.85-6.65c-4.91,2.11-10.06,3.75-15.41,4.88Z"/>
      <path class="cls-14" d="M166.98,208.39l2.85,6.65c5.08-2.18,9.91-4.82,14.46-7.86l-4.02-6.01c-4.18,2.8-8.62,5.22-13.29,7.23Z"/>
      <path class="cls-11" d="M180.27,201.16l4.02,6.01c4.89-3.27,9.44-7,13.58-11.15l-5.11-5.11c-3.81,3.81-7.99,7.24-12.49,10.25Z"/>
      <path class="cls-11" d="M32.98,148.98c.04.27.07.55.12.83-.05-.27-.08-.55-.12-.83Z"/>
      <path class="cls-11" d="M207.41,205.56c4.97-4.97,9.42-10.45,13.3-16.35-3.87,5.9-8.33,11.38-13.3,16.35Z"/>
      <path class="cls-11" d="M104.58,231.23c2.75.84,5.55,1.56,8.39,2.16-2.84-.61-5.64-1.33-8.39-2.16Z"/>
      <path class="cls-11" d="M100.48,229.89c1.11.39,2.23.75,3.36,1.1-1.13-.35-2.25-.71-3.36-1.1Z"/>
      <path class="cls-11" d="M236.14,115.74l.06.4-.06-.4Z"/>
      <path class="cls-36" d="M54.78,67.83c-2.21,2.72-4.28,5.55-6.21,8.49,1.93-2.94,4-5.77,6.21-8.49Z"/>
      <path class="cls-36" d="M58.2,63.83c-1.08,1.2-2.12,2.43-3.15,3.67,1.02-1.25,2.07-2.48,3.15-3.67Z"/>
      <path class="cls-10" d="M21.05,186.3l-1.68.79.41-.19,1.27-.6h0ZM8.29,148.61h-.09s.09,0,.09,0h0Z"/>
      <path class="cls-9" d="M10.04,148.4l-1.75.22h0s-.09,0-.09,0c.44,3.52,1.01,6.99,1.73,10.41,1.74,8.28,4.28,16.27,7.53,23.88.61,1.41,1.25,2.8,1.91,4.18h0l1.68-.79c-.64-1.36-1.28-2.73-1.88-4.11-3.21-7.5-5.71-15.37-7.42-23.53-.71-3.37-1.27-6.79-1.7-10.26h0Z"/>
      <path class="cls-8" d="M21.05,186.3l-1.27.6,1.27-.6h0ZM10.04,148.4l-1.75.22h0s1.75-.22,1.75-.22h0Z"/>
      <polygon class="cls-5" points="241.1 202.58 241.1 202.58 241.18 202.63 241.18 202.63 241.1 202.58 241.1 202.58"/>
      <path class="cls-6" d="M239.63,201.61c-4.73,7.2-10.16,13.88-16.22,19.94-3.27,3.27-6.74,6.34-10.35,9.23l1.1,1.38h0l.06.07c3.67-2.94,7.19-6.05,10.51-9.37,6.15-6.15,11.67-12.94,16.47-20.24l-.08-.05h0l-1.47-.97h0Z"/>
      <path class="cls-4" d="M213.05,230.79h0l1.1,1.38h0l-1.1-1.38h0ZM239.63,201.61h0s1.47.97,1.47.97h0l-1.47-.97h0Z"/>
      <polygon class="cls-3" points="108.22 255.53 107.83 257.35 108.22 255.53 108.22 255.53 108.22 255.53"/>
      <path class="cls-7" d="M71.41,241.27l-.93,1.6c5.35,3.12,10.95,5.87,16.76,8.2,6.61,2.65,13.49,4.76,20.6,6.27h0l.39-1.81c-7-1.5-13.78-3.57-20.29-6.18-5.73-2.3-11.24-5-16.51-8.08h0Z"/>
      <polygon class="cls-15" points="261.05 116.93 259.2 117.16 259.2 117.16 260.25 117.03 261.05 116.93 261.05 116.93"/>
      <path class="cls-16" d="M249.88,78.46h0l-1.68.79c.64,1.36,1.28,2.73,1.88,4.12,3.21,7.5,5.72,15.37,7.42,23.53.71,3.37,1.27,6.79,1.7,10.26l1.84-.23c-.44-3.52-1.01-6.99-1.73-10.41-1.74-8.28-4.28-16.27-7.54-23.88-.6-1.41-1.25-2.8-1.91-4.18h0Z"/>
      <rect class="cls-17" x="259.2" y="117.09" width="1.05" transform="translate(-12.59 33.35) rotate(-7.17)"/>
      <polygon class="cls-18" points="198.77 22.68 197.91 24.15 198.71 22.79 198.77 22.68 198.77 22.68"/>
      <path class="cls-20" d="M161.42,8.21h0l-.39,1.81c7,1.5,13.78,3.57,20.3,6.18,5.73,2.3,11.24,5,16.51,8.08l.07-.13.86-1.47c-5.35-3.12-10.94-5.87-16.76-8.2-6.61-2.65-13.49-4.76-20.6-6.28h0Z"/>
      <polygon class="cls-28" points="198.71 22.79 197.91 24.15 197.84 24.28 197.84 24.28 198.71 22.79 198.71 22.79"/>
      <path class="cls-29" d="M28.07,62.92l-.17.26c-4.55,6.96-8.43,14.39-11.57,22.2-2.88,7.19-5.13,14.71-6.67,22.48-1.6,8.06-2.44,16.39-2.44,24.91,0,5.37.34,10.66.99,15.85h.09c-.65-5.2-.99-10.48-.99-15.85,0-8.52.84-16.84,2.44-24.9,1.54-7.76,3.78-15.27,6.67-22.46,3.13-7.81,7.01-15.23,11.56-22.19l.17-.26-.08-.05h0Z"/>
      <path class="cls-30" d="M28.14,62.98l-.17.26c-4.54,6.95-8.43,14.38-11.56,22.19-2.88,7.19-5.13,14.7-6.67,22.46-1.6,8.05-2.44,16.38-2.44,24.9,0,5.37.34,10.65.99,15.84l1.75-.22c-.64-5.12-.97-10.33-.97-15.62,0-8.4.83-16.61,2.41-24.55,1.52-7.66,3.73-15.06,6.57-22.15,3.09-7.7,6.92-15.02,11.4-21.88l.17-.25-1.47-.96h0Z"/>
      <polygon class="cls-31" points="28.07 62.92 28.07 62.92 28.14 62.98 29.62 63.94 29.62 63.94 28.07 62.92 28.07 62.92"/>
      <path class="cls-19" d="M19.78,186.9l-.41.19c2.7,5.72,5.79,11.21,9.28,16.43,4.66,6.96,9.98,13.45,15.88,19.35,6.23,6.22,13.1,11.8,20.5,16.64,1.78,1.17,3.6,2.29,5.45,3.36h0l.93-1.6h0l-.89,1.52c-1.84-1.08-3.66-2.2-5.44-3.36-7.4-4.83-14.26-10.41-20.48-16.62-5.9-5.9-11.22-12.38-15.87-19.34-3.48-5.21-6.57-10.7-9.27-16.41l.33-.15h0Z"/>
      <polygon class="cls-22" points="71.41 241.27 70.48 242.87 71.41 241.27 71.41 241.27 71.41 241.27"/>
      <path class="cls-21" d="M21.05,186.3h0l-1.27.6-.33.15c2.7,5.71,5.79,11.21,9.27,16.41,4.66,6.96,9.97,13.44,15.87,19.34,6.22,6.22,13.09,11.79,20.48,16.62,1.78,1.17,3.6,2.29,5.44,3.36l.89-1.52c-1.82-1.06-3.61-2.17-5.37-3.32-7.29-4.77-14.06-10.26-20.2-16.4-5.82-5.82-11.06-12.2-15.65-19.07-3.44-5.14-6.48-10.55-9.14-16.19h0Z"/>
      <path class="cls-23" d="M213.05,230.79c-2.81,2.25-5.71,4.41-8.72,6.42-6.38,4.27-13.17,7.97-20.3,11.02-7.5,3.21-15.37,5.71-23.53,7.43-8.35,1.75-17.01,2.68-25.88,2.68-8.4,0-16.61-.83-24.55-2.41-.62-.12-1.24-.26-1.85-.39l-.39,1.81c.63.14,1.25.27,1.88.4,8.06,1.6,16.39,2.44,24.92,2.44,9,0,17.79-.94,26.26-2.71,8.28-1.74,16.27-4.28,23.88-7.54,7.24-3.1,14.13-6.85,20.6-11.18,3.05-2.04,5.99-4.23,8.84-6.51l-1.16-1.45Z"/>
      <path class="cls-24" d="M261.05,116.93l-1.84.23c.64,5.12.98,10.33.98,15.62,0,8.4-.83,16.61-2.41,24.55-1.52,7.66-3.73,15.06-6.57,22.15-3.09,7.7-6.92,15.02-11.4,21.88l-.17.25,1.55,1.02.17-.26c4.55-6.96,8.43-14.39,11.57-22.21,2.88-7.19,5.13-14.71,6.67-22.47,1.6-8.06,2.44-16.39,2.44-24.92,0-5.37-.34-10.65-.99-15.85Z"/>
      <path class="cls-33" d="M197.84,24.28c1.82,1.06,3.61,2.17,5.37,3.32,7.29,4.77,14.06,10.26,20.2,16.4,5.82,5.82,11.06,12.21,15.65,19.07,3.44,5.14,6.48,10.55,9.14,16.19l1.68-.79c-2.7-5.72-5.79-11.21-9.28-16.42-4.66-6.96-9.98-13.45-15.88-19.35-6.23-6.22-13.1-11.8-20.5-16.64-1.79-1.17-3.6-2.29-5.45-3.36l-.93,1.6Z"/>
      <path class="cls-26" d="M134.62,5.37c-9.01,0-17.79.94-26.26,2.72-8.28,1.74-16.27,4.27-23.88,7.53-7.24,3.1-14.13,6.85-20.6,11.19-3.05,2.04-5.99,4.23-8.84,6.51h0l.06.07c2.86-2.28,5.79-4.47,8.83-6.51,6.47-4.32,13.36-8.08,20.59-11.18,7.6-3.26,15.58-5.79,23.86-7.53,8.47-1.77,17.25-2.71,26.25-2.71,8.52,0,16.84.85,24.9,2.44.63.13,1.25.26,1.88.4l-.37,1.72h0l.39-1.81c-.62-.13-1.25-.27-1.88-.4-8.06-1.6-16.39-2.44-24.92-2.44h0Z"/>
      <rect class="cls-34" x="160.3" y="9.11" width="1.86" transform="translate(118.45 164.82) rotate(-77.87)"/>
      <path class="cls-32" d="M134.62,5.46c-9,0-17.77.94-26.25,2.71-8.28,1.74-16.26,4.27-23.86,7.53-7.24,3.1-14.12,6.85-20.59,11.18-3.04,2.04-5.98,4.23-8.83,6.51l1.1,1.38c2.81-2.25,5.71-4.41,8.71-6.42,6.38-4.27,13.17-7.97,20.3-11.02,7.49-3.21,15.37-5.72,23.53-7.43,8.35-1.75,17.01-2.68,25.88-2.68,8.4,0,16.61.83,24.55,2.41.62.13,1.24.26,1.85.39l.37-1.72c-.62-.13-1.25-.27-1.88-.4-8.05-1.59-16.38-2.44-24.9-2.44h0Z"/>
      <polygon class="cls-25" points="55.04 33.31 56.2 34.76 56.2 34.76 56.2 34.76 55.1 33.39 55.04 33.31 55.04 33.31"/>
      <path class="cls-35" d="M55.04,33.31c-3.67,2.94-7.19,6.05-10.51,9.37-6.15,6.15-11.67,12.94-16.46,20.24l1.55,1.01c4.73-7.19,10.16-13.88,16.23-19.94,3.27-3.27,6.74-6.34,10.35-9.23l-1.16-1.45h0Z"/>
      <path class="cls-11" d="M156.51,240.16c0-2.87,2.32-5.19,5.19-5.19s5.19,2.33,5.19,5.19-2.33,5.19-5.19,5.19-5.19-2.32-5.19-5.19Z"/>
      <path class="cls-11" d="M103.84,25.4c0-2.87,2.32-5.19,5.19-5.19s5.19,2.33,5.19,5.19-2.32,5.19-5.19,5.19-5.19-2.32-5.19-5.19Z"/>
      <path class="cls-11" d="M20.75,113.3c0-2.87,2.32-5.19,5.19-5.19s5.19,2.32,5.19,5.19-2.32,5.19-5.19,5.19-5.19-2.33-5.19-5.19Z"/>
      <path class="cls-11" d="M49.68,209.37c0-2.87,2.32-5.19,5.19-5.19s5.19,2.32,5.19,5.19-2.33,5.19-5.19,5.19-5.19-2.32-5.19-5.19Z"/>
      <path class="cls-11" d="M236.63,158.18c0-2.87,2.32-5.19,5.19-5.19s5.19,2.32,5.19,5.19-2.32,5.19-5.19,5.19-5.19-2.32-5.19-5.19Z"/>
      <path class="cls-11" d="M211.03,59.15c0-2.87,2.32-5.19,5.19-5.19s5.19,2.32,5.19,5.19-2.33,5.19-5.19,5.19-5.19-2.32-5.19-5.19Z"/>
      <path class="cls-27" d="M203.52,177.7c2.98-4.57,5.47-9.38,7.44-14.34,1.88-4.72,3.31-9.58,4.29-14.51,1.05-5.3,1.58-10.69,1.58-16.08,0-5.68-.6-11.36-1.77-16.94-1.1-5.25-2.71-10.41-4.85-15.41-1.96-4.6-4.35-9.06-7.19-13.31-.66-.99-1.35-1.96-2.06-2.93-.22-.3-.44-.59-.67-.89-.52-.69-1.05-1.38-1.6-2.05-.24-.31-.49-.61-.74-.91-.7-.84-1.41-1.67-2.14-2.49l-.25-.29c-.9-1-1.83-1.98-2.79-2.94-1.01-1.01-2.05-2-3.1-2.95h0s0,0,0,0h0s-.26-.23-.26-.23c-.88-.78-1.77-1.54-2.67-2.28-.32-.26-.64-.52-.97-.78-.72-.57-1.44-1.12-2.17-1.66-.32-.24-.63-.47-.95-.7-1.02-.74-2.06-1.46-3.11-2.14-4.57-2.98-9.38-5.47-14.34-7.45-4.72-1.88-9.58-3.31-14.51-4.29-5.3-1.05-10.69-1.58-16.08-1.58-5.68,0-11.36.6-16.94,1.77-5.25,1.1-10.41,2.71-15.41,4.84-4.6,1.96-9.06,4.35-13.31,7.19-4.41,2.95-8.6,6.36-12.5,10.25-4.11,4.11-7.68,8.55-10.74,13.24-2.98,4.57-5.46,9.38-7.44,14.34-1.88,4.72-3.31,9.58-4.29,14.51-1.05,5.3-1.58,10.69-1.58,16.07,0,5.68.6,11.36,1.77,16.94,1.1,5.25,2.71,10.42,4.84,15.41,1.96,4.6,4.35,9.06,7.19,13.31.66.99,1.35,1.96,2.06,2.93.22.3.44.59.67.89.52.69,1.05,1.37,1.6,2.05.24.3.49.61.74.91.7.84,1.41,1.67,2.14,2.49.98,1.09,1.99,2.17,3.04,3.22,4.11,4.11,8.55,7.68,13.23,10.74,4.57,2.98,9.38,5.47,14.34,7.45,4.72,1.88,9.58,3.31,14.51,4.29,5.3,1.05,10.69,1.58,16.08,1.58,5.68,0,11.36-.6,16.94-1.77,5.25-1.1,10.42-2.71,15.41-4.85,4.6-1.96,9.06-4.35,13.31-7.19,4.41-2.95,8.6-6.36,12.5-10.25,4.11-4.11,7.68-8.55,10.74-13.23ZM201.58,85.05c-.15-.2-.28-.41-.43-.61.15.2.29.41.43.61ZM200,82.9c-.38-.5-.76-.99-1.15-1.47.39.49.77.98,1.15,1.47ZM197.89,80.23c-.66-.8-1.34-1.59-2.04-2.37.7.78,1.37,1.57,2.04,2.37ZM189.39,71.42c-.84-.75-1.69-1.47-2.55-2.18.86.71,1.71,1.43,2.55,2.18ZM185.58,68.24c-.52-.41-1.04-.81-1.56-1.2.53.4,1.05.8,1.56,1.2ZM182.39,65.83c-.21-.15-.42-.29-.63-.43.21.15.42.29.63.43ZM67.66,180.49c.15.21.29.42.44.62-.15-.2-.29-.42-.44-.62ZM69.24,182.65c.38.5.76.99,1.15,1.48-.39-.49-.78-.98-1.15-1.48ZM71.36,185.32c.67.8,1.34,1.59,2.04,2.38-.7-.78-1.38-1.57-2.04-2.38Z"/>
      <path class="cls-2" d="M213.38,116.19c-1.1-5.23-2.71-10.27-4.77-15.08-1.96-4.57-4.33-8.92-7.07-13-2.94-4.4-6.3-8.49-10.03-12.22-3.93-3.93-8.28-7.44-12.95-10.5-4.4-2.88-9.09-5.33-14.02-7.31-4.54-1.83-9.28-3.26-14.19-4.23-1.14-.23-2.3-.42-3.45-.6-.36-.05-.72-.1-1.08-.15-.84-.12-1.68-.22-2.52-.31-.38-.04-.76-.09-1.15-.12-1.06-.1-2.13-.18-3.2-.24l-.37-.03c-1.31-.07-2.64-.1-3.97-.1-1.4,0-2.8.04-4.19.11h0,0,0l-.34.02c-1.15.06-2.29.16-3.43.27-.4.04-.8.09-1.21.13-.89.1-1.77.22-2.65.35-.38.06-.76.11-1.14.17-1.22.2-2.43.42-3.63.67-5.23,1.1-10.27,2.71-15.08,4.77-4.57,1.96-8.92,4.33-13.01,7.07-4.4,2.94-8.49,6.3-12.22,10.03-3.93,3.93-7.44,8.28-10.5,12.95-2.88,4.4-5.33,9.08-7.31,14.02-1.83,4.54-3.26,9.28-4.23,14.19-1.01,5.09-1.56,10.35-1.56,15.74,0,5.69.6,11.23,1.73,16.59,1.1,5.23,2.71,10.27,4.77,15.08,1.96,4.57,4.33,8.92,7.07,13.01,2.94,4.4,6.3,8.49,10.03,12.22,3.93,3.93,8.28,7.44,12.95,10.5,4.39,2.88,9.08,5.33,14.01,7.31,4.54,1.83,9.28,3.26,14.19,4.24,1.14.23,2.3.42,3.45.6.36.06.72.11,1.08.15.84.12,1.68.22,2.53.32.38.04.76.08,1.14.12,1.06.1,2.13.18,3.21.24,1.44.08,2.88.13,4.33.13,5.69,0,11.23-.6,16.59-1.73,5.23-1.1,10.27-2.71,15.08-4.77,4.57-1.96,8.92-4.34,13.01-7.07,4.4-2.94,8.49-6.3,12.22-10.03,3.93-3.93,7.44-8.28,10.5-12.95,2.88-4.39,5.33-9.08,7.31-14.01,1.83-4.54,3.26-9.28,4.24-14.19,1.01-5.09,1.56-10.35,1.56-15.74,0-5.68-.6-11.23-1.73-16.59ZM147.93,53.42c-.24-.04-.48-.09-.72-.13.24.04.48.09.72.13ZM145.35,53.03c-.6-.08-1.2-.16-1.81-.23.61.07,1.21.14,1.81.23ZM142.04,52.64c-1.01-.09-2.03-.17-3.05-.23,1.02.06,2.04.13,3.05.23ZM125.22,52.86c-.64.08-1.28.16-1.91.25.63-.09,1.27-.18,1.91-.25ZM121.35,53.41c-.25.04-.49.09-.74.14.25-.05.49-.09.74-.14ZM121.31,212.13c.24.04.49.09.73.13-.24-.04-.49-.09-.73-.13ZM127.2,212.91c1.01.09,2.03.17,3.06.23-1.02-.06-2.04-.13-3.06-.23Z"/>
    </g>
  </g>
</svg>